<?xml version="1.0" encoding="utf-8"?>
<!-- Generator: Adobe Illustrator 19.1.1, SVG Export Plug-In . SVG Version: 6.00 Build 0)  -->
<svg version="1.2" baseProfile="tiny" id="Слой_1"
	 xmlns="http://www.w3.org/2000/svg" xmlns:xlink="http://www.w3.org/1999/xlink" x="0px" y="0px" viewBox="0 0 595.3 841.9"
	 xml:space="preserve">
<path fill="none" stroke="#000000" stroke-width="2" stroke-miterlimit="10" d="M180.3,263.3c0,0-1.3,9.3,2.7,22
	c4,12.7,6.7,22.7,6.7,28.7s0,17.3,3.3,24.7c3.3,7.3,6.7,14.7,7.3,18c0.7,3.3-1.3,15.3,0,20c1.3,4.7,16,41.3,37.3,77.3
	s26.7,46.1,32,52.4c5.3,6.3,24,9.6,37.3,6.3c13.3-3.3,22.7-4.7,34.7-13.3c12-8.7,6.7-13.3,7.3-16.7c0.7-3.3,0.6-13.3,0.6-13.3
	s8.7-2,20-6c11.3-4,24.7-12,34.7-20.7c10-8.7,16.7-14.1,21.3-21.7c4.7-7.6,0-22.3,0-22.3s6-7.3,10-14.7s12-15.3,15.3-25.3
	s0-24.7,0-24.7"/>
<path fill="none" stroke="#000000" stroke-width="2" stroke-miterlimit="10" d="M196.3,335.4c-1.1-5.1,2.6-10.2,7.2-12.4
	c4.7-2.2,10.1-2.1,15.2-1.5c8.1,1,16,3,23.5,6.1c2.5,1,4.9,2.2,6.7,4.2c2.9,3.3,3.2,8.2,3.2,12.6c-0.1,16.6-2,33.2-5.7,49.4
	c-1.3,5.6-2.7,11.7-0.4,16.9c2.9,6.5,10.5,9.4,17.3,11.5c4.3,1.3,9.6,2.5,12.7-0.8c0.4-0.4,0.7-0.9,0.8-1.4c0.3-2-2.4-2.7-4.3-3.3
	c-1.9-0.5-3.7-3.3-1.9-4.1c4.4-2.2,9.6-1.7,14.6-2c4.9-0.2,10.5-1.7,12.9-6s-1.7-11.3-6.3-9.5"/>
<path fill="none" stroke="#000000" stroke-width="2" stroke-miterlimit="10" d="M357.7,314.7c-4.7,0.6-8.8-2.8-13.3-4.3
	c-4.4-1.5-9.2-1.2-13.8-0.8c-13.9,1-27.7,2-41.6,3.1c-1.1,0.1-2.2,0.2-3.1,0.7c-1.1,0.6-1.8,1.7-2.3,2.8c-1.9,3.6-3.5,7.4-4.5,11.3
	c2.2-3.4,4.4-6.7,6.6-10.1c0.7-1.1,1.4-2.1,2.5-2.8c1.3-0.8,3-0.7,4.5-0.6c17.2,0.9,34.6-0.1,51.6-2.9c0.8,1.3-0.1,3.1-1.4,3.8
	s-2.9,0.7-4.4,0.6c-13.2-0.5-26.5-0.5-39.7,0.4c-3.7,0.3-7.6,0.7-10.8,2.6c-3.2,1.9-5.5,5.9-4.4,9.4c3.4,0.2,3.6-5.3,6.3-7.5
	c0.9-0.7,2-1.1,3-1.4c6.1-1.8,12.2-3.3,18.4-4.4c1.7-0.3,3.6-0.6,5.1,0.2c1.5,0.8,2.4,3.1,1.1,4.3c-7.8-0.4-15.7,0.3-23.3,2
	c-2.2,0.5-4.5,1.2-5.8,2.9c-1,1.3-1.3,2.9-1.4,4.6c-0.4,5.5,1.5,11.1,5.1,15.3c1.9-0.6,2.7-2.7,3.7-4.4c4.4-7.8,14.3-10.5,23.2-10.9
	c8.3-0.4,17.9,1.3,21.8,8.6c0.1,0.3,0.3,0.5,0.2,0.8c-0.1,0.4-0.4,0.7-0.8,0.9c-13.2,8.3-30.4,9.9-45,4.2c-0.4-0.2-0.9-0.4-1.1-0.8
	c-0.3-0.5-0.1-1.2,0.1-1.7c2.7-6.5,11-8.3,18-9c-0.9,3.6,0.9,7.6,4,9.7s7.1,2.5,10.7,1.4c1.6-0.5,3.1-1.3,4.2-2.5
	c2.5-3.1,1.1-8-2.2-10.3c-3.2-2.3-7.5-2.4-11.4-1.6c-2.2,0.4-4.5,1.2-5.9,3c-2.7,3.4-0.4,8.8,3.4,11c3.8,2.1,8.4,1.9,12.8,1.6
	c-0.7-4.9-4.5-9.2-9.3-10.5c0,1.3,0,2.6,0.1,3.9c2.2,0.8,4.8-1.3,4.5-3.6c-2.4-1.5-5.9,1.9-4.5,4.3c1.7,0,3.5,0,5.2,0.1
	c-0.4-2.2,0.2-4.5,1.6-6.3c-2.6-1.2-5.5,2.7-3.6,4.9c-0.9-0.6-2.1-0.8-3.1-0.4c-0.9,1.2,0.8,3.2,2.1,2.4c0.9-2,0.6-4.4-0.7-6.1"/>
<path fill="none" stroke="#000000" stroke-width="2" stroke-miterlimit="10" d="M197.9,332.7c1.1-4,4.5-7,8.3-8.5
	c3.8-1.5,8-1.8,12.1-1.6c9.7,0.5,19.3,3.2,27.7,8c1,0.6,2.2,1.6,1.8,2.7c-7.4-4.6-15.6-7.9-24.1-9.7c-4.9-1-10.1-1.5-14.8,0.1
	c-4.7,1.6-8.9,5.7-9.2,10.7c3.2-6.8,11.9-9,19.4-9c7.1,0,14.2,1.4,20.6,4.2c4.3,1.9,8.6,4.9,10,9.3c-9.6-8.4-22.5-13-35.2-12.7
	c7.2,1.7,14.3,3.7,21.3,6.1c5,1.7,10.4,4,12.5,8.9c1.2,2.8,1,6.1,0.8,9.2c-0.9-2.3-1.9-4.7-3.7-6.4c-2.4-2.3-6-3.1-9.3-3.6
	c-5.2-0.7-10.5-0.9-15.8-0.6c-1.1,0.1-2.3,0.2-3.3,0.7c-1.2,0.6-2,1.7-2.7,2.9c-1.3,2.2-2.3,4.6-3,7c-0.1,0.4-0.2,0.9,0,1.3
	c0.2,0.6,0.9,0.9,1.6,1.1c6,1.8,12.1,3.7,18.4,4.1c6.3,0.4,12.9-0.9,17.8-4.8c-3,0.8-6.1,1.5-9.2,2.1c-4.1,0.7-8.5,1.2-12.5-0.1
	c-4-1.3-7.5-5-7.3-9.2c0-1.5,0.7-3.1,2-3.8c0.7-0.3,1.4-0.4,2.1-0.5c1.9-0.2,3.8-0.4,5.8-0.6c3.3-0.3,7.2-0.3,9,2.4
	c1.4,2,0.8,4.9-0.6,6.9c-1.4,2-3.6,3.3-5.6,4.6c4.3-0.1,7-5.2,6.3-9.5c-0.1-0.4-0.2-0.9-0.5-1.2c-0.4-0.4-0.9-0.5-1.5-0.6
	c-1.9-0.3-3.9-0.6-5.6,0.3c-1.7,0.9-2.7,3.3-1.4,4.7c0.8,0.9,2.4,0.4,2.9-0.7c0.5-1.1,0.2-2.4-0.1-3.5c-1,0-2.1,0-3.1,0
	c-0.1,1.8-0.2,3.6-0.2,5.3c1,0.8,2.7,0.4,3.3-0.7s0.1-2.7-1.1-3.2c0,1-0.1,2-0.1,3c0-1.5-0.1-3-0.1-4.4c-0.8,0-1.7,0-2.5,0
	c0,1.5,0.1,2.9,0.1,4.4c1.9,1.3,5.1,0.2,5.4-2.1c0.3-2.3-2.9-4.2-4.6-2.7c-0.5,1.7-0.5,3.5,0.1,5.1"/>
<path fill="none" stroke="#000000" stroke-width="2" stroke-miterlimit="10" d="M318,435.9c-7.8,3.6-16.9,4.4-25.2,2.2
	c-4.2-1.1-9.4-2.7-12.3,0.6c-1.3,1.4-1.8,3.5-3.2,4.8c-2.2,1.9-5.6,1.1-8.2-0.1s-5.5-2.7-8.3-1.9c-1.6,0.4-2.9,1.6-4.4,2.2
	c-1.5,0.6-3.6,0.5-4.4-0.9c-0.7,0.9-0.1,2.3,0.8,2.9c0.9,0.7,2,1,3,1.6c3.5,2.4,2.8,8,5.7,11.2c1.1,1.2,2.7,2,4.2,2.6
	c4.9,1.9,10.1,3.2,15.3,3.8c6.6,0.7,14.4-0.4,17.8-6.2c1.5-2.6,1.9-5.8,4-7.9c1.5-1.5,3.5-2.3,5.4-3.3c3.9-2.1,7.2-5.6,9-9.6
	c-7.1,3.3-14.7,5.4-22.4,6.1c-2.8,0.3-5.8,0.4-8.3,1.7c-2.5,1.4-4.4,3.9-7.2,4.4c-3.9,0.8-7.4-2.5-11.3-3.3
	c-4.3-0.9-9.9,1.1-12.6-2.4"/>
<path fill="none" stroke="#000000" stroke-width="2" stroke-miterlimit="10" d="M409.1,385.4c0,3.6,0,7.3,1.2,10.6
	c1.3,3.4,4.1,6.4,7.6,6.9c3.4,0.4,7-1.8,8.1-5.1c-0.8,1.9-3,3.2-5,2.9"/>
<path fill="none" stroke="#000000" stroke-miterlimit="10" d="M197,354.7c-3.4,1.3-7.1,1.6-10.7,0.9c3.4-0.2,6.2-3.5,5.9-6.8
	c-4.6,0.2-9.2,0.4-13.7,0.6c4.4,0.3,8.8,0,13.2-0.8c-0.1-2.4-3.1-4.1-5.2-2.9c-3.1,3.5,1.9,10.1,6.1,7.9c1.8-3.1-1.1-7.7-4.7-7.5
	c-3.6,0.2-5.9,5.1-3.8,8c5.3-3.5,5.4-12.4,0.3-16.1c-1.7,0.7-2.8,2.6-2.7,4.4c3.1,1.2,6.8,1,9.7-0.7c-7-2-14.4-2.6-21.7-1.7
	c-0.6-1.7-1.2-3.4-1.7-5c4.1,1.2,8.2,2.5,12.3,3.7c0.1-1.5,0.1-2.9,0.2-4.4c-3.1,1.8-7.3,1.6-10.2-0.6c5.8,1.1,11.6,2.2,17.4,3.3
	c-1.4-3.1-3.8-5.7-6.7-7.4c1.3-0.5,1.8-2.5,0.8-3.5s-3-0.7-3.6,0.6c2.1,0.8,4.3,1,6.5,0.5c1.6-3.1,2.6-6.5,2.9-9.9
	c-4.4,0.8-8,4.7-8.5,9.1c5.3-3.2,8.5-9.6,7.8-15.8c-2.3,0.2-4.7,0.4-7,0.6c1.8,7.2-2.4,15.3-9.3,18.1c0-8.8,17.1-11.3,15-19.9
	c-7.1,0-14.1,1.5-20.5,4.6c7.6-5,15.2-10,22.7-15c-5-3-10.3,3.2-12.6,8.5c-2.3,5.3-6.7,11.8-12.1,9.8c9.6-1.6,16.1-13.1,12.7-22.2
	c-5.9,5.6-13.3,9.5-21.2,11.2c1-5.8,6.8-9.2,11.9-12c3.5-1.8,9.6-2.1,9.4,1.8c-6,0.6-12.1,0.6-18.1-0.1c0.2-1.9,0.5-3.8,0.7-5.6
	c-1.8-0.5-3.1,2.1-2.2,3.7c0.9,1.6,2.9,2.2,4.7,2.4c3.8,0.5,7.7,0.2,11.4-0.9c-4.4-0.2-8.7-0.3-13.1-0.5c-2-0.1-4.6-0.5-5.1-2.5
	c-0.6-2.5,2.6-4.1,5.2-4.2c5.6-0.4,11.3,1.2,15.9,4.3c-2.6-0.2-5.2-0.4-7.8-0.6c2.3-1,5.4,0.2,6.4,2.6c-2.8,0.7-5.7,0.9-8.5,0.6
	c6.7,0,13.5,1.2,19.8,3.6c-1.9,0.7-3.7-1.3-4.2-3.2c-0.5-1.9-0.5-4.1-1.6-5.7c-4.3-6.4-17.2,2.9-21.1-3.7c-1.9-3.2,1.2-7.6,4.8-8.2
	c3.7-0.7,7.3,1.2,10.3,3.4c1.7,1.2,3.4,3.3,2.4,5.1c-7.3,0.8-14.7,0.7-21.9-0.4c-1.8-0.3-3.8-0.7-5-2.2c-1.2-1.4-0.8-4.1,1-4.5
	c5.6,2.7,11.1,5.4,16.7,8.1c0.4-4.3-3.3-8.5-7.6-8.6c6.2,1.8,11.7,5.6,15.7,10.7c-6.8-1.7-12.7-6.9-15.2-13.4
	c2.7-0.5,5.6-1.2,7.3-3.3c1.8-2.1,1.3-6.1-1.3-6.7c-1.1-0.3-2.3,0.1-3.3,0.6c-5.4,2.5-9.1,8.1-9.3,14c0.4-8.5,7.6-16.2,16.1-17.1
	c-4.8,1.6-8.1,6.7-7.6,11.7c-2.9-4.2,1.8-11,6.7-9.7c-0.7,5.7,2.3,11.6,7.4,14.3c-1.2-3.7-3.2-7.2-5.9-10.1c1.3-0.4,2.7-0.7,4-1.1
	c-1.4,0.9-2.8,1.7-4.2,2.6c-1.6,6.7,7,13.3,13.1,10c-4.2-2.3-7.4-6.3-8.8-10.9c2,0.9,4,1.9,6,2.8c-4.7-1.5-8.3-5.9-8.8-10.7
	c5.3,2.4,10.3,5.3,15.1,8.6c-2.5-1.2-4.7-3.1-6.1-5.5c5.4,1.2,10.5,3.4,15.1,6.5c1.7-3,5.6-4.5,8.8-3.4
	c-14.2-4.4-28.5-8.8-42.7-13.2c-1.7-0.5-3.5-3-1.8-3.5c2.4,3.6,4.7,7.2,7.1,10.8c-3.8,0.3-7.6,0.7-11.4,1c4.2,0.8,8.3-4.2,6.6-8.2
	c-7.7-12.2-0.5-31,13.4-34.9c-6.2-4.4-15.2,2.6-15.5,10.2s4.6,14.2,9.3,20.1c-4.5-9.2-4.4-20.5,0.3-29.6c-6.2,4.5-9.7,12.4-8.9,20
	c0.8,7.6,5.7,14.6,12.7,17.9c-2.8-12.4-5.5-25.9,0-37.3c-1.5,6.9-3.1,14.1-1.7,21.1c1.3,7,6.2,13.8,13.2,15c0.9-6.1-2.4-12-4.9-17.6
	c-2.5-5.7-4.1-12.8-0.3-17.6c-5.2,11.5-0.1,26.5,10.9,32.5c-4.9-10.2-7.8-21.4-8.4-32.6c-1.4,16.5,7.6,33.4,22.1,41.4
	c-2.3-6.4-4.5-12.9-6.8-19.3c-2.8,9,3,19.7,12.1,22.3c3.7,1,7.9,0.7,10.9-1.5s4.5-6.8,2.6-10.1c-6.4,5.2-14,8.9-22.1,10.5
	c4.1-1.7,8.8,0,13.3,0.4c4.5,0.5,10.2-1.5,10.4-6c-8.6-0.6-17.1-1.2-25.7-1.7c7.4-0.4,14.5-3.7,19.7-9c-3.6-0.2-7.1-0.4-10.7-0.6
	c2.2,0,4.5-0.6,6.5-1.6c-3.3,0.1-6.6,1.2-9.3,3.2c1.1,1.6,3.7-1.1,2.6-2.8c-1.1-1.6-3.4-1.7-5.4-1.8c-16.6-0.9-30.8-17.2-29.4-33.8
	c5.1,11.5,14.5,21.2,25.9,26.5c-9.3-2.9-17.1-10.4-20.4-19.6c6.1,7.6,12.3,15.2,18.4,22.9c-5.9-5.8-12-11.9-15.1-19.7
	s-2.4-17.6,4-23.1c-3,3.6-9.5,0.8-10.8-3.7c-1.3-4.5,0.9-9.2,3.4-13.2c2.5-3.9,5.4-7.7,9.4-10.1c-6.9-0.3-12.1,6.9-12.3,13.8
	s3.2,13.3,6.5,19.3c0.8-11.4,6.8-22.3,15.9-29.2c-12.6,5.2-21.1,19.1-20,32.7c13.1-6.4,5.3-30.8,18-37.9c-8,9.9-10.3,24-6,35.9
	c6.3-4.4,11-10.9,13.1-18.3c2.2-7.7,2.8-17.7,10.3-20.6c-9.3,5.6-15.4,16.3-15.4,27.1c7.7-7.7,13.5-17.4,16.5-27.9
	c-3.6-1.5-6.3,3.6-6.5,7.5c-1.1,21.2,13.7,39.4,27.7,55.3c-14.9-4.2-27.2-16.7-31.1-31.8c-1.3,10.7,0.5,21.8,5.3,31.5
	c-11.5-7.2-19.7-19.4-22.2-32.7c-1.2,16.3,4,33.1,14.3,45.8c-8.8-8.8-15.6-19.6-19.9-31.3c8.8,11.4,17.7,22.8,26.5,34.2
	c0.8-10.2-1.4-20.7-6.4-29.6c4.6,10.8,13.1,19.8,23.5,25.2c-1.9-15.5-14.1-27.5-25.6-38.1c8,10.9,16,21.9,24,32.8
	c-2.5-11.5-11.9-23.1-6.7-33.7c7.7,8,15.5,16.1,23.2,24.1c-1.4-5.4-3.6-10.6-6.4-15.4c1.2,1.8,2.4,3.6,3.7,5.4
	c-8.4-5.8-9.4-19.7-1.9-26.7c-5.7,9.2-2.6,22.7,6.5,28.6c-0.5-5.7-3.6-10.9-4.2-16.6c-0.6-5.7,2.9-12.7,8.6-12.3
	c-1.8,4.2-3.6,8.5-3.7,13c0,4.5,2.2,9.4,6.4,11.1c-3.6-11.5-4.1-23.9-1.6-35.6c-11.9,4.1-19.5,17.8-16.7,30
	c1.1-8.4,3.9-16.5,8.2-23.7c-7.1,1.5-8.9,11.7-5,17.7s11.3,8.8,18.1,11c0.8-8.5,0.7-17.1-0.5-25.6c1.6-0.8,3.1-1.7,4.7-2.5
	c-5,7.6-6.1,17.6-3,26.1c0.1-7.9,0.2-15.8,0.3-23.7c0-2.7,0.1-5.5,1.5-7.8c1.4-2.3,4.8-3.6,6.9-1.9c-4.7,10.6-6.1,22.7-3.9,34
	c1.5-11.8,3.2-24.2,10.4-33.7c-5.8,12.3-6.5,26.9-2,39.7c3.1-5.9,3.6-13.1,1.5-19.5c-1.2-3.6-3.3-7-3.7-10.8
	c-0.4-3.8,1.6-8.3,5.4-8.8c-1.1,11-2.1,22-3.2,33c3.7-10,7.4-20,11.1-30c-6.6,9.2-9.9,20.8-9.1,32.1c5.2-9.3,11.4-17.9,18.5-25.8
	c-8.1,2-16.1,6.4-20,13.7c-3.9,7.4-2,18,5.4,21.8c-0.6-2.9-1.2-5.9-1.8-8.8c-5.4,1.5-8.6,8.2-6.4,13.3c-3.4-7.4-8.7-13.9-15.3-18.7
	c-2.5,9-1.8,18.9,2,27.5c0.7-7.6-3.1-15.5-9.4-19.7c-1.8,5.2-2.4,10.9-1.6,16.3c-0.5-3.6-3-6.9-6.3-8.3c-1.3,3.9-1.6,8.2-0.7,12.2
	c-2.8-3.5-6-6.6-9.5-9.2c-1,3.5-1,7.3,0.2,10.8c-2.2-1.8-4.4-3.5-6.7-5.3c-0.1,4.3-0.1,8.7-0.2,13c-0.3-1.3-0.7-2.7-1-4
	c9.4-2.7,17.5-9.9,21.4-18.9c4,2.2,8.2,4.5,12.7,4.1c4.5-0.4,9-4.7,7.7-9.1c-0.5,3.2,4.2,5.1,6.9,3.3c2.7-1.8,3.4-5.4,3.3-8.6
	s-0.6-6.6,0.5-9.6c-1,3.7,0.6,8.1,3.8,10.2c2.1-6.1,2.1-12.9,5-18.7c3.2-6.4,9.9-10.9,17-11.4c-7.1,0.1-13,6.4-14.9,13.3
	c-1.9,6.9-0.7,14.2,0.6,21.2c-1-14.1,7.1-28.5,19.8-34.9c-13.5,7.5-21,24.4-17.6,39.4c4.4-8.1,5.7-17.5,8.1-26.4
	c2.5-8.9,6.8-18.1,15-22.4c-11.9,11.7-19.6,27.7-21.4,44.3c13.3-7.9,22.6-22.3,24.3-37.7c-9.1,9.3-15,21.5-16.7,34.3
	c-0.2,1.3-0.3,2.7,0.3,3.9c1.2,2.2,4.7,2.3,6.7,0.7c2-1.6,2.9-4.1,3.8-6.5c3.4-9.8,6.8-19.6,10.1-29.4c-9.5,7.1-16.4,17.6-19.3,29.1
	c11.6,1.4,23.4-8.4,24.1-20.1c-8.3,6.8-13.4,17.4-13.4,28.2c6.8-8.1,14.7-15.4,23.4-21.4c-4.9,0.9-9.8,2.7-13,6.4s-4.3,9.6-1.4,13.6
	c9.4-7.9,7.3-25.9,18.7-30.4c-10.5,8.5-16.4,22.4-15.3,35.8c5.4-8.4,9.4-17.6,12.1-27.1c-7.9,8.7-12.2,20.6-11.7,32.3
	c7-6.4,11.6-15.3,12.7-24.8c-4.3,8.4-6.2,18-5.5,27.5c3-10.5,5.6-21.1,7.7-31.8c-9.4,10.2-15.3,23.6-16.3,37.5
	c10.1-6,16.4-16.5,22.3-26.6c-3.3,10.4-6.6,20.8-9.9,31.3c-4-9-1.9-20.4,5.1-27.3c4.4-4.3,10.1-6.8,15.6-9.5
	c16.6-8.2,31.8-19.3,44.7-32.7c3.1-3.2,6.2-7.8,4.1-11.7c-11.7,8.7-18.6,23-30.7,31.2c-13.5,9.1-31,9.1-45.8,15.9
	c12.4,0.7,24.2-5,35.2-10.8c20.5-11,40.2-23.2,59.2-36.7c-16,7.1-29.8,18.8-39.6,33.3c-5,7.5-9.5,16.2-17.8,19.9
	c-6.1,2.7-13.2,2.1-19.6,4.2c-6.3,2.1-12.1,9.5-8.6,15.1c23.1-22.9,49-43.1,77-59.8c-1.6-1.4-3.3-2.7-4.9-4.1
	c-7.5,12.6-4.7,30.2-14.6,41.1c-10,11-28.3,10-39.2,20.1c-7.5,7-10,17.7-12,27.8c-7.7-13.2-2-32.5,11.7-39.3
	c-6.5,10.7-12.2,21.9-17.1,33.4c8-21.2,30.2-32.9,50.6-42.8c-13,12.2-27.6,22.7-43.3,31.2c10.2-15.8,27.8-24.8,43.4-35.4
	s30.9-25.3,31.8-44.1c-6.7,15.5-13.1,31.1-19.1,46.8c9.3-12.2,19-25.5,19.2-40.9c3.3,17.8-4.3,37.2-19,47.9
	c-9.1,6.7-20.3,9.9-30.3,15.2c-10,5.3-19.5,13.9-20.7,25.2c5.6-14.1,15.5-26.4,28-34.8c-11,11.9-22.7,25.1-23.6,41.3
	c6.1-16,19.1-29.3,35-35.8c8.2-3.3,17.1-5,24.6-9.7c14.8-9.4,20.1-28.3,22.3-45.7c0.5-3.5,0-8.3-3.5-8.9c-3.1,13-6.2,26.1-11.9,38.1
	c-5.7,12-14.4,23.1-26.2,29.3c11.5-7.9,19.2-20.3,24-33.3c4.8-13.1,6.8-27,8.7-40.7c-1.1,14.3-3.9,28.4-8.5,42
	c10.9-11.5,15.1-29,10.7-44.3c-1.1,8.8-4.8,17.2-10.5,24c2-0.9,4-1.7,6-2.6c-0.5,21.4-12.2,42.2-30.2,53.8
	c-7.7,4.9-16.3,8.3-23.6,13.7c-7.3,5.4-13.5,13.8-12.7,22.8c8.2-15.2,21.7-27.5,37.7-34.1c-12,9.5-21.5,22.1-27.4,36.3
	c4.4-13.4,15.8-23.3,27.6-31.2s24.5-14.8,33.9-25.3c5.9-6.6,10.4-15.1,9.8-23.9c-0.5-6.8-4-13.4-3-20.2c7.4,12.7,4.8,29.2-2.6,41.8
	c-7.4,12.6-19,22.2-30.2,31.6c-11.3,9.3-22.8,19-30.1,31.7c21.4-23.2,42.8-46.5,64.2-69.7c3.6-3.9,7.2-7.8,9.2-12.6s2.3-10.8-0.8-15
	c-0.2,16.8-6.2,33-13,48.4c-3.9,8.8-8.2,17.5-14.7,24.6c-10.5,11.3-26.8,18.3-31.4,33c8.5-30.2,26.4-57.8,50.7-77.6
	c-8.7,6.4-13.4,16.7-18.7,26.1c-10.2,17.8-24.1,33.5-40.6,45.8c32.6-24.1,57.3-58.9,69.3-97.7c-4.4,23.4-20.1,42.8-36,60.5
	c-12.2,13.6-24.7,26.8-37.3,40c33.7-7,62-34.9,69.5-68.5c-20.2,19.6-29.8,50.4-54.9,63c-3.1,1.5-6.4,2.8-8.9,5.1s-4.3,6-3.1,9.2
	c-1-5.8-1.6-11.7-1.6-17.6c-4.1,4.2-6.4,10-6.4,15.9c0.9-5.7,1.8-11.4,2.7-17c-4.9,0.7-8.4,6.4-6.8,11.1c0.1-5.5,0.1-10.9,0.2-16.4
	c-2.7,3.9-4.5,8.6-4.9,13.4c0.3-4.7,0.7-9.4,1-14.1c-3.8,3.1-6.4,7.7-7.1,12.6c-0.1-4.6-0.2-9.3-0.3-13.9c-3,3-4.7,7.3-4.6,11.5
	c0.7-7.6-0.3-15.3-2.8-22.5c-5.7,4.5-9.1,11.7-9.1,19c2.7-4.9,3.7-10.6,2.9-16.1c-2.3,4.6-3.6,9.7-3.7,14.8c3-8.5,3-17.9,0-26.4
	c-2,3-3.4,6.4-4,9.9c2.2-5.5,1.1-12.2-2.7-16.8c-4.3,5.7-1.4,14.5,4.5,18.4c5.9,3.9,13.7,3.9,20.6,2.2c-3.7,5.5,1.1,13.5,7.5,15.3
	c6.4,1.7,13.1-1,18.8-4.4c-0.2,1.4-0.3,2.8-0.5,4.3c6.7-6.7,4.4-18.9,10.7-26.1c2.3-2.6,5.5-4.3,8.7-5.7c11-4.8,22.9-7.3,34.9-7.5
	c-20.8,15.8-36.8,38.1-45,62.9c-3.4-6.2-6.8-12.3-10.2-18.5c-5.5,6.4-6.1,16.6-1.3,23.5c4.2-4.8,6.5-11.1,6.5-17.5
	c-0.1,5.1-0.2,10.2-0.3,15.2c3.2-3.2,6-6.8,8.5-10.7c-1.6,5.3-3.2,10.7-4.7,16c0.8-4,1.5-7.9,2.3-11.9c0.1,4.3,0.1,8.7,0.2,13
	c2.6-2.1,4.7-4.8,6.3-7.7c-0.1,4.7-0.7,9.4-1.8,14c1.4-2.9,2.8-5.9,4.2-8.8c-4.1,2.2-7,6.4-7.7,11c-0.1,1-0.2,2.1,0.4,3
	c1.2,2,4.5,1.6,6-0.2c1.5-1.8,1.7-4.3,1.8-6.7c-0.7,3.8-1.4,7.5-2.1,11.3c3.4,0.5,6.9-0.2,9.9-1.8c-1.4,2.2-2.8,4.3-4.2,6.5
	c1.6-0.6,3.3-1.2,4.9-1.8c-1.1,4.7-2.8,9.2-5.2,13.4c4.2,0.1,8.2-3.5,8.4-7.8c-3.7,3.5-5.5,9-4.5,14c2.1-4.2,2.3-9.3,0.7-13.8
	c-1.1,7.3-0.7,14.9,1,22.1c0.7-7.3,3-14.5,6.6-20.8c-0.4,8.1-0.8,16.2-1.2,24.3c1.5-10.2,3.1-20.4,4.6-30.6
	c-1.2,11.9-2.3,23.8-3.5,35.7c3.5-7.1,5.6-14.9,6.1-22.8c0.5,6,1,12,1.5,17.9c-1-8.9,2.8-18.2,9.7-23.9c1.2,4.6,1.7,9.3,1.4,14
	c3.5-7.5,6.9-15,10.4-22.5c-0.5,4.5-1,9-1.6,13.5c0.9-3.9,2.6-7.6,5-10.9c-1.3,5.7-3.6,11.3-6.7,16.3c5.3-3.3,10.6-6.6,16-10
	c-2.5,3.7-5,7.5-7.5,11.2c7.8-5.2,13-14.2,13.5-23.6c-5,2.3-8.6,6.7-12.7,10.4s-9.6,6.7-14.9,5.2c12.7-3.8,24.4-11,33.5-20.6
	c-16.9,6.1-33.8,12.1-50.7,18.2c10.5-19.4,41.5-19.2,52.2-38.5c-4.6-1.5-9.2,1.7-12.9,4.8c-13.6,11.1-27.1,22.2-40.7,33.3
	c16.4-8.9,32.7-17.7,49.1-26.6c-1.5-3.7-6.7-4.5-10.3-2.9s-6.2,4.9-8.9,7.8c-9.3,10-22.1,16.5-35.6,18.2
	c7.7-8.3,19.1-11.9,29.5-16.3c10.4-4.4,21.2-11,24.6-21.8c-22.1,7.7-43.3,18.1-62.8,30.9c18.6-9.2,37.1-18.4,55.7-27.5
	c2.3-1.1,5-3.4,3.9-5.7c-21.5,5.8-42.4,13.6-62.5,23.1c22.2-7.4,43.1-18.4,61.8-32.3c2.5-1.8,5-3.9,5.8-6.9c0.8-3-1.3-6.8-4.3-6.5
	c-4.6,11-9.8,22-18.2,30.5S417,308,405.3,305.7c12-3.7,24.2-7.4,35.2-13.5s21-14.8,26.3-26.2c-31.6,6.4-56.6,34.9-88.8,35.9
	c16.9-4.6,33.3-10.7,49.1-18.3c8.9-4.3,19.1-11.9,17-21.6c-14.4,10-28.8,20-43.2,30.1c15.1-1.7,29.1-11.5,35.8-25.1
	c-15.3,8.9-31.2,16.7-47.6,23.3c20.2-8.6,38.3-22,52.4-38.9c-17.9,6.1-34.1,16.9-46.6,31.1c18.2-8.1,35.5-18.3,51.3-30.4
	c6.2-4.7,12.7-10.7,13-18.5c-24.1,18.7-48.3,37.4-72.4,56.1c24.3-22.1,49-43.8,74-65.1c-32.2,6.2-56.4,31.9-78.4,56.3
	c26.5-17,50.3-38.1,70.3-62.5c3.8-4.7,7.7-10.1,7-16.1c-20.7,14.3-39,32.1-53.8,52.5c23.8-13,41.4-36.5,47.3-63
	c-8.1,12.7-16.4,25.6-27.5,35.8c8.3-9.3,14.7-20.3,18.7-32c1.9-5.4,2.6-12.7-2.2-15.7c-2.2,14.1-7.7,27.8-15.7,39.6
	c8.7-3.6,15.8-11.1,18.8-20c1-3,1.7-6.2,3.4-9c1.7-2.7,4.9-4.9,8-4.1c0.6,16.5-2.1,33-8,48.4c7.6-10.9,14.1-22.5,19.2-34.8
	c-0.2,17.8-5.1,35.4-14.2,50.7c6.7-7.5,12.6-15.6,17.5-24.3c-0.6,14.6-7.9,28.8-19.5,37.8c5.8-7.2,11.6-14.4,17.5-21.6
	c-4.5,5.1-9.3,11.5-7.2,18c0.8,2.5,2.6,4.5,3.8,6.9c2.2,4.2,2.4,9.3,0.5,13.7c1.8-9.6,1.1-19.7-2-29c8.1,8.7,10.4,22.3,5.8,33.2
	c0.8-8.6,1.6-17.3,2.4-25.9c4.9,15.3,2.4,32.7-6.6,45.9c-1.2-9-2-18.1-2.4-27.1c-1.5,6.7-3.1,13.5-4.6,20.2
	c3.6-10.7,5.2-22.1,4.8-33.4c-0.1-3.9-0.7-8.2-3.5-10.9s-8.6-2.4-9.7,1.4c13.5-11.9,16.7-32.2,13-49.8c-1.9-9.1-5.5-18.1-11.8-25
	c-7.3-8-17.7-12.4-28.1-15.5c-9.9-2.9-20.9-4.8-30.5-1c-9.5,3.7-16.1,12.1-23.2,19.4c-7.1,7.3-16.4,14.1-26.5,12.8
	c12.4-9.3,26.1-16.9,40.5-22.5c-20.4,13-41.3,26.1-64.8,31.7c28.4-8.9,55.5-21.9,80.2-38.4c5.5-3.7,11.1-7.9,13.9-13.9
	c-8.8,7.8-17.9,15.8-28.8,20.2c-10.6,4.4-22.4,5.1-33.5,8.2c-11.1,3.1-22.3,9.6-26,20.5c9,0.3,16.6-6.5,22.7-13.1
	c-14.3,5.3-30.4,5.4-44.8,0.2c14.2,0.5,28.3,1,42.5,1.5c-16.4,0.7-33.7-0.9-47.2-10.3c15.1,2.4,30.8,1.4,45.5-2.7
	c-12.5,4.9-26.7,1.7-39.4-2.6c-12.7-4.3-25.5-9.9-38.9-9.6c15,14.2,37.6,15.4,58.2,15.8c24.7,0.5,50.2,0.9,73-8.7
	c-35.5,3.4-71.4,6.7-106.6,1.2c-9-1.4-18-3.4-27.1-2.7s-18.4,4.6-23.2,12.3c9.8-10.3,23.9-15.5,37.9-17.9c18-3.1,36.7-2,54.3,3.1
	c13.1,3.8,26.8,9.9,39.9,5.9c11.4-3.5,19.4-14,30.4-18.8c-36,15.8-77.9,18-115.4,5.9c-6.3-2-12.5-4.4-19.1-5.1
	c-6.6-0.6-13.7,0.9-18.2,5.7c-5.8,6.1-6.1,15.7-11.5,22c13.1-15.9,35-22,55.6-21.5c20.6,0.5,40.5,6.5,60.6,11c8,1.8,18.5,2.3,22.3-5
	c-21.6,6.2-44.7,7-66.6,2.2c-15.6-3.4-30.8-9.7-46.8-10.6s-33.9,5.2-40.8,19.7c10-0.6,17.4-9.4,26.7-13.3c6.4-2.7,13.5-3.1,20.4-3.4
	c15.4-0.7,30.8-1.4,46.1,0.1c13.9,1.4,27.6,4.6,41.5,4.4c13.9-0.2,28.7-4.3,37.7-14.9c-22.2,7.3-45.9,9.8-69.2,7.4
	c-15.3-1.6-30.4-5.4-45.7-5.6c-15.4-0.3-31.7,3.5-42.3,14.6c15.6-14.8,38.7-17.9,60.2-19.2c11.4-0.7,22.9-1,34.3-0.5
	c7.8,0.3,15.8,1.1,23.1,4c5.8,2.4,11,6,16.6,8.8s12.1,4.7,18.2,3.1c6.1-1.6,11.3-7.6,10.2-13.7c-16,8.3-32.9,14.8-50.3,19.4
	c-6.3,1.6-12.9,3-19.3,1.6c-6.2-1.4-11.5-5.4-16.9-8.8c-14.2-8.8-30.7-13.8-47.4-14.3c-4.2-0.1-8.6,0.1-12.4,1.8
	c-7.9,3.5-11.9,12.3-18.3,18c12.3-8.1,27-11.7,41.3-15.1c10.3-2.4,20.7-4.8,31.2-4.8c17.1,0,33.5,6.1,50.1,10
	c16.6,3.9,35.1,5.2,49.8-3.4c-3.4-6.7-12.1-8.8-19.5-7.9c-7.4,0.9-14.5,3.9-22,4.4c-11.6,0.8-22.7-4.5-34.1-6.6
	c-17.7-3.2-36.3,1.5-53.9-2.2c-8.5-1.8-16.8-5.6-25.5-5.1c-14.9,0.8-26,13.5-35,25.4c24.5-20.8,60.9-26.5,90.5-14
	c-22.5-7.9-47.3,6.2-70.9,2.5c10.4-10.7,25-17.2,39.9-17.6c10.8-0.4,21.5,2.3,32,4.9c7.6,1.9,15.3,3.8,22.9,5.7
	c-10,3.2-20.9,0.1-30.4-4.2c-9.5-4.4-18.6-10-28.8-12.4c-17.1-4-36.2,2.5-47.3,16c11.5-5,24.2-7.4,36.7-6.8
	c20.5,0.9,40.5,9.5,60.9,7.7c9.4-0.9,18.6-4,28.1-4.5c9.5-0.6,20,2.1,25.2,10.1c1,0.2,1.5-1.4,0.8-2.1c-0.7-0.7-1.8-0.7-2.8-0.7
	c-11,0.5-22,3-33,2.6s-22.8-4.3-28.9-13.5c24.2-0.5,48.6,4.1,70.9,13.6c4.6-2.5,3.6-9.9-0.5-13.1s-9.7-3.2-14.9-3.2
	c-17.1,0.2-34.1,0.4-51.2,0.6c16.6-6.9,37.1-3.3,50.4,8.9c-13-3.9-26-7.8-39.1-11.8c18.3-7.4,38.7,2,56.2,11.1
	c-6.6-0.4-13.2-1.7-19.4-3.9c2-4.3,8.2-4.9,12.5-2.9c4.3,2,7.6,5.7,11.7,8.2c4.1,2.5,9.9,3.4,13.2,0.1c-9.8-3.1-19.5-6.3-29.3-9.4
	c3.8,1,7.7,2,11.5,3c-23.6-9.9-50.3-17.5-74.4-8.7c14.3-3.5,29-4.9,43.7-4c-10.3-2.2-21-3-31.5-2.4c-11.1,0.6-23.5,3.8-28.7,13.6
	c14.4-5,28.7-10,43.1-15c2.2-0.8,5.4-1,6,1.2c-12.2,6.5-25.7,10.6-39.4,11.9c4.5,0.8,9.4-0.3,13.2-3c-11,4.2-21.9-5.4-32.4-10.7
	c-12.9-6.5-28.2-6.6-42.5-4.5c16.6,3.9,33.2,7.8,49.8,11.6c-0.2,1.4-0.5,2.7-0.7,4.1c-8.3-7.4-19.2-11.8-30.3-12.1
	c-3.4-0.1-6.9,0.2-9.8,1.9s-4.9,5.3-3.9,8.5c15.4-0.6,30.9-1.1,46.3-1.7c-20.3-12-47.7-10.7-66.7,3.2c8.1-1.9,15.6-6.2,21.4-12.1
	c-14.6,4.2-28,12.3-38.5,23.2c9.4-4.5,18.5-9.9,27-16c-12.9,4.1-21,19.4-17.2,32.4c7.9-13.5,17.1-26.2,27.6-37.8
	c-11.6,3.8-22.7,9.2-32.9,16.1c-9.4,6.3-18.9,16.2-16.4,27.3c4.4-5.8,8.7-11.6,13.1-17.4c-2.4,5.9-4.8,11.9-7.2,17.8
	c3-6.2,5.9-12.5,8.9-18.7c-2.8,7.9-5.5,15.7-8.3,23.6c9.9-6.4,19.1-13.8,27.4-22.1c-3.7,8.7-7.4,17.4-11,26.1
	c2.2-2.7,4.4-5.5,6.6-8.2c-7.2-1.7-12.7,7.6-11.2,14.8c1.5,7.2,7,12.8,10.7,19.2c-2.8-6.6-4.9-13.5-6.1-20.6c-2,8.5-2.2,17.4-0.6,26
	c1.5-11.1-1.9-22.7-9.1-31.2c0.5,6.9-1.8,13.9-6.2,19.1c-2.7-11.4-5.1-22.9-7.2-34.4c-4.3,4.7-5.6,11.9-3.3,17.8
	c-1.1-1.7-2.3-3.4-3.4-5.2c6.1,2.1,12.1,4.1,18.2,6.2c-3-0.1-6-0.2-9-0.3"/>
<path fill="none" stroke="#000000" stroke-width="2" stroke-miterlimit="10" d="M240.8,459.2c-13.1,17.4-43.1,46.8-51.8,61.4
	c-8.7,14.7-24,36-27.3,47.3c-3.3,11.3-4.7,18.7-10.7,25.3c-6,6.7,25.8,18.7,44.9,18.7s94.5,22,134.5,18.7c40-3.3,104-10.7,162-21.3
	c58-10.7,74.7-32.7,77.3-38.7c2.7-6-11.3-7.3-11.3-7.3S537,546.7,523.7,536c-13.3-10.7-54-45.3-54-45.3s5.3-14.7,2-35.3
	c-3.3-20.7-6-11.5-8-19.4s0-13.9-6-24.6c-6-10.7-15.3-12-20.7-11.3s-2.7,1.3-1.3,7.3c1.3,6,2.7,14-4,25.3c-6.7,11.3-32,45.3-46,62.7
	s-36,40.7-44,51.3c-8,10.7-28,36-37.3,48c-9.3,12-19.5,28-19.5,28L215,611.3c0,0,13.3-19.3,18-28c4.7-8.7,15-30.7,14.5-40
	c-0.5-9.3,0.2-16.7,4.2-21.3s13.5-12.9,14.7-15.6"/>
<path fill="none" stroke="#000000" stroke-miterlimit="10" d="M296.5,531.2c-6.7-6.7-15.9-10.8-25.4-11.3c-1.2,3.8-5,6.3-6,10.1
	c-0.8,3.2,0.8,6.6,2.8,9.2c4.8,6.1,12.6,9.6,20.3,9.3c0.6,0,1.2-0.1,1.7-0.4c0.9-0.5,1.3-1.4,1.7-2.3c1.5-3.6,3-7.2,4.5-10.8
	c-1.2,8-2.3,16-3.3,24c1-6.2,1.9-12.4,2.9-18.6c-4.8-2.2-9.6-4.4-14.4-6.5c4,2.8,7.9,5.5,11.9,8.3c0.9,0.6,1.9,1.3,2.3,2.4
	c0.4,1,0.3,2.1,0.1,3.1c-0.7,3.7-1.9,7.2-3.6,10.5c-10.1,1.4-20,4.5-29.1,9c0.3-4.8,1.5-9.6,3.7-13.9c-0.1,5.3-2.1,10.5-5.6,14.6
	c2.9-3.8,8.1-4.6,12.8-5.2c7.7-1,15.4-1.9,23.1-2.9c0.8-0.1,1.5-0.2,2.3,0.1c1.3,0.4,2,1.8,2.7,2.9c2.2,3.2,6,5.2,9.9,5.2
	c-1.1-2.7-2.9-5.1-5.3-6.8c3.4,2.6,7.1,4.8,11.1,6.4c-2.4-6.6-11-8.1-18-7.4c-1.7,0.2-3.5,0.5-5.2,0c-1.7-0.5-3.2-2-3.1-3.7
	c2.9,1.5,5.9-2.1,6.3-5.3c0.4-3.2-0.1-6.8,2-9.3c0,3.7,0.4,7.5,1.4,11.1c-0.1-1.4-0.3-2.9-0.4-4.3c-1.8,1.9-4.4,3.1-7,3.2
	c-1.9-4.4-1.2-9.9,1.9-13.7c3-3.8,8.2-5.7,12.9-4.8c-0.6,6.6-1.2,13.2-1.9,19.7c0.9-5,1.7-10,2.6-15c0.4-2.4,1.3-5.4,3.8-5.8
	c1.7-0.3,3.2,0.9,4.5,1.9c4,3.3,8,6.6,12,9.9c-3.4-0.9-6.6-2.5-9.5-4.5c-0.2,3.8-0.4,7.6-0.5,11.4c2.4,0.4,4.9,0.2,7.3-0.5
	c-3.4,0.3-6.8,0.6-10.2,0.8c0.1,2.5,0.2,5,0.3,7.5c2.2-4.1,3.6-8.8,3.9-13.4c0.2-2.3,0-4.8-1.1-6.8c-1.6-3.1-5.2-4.6-8.6-5.3
	c-6.6-1.3-13.8,0.1-20-2.7c-4.4-2-8.1-6.1-13-6c8.4,1.7,17.1,2.3,25.7,2c7.1-0.3,15-1.8,18.9-7.7c-11.3,3.3-23.2,4.5-34.9,3.3
	c-0.1,1.8,1.1,3.4,2.5,4.6c4.8,4.3,12,5.6,18.1,3.3c-1.7,1.2-3.8,1.8-5.8,1.6"/>
<path fill="none" stroke="#000000" stroke-miterlimit="10" d="M284.8,622.7c0,0,9.5,7.3,38.2,4c28.7-3.3,66.7-8,66.7-8
	s28.1-41.3,36.4-58.7c8.3-17.3,39.6-56,40.3-69.3c0.7-13.3,6-27.1,0-40.2"/>
</svg>
