<?xml version="1.0" encoding="utf-8"?>
<!-- Generator: Adobe Illustrator 19.1.1, SVG Export Plug-In . SVG Version: 6.00 Build 0)  -->
<svg version="1.2" baseProfile="tiny" id="Слой_1"
	 xmlns="http://www.w3.org/2000/svg" xmlns:xlink="http://www.w3.org/1999/xlink" x="0px" y="0px" viewBox="0 0 595.3 841.9"
	 xml:space="preserve">
<path fill="none" stroke="#000000" stroke-miterlimit="10" d="M242,333c-2.8-7.1-4.5-14.7-5-22.3c-0.1-1.9-0.1-4,1.1-5.5
	c0.7-0.9,1.8-1.7,1.8-2.8c0-0.8-0.7-1.4-1.3-2c-3-3.1-4.1-7.5-4.8-11.7c-1.9-13.2,0.1-27,5.8-39.1c-1.8-0.5-3.4,1.3-4.3,2.9
	c-3.9,7.1-4.1,15.7-2.3,23.6s5.5,15.2,9.1,22.4c-6.8-10.1-6.8-24.4,0.1-34.5c1.9-2.8,4.3-5.4,5.1-8.7c-2.9-1.8-6.9-0.1-8.8,2.7
	c-1.9,2.8-2.2,6.4-2.5,9.8c-1,13-1.3,28,8.3,36.8c-2.1-9.4-3.7-18.8-4.7-28.4c-0.4-3.6-0.7-7.2,0.1-10.7c0.8-3.5,3-6.8,6.3-8.2
	c-7.7,16.8-5.2,37.8,6.2,52.4c-6.4-14.6-11.5-31.1-6.3-46.1c3.5-10,11.2-17.9,18.6-25.5c4.8-4.9,9.7-9.8,15.4-13.6
	c-16.8,5.5-30.8,19.2-36.4,36c-1.6-5.6,0.5-11.7,4.2-16.2c3.6-4.5,8.7-7.6,13.7-10.4c5.7-3.1,11.5-6,17.4-8.5
	c-16.7,2.2-31.5,15.2-35.8,31.5c-3.1-7.9,3.1-16.6,10.4-20.9s15.9-6.2,22.8-11.1c-8.9,1.4-18,2.8-25.9,7
	c-7.9,4.2-14.6,11.9-15.1,20.9c5.8-11.5,17.9-18.2,29.1-24.5c3.2-1.8,6.8-4.1,7.3-7.7c-18.7,7.9-32.8,25.7-36.3,45.7
	c5.4-18.1,19-32.4,32.1-46c-6.3-0.3-12,3.7-16.6,8c-10.1,9.5-17.9,23.4-14.7,36.8c7.9-16,16.1-32.6,29.8-44.1
	c-7,1.3-12.7,6.5-16.8,12.3c-9.3,13-12.2,30.3-7.7,45.7c1.3,4.3,3.1,8.4,4.9,12.5c5.1,11.6,10.2,23.2,15.3,34.8
	c0.6-3.5,1.3-6.9,1.9-10.4c0.7-3.9,1.5-8,0.5-11.8c-0.6-2.5-1.9-4.7-3.1-7c-5.2-10.6-6.5-22.7-7.8-34.4c-3.4,9.3-0.6,19.5,2.7,28.9
	c3.2,9.3,7,19,5.5,28.7c6.8-18.3-8.5-38.5-4.3-57.5c1.2-5.5,4-10.5,6.9-15.3c-1.5-1.1-3.7-0.5-5,0.8s-1.9,3.1-2.5,4.8
	c-2.9,8.5-5.7,17-6.2,26c-0.8,14.3,4.7,28,10,41.3c3.9-9.2-2.6-19.1-6.1-28.4c-4.2-11.3-3.8-24.3,1.1-35.4
	c4.3-9.7,11.7-17.6,18.9-25.3c-6.3,1.6-10.7,7.2-14,12.7c-8.3,14.2-12.2,31-10.9,47.4c-0.4-8.1-0.9-16.1-1.3-24.2
	c-0.2-3.8,0.4-8.7,4.1-9.6c-6.9,8.8-9.6,20.7-7.1,31.5c0.6-13.4,1.6-27.9,10.3-38.1c-5.9,9.9-7.4,22-5.7,33.4
	c1.7,11.4,6.4,22.1,12,32.2c-0.7-8.2-2.8-16.3-6.2-23.7c-0.3-0.7-0.7-1.4-1.3-1.9c-2-1.4-4.4,1.1-5.2,3.4c-1.9,5.6-1,12,2.2,16.9
	c-0.6-4.9-4.9-8.6-6.5-13.3c-1.3-3.7-0.8-7.7-0.1-11.6c2.1-11.3,6.3-22.3,12.3-32.1c3.1-5.1,6.8-10.1,7.8-16
	c-11,4.1-19.8,13.9-22.7,25.4c6.3-9.8,13.2-19.2,20.9-28.1c-6.8,5.9-11,14.3-13.4,23c-2.4,8.7-3.1,17.7-3.7,26.7
	c-3.6-8.7-6-17.9-6.9-27.3c2.7,11.3-7.2,22.8-4.3,34c6.1-1.7,8.7-8.7,10.5-14.7c3.2-10.5,6.8-21,12.7-30.3
	c5.9-9.3,14.2-17.3,24.6-21c-6.4-2-13.7-1.2-19.6,2c3.8-2.8,8.2-4.7,12.8-5.6c-4.4-0.6-8.9,0-13,1.8c2.3-2.7,5.7-4.3,9.2-4.3
	c-3.7,0.2-7.3,1-10.7,2.3c2.5-1,5.1-2,7.6-3c-0.5,0.9-0.9-1.1,0-1.6c19.2-11.7,44.3-13.2,64.8-3.8c3.3,1.5,6.8,3.8,7.2,7.3
	c-19.3-11.1-43.9-12.7-64.5-4.1c19.4-7.5,41.5-8.1,61.3-1.5c-14.4-5.6-30.2-11.1-44.9-6.5c-7.4,2.3-14,7-21.5,8.9
	c6.4-7.2,16.9-8.7,26.5-9.5c4.6-0.4,9.1-0.8,13.7-1.1c3.7-0.3,7.4-0.5,11,0.3c3.5,0.8,6.7,2.6,9.8,4.4c7.8,4.4,15.7,9.1,21.2,16.1
	c-13.8-6.3-28.5-10.7-43.5-13.1c9.8-1.8,20.2-0.1,28.8,4.9c-1.8-4-6.4-5.6-10.6-6.6c-11.3-2.7-23.1-3.3-34.6-1.7
	c9.7-1.6,19.6-1.5,29.2,0.3c-11-5.8-24.8-6.2-36.1-1c10.6-7.7,25.2-5.6,38.1-3.2c2.4,0.4,4.8,0.9,6.9,2c2.1,1.1,3.8,2.8,5.5,4.3
	c5.8,5.2,12.4,9.5,18.9,13.8c-8.1-11.4-22.1-16.9-35.7-20.2c-9.4-2.3-19.3-3.8-28.9-1.8c-9.5,2-18.6,8.1-22,17.2
	c5.9-3.6,12.6-5.9,19.5-6.7c-4.6,1.6-8.8,4.3-12.3,7.7c6.5-3.4,13.5-5.6,20.7-6.6c-5.3,0.4-10.4,2.9-14,6.8
	c10.8-8.6,26-8.2,39.8-7.4c-11.5-0.6-23.1,0-34.4,1.7c8.4-3.1,17.7-3.8,26.4-1.9c-8.5-0.2-17-0.5-25.5-0.7
	c6.8-1.7,13.8-2.5,20.8-2.4c-6.6-1.8-13.3-2.8-20.1-2.9c10-2.7,20.5-3.7,30.8-3.1c-13.4,2.5-27.1,3.5-40.7,3
	c-2.4-0.1-4.9-0.2-7.2,0.5c-4.4,1.4-7.1,5.7-10.7,8.5c15.8-8.9,34.3-13.1,52.4-11.9c5.5,0.4,11.1,1.2,16.3,3.1
	c11.3,4.1,20.5,12.7,28.2,22c10.3,12.2,19.1,26.6,19.6,42.5c-2.3-18.1-12.9-35-28.2-45c12.7,9.9,20.9,25.3,22,41.3
	c4.9-9.6-0.4-21.6-8.4-28.9s-18.1-11.7-26.6-18.3c7.4,2,14.4,5.4,20.5,10c2.5,1.9,4.9,4,7,6.3c10.3,11.1,14.7,27.2,11.6,42
	c-0.8-4.9-1.3-9.8-1.3-14.7c-0.4,6.8-0.7,13.7-1.1,20.5c-0.1,1.2,0.5,2.8,1.6,2.5c0.6-3.7,1.3-7.4,1.9-11.1
	c1.6,5.6,1.4,11.7-0.6,17.2c-0.6-0.9-0.6-2.2,0-3.1"/>
<path fill="none" stroke="#000000" stroke-miterlimit="10" d="M256.3,358.8c-2.5,2.4-2.7,6.6-1.4,9.8c1.3,3.2,3.9,5.8,6.3,8.3
	c-1.5-2.8-4.5-4.8-7.6-5c-1.3,4-0.2,8.7,2.8,11.7c-1.9-1.1-4.1-1.8-6.3-2c0.8,14,4.8,27.8,11.7,40.1c2.6,4.6,5.6,9.1,8.5,13.5
	c8.7,12.8,17.3,25.7,26,38.5c1.7,2.5,3.4,5,5.8,6.7c2.4,1.7,5.7,2.5,8.4,1.2c2-1,3.4-3.1,5.3-4.3c6.2-4.1,14.4,2.1,21.8,1
	c3.3-0.5,6.2-2.3,9.4-3.2c5.5-1.4,11.3,0.2,16.9-0.8c3.7-0.7,9.4-2.8,12.2-5.4c3.8-3.5,1-6.3-1.2-11.2c-4.2-9.1-9.1-17.9-14.6-26.3
	c-2.5-3.8-5.1-7.5-6.3-11.8c-1.3-4.3-0.9-9.4,2-12.7c-13.7,10.2-34.4,9.7-47.6-1.2c11.3,10,27.9,13.7,42.5,9.4
	c-18.2,6.8-38.8,3.1-56.6-4.5c16.9,9.5,36.7,13.9,56,12.3c-1,6.4,0,13.2,3,19c1.2,2.4,2.8,4.7,4.3,7c3.6,5.7,6.5,11.9,8.7,18.3
	c-2.4-9.7-7.6-18.8-14.9-25.7c-2.2,7.2-11.1,9.4-18.5,10.5c3.3-0.7,6.7-1.5,10-2.2c-3.4,3-8.2,4.3-12.6,3.5c2.4,0,4.8,0.1,7.2,0.1
	c-2,0.3-4.1,0-5.9-0.9c4.3-5.2,7-11.8,7.5-18.5c3.5,0.4,7.1-1,9.4-3.6c-2.4,0.5-4.9,1-7.3,1.5c0.6-1,2.3,0.4,1.8,1.5
	c-0.5,1.1-1.8,1.4-3,1.6c-0.6-0.2,0.1-1.1,0.6-0.8s0.4,1.1,0.3,1.6c-1,4.7-2,9.5-4.4,13.6c-2.4,4.2-6.4,7.7-11.2,8.2
	c-4.1,0.4-8.1-1.4-11.9-3.2c1.7-4.7,5.5-8.5,10.1-10.3c-0.8,3.4-3.9,6.2-7.5,6.5c1.4-1.1,2.8-2.1,4.2-3.2c-2.9,3.4-5.8,6.9-9.8,8.9
	c-4,2-9.2,2.2-12.5-0.8c1.4,0.1,2.7,0.1,4.1,0.2c0.5,1.9,0.6,3.9,0.3,5.8c0.1-1.4,0.2-2.9-0.6-4.2c-0.8-1.2-2.7-1.8-3.6-0.7
	c6.5,2,13.5,2.1,20.1,0.3c-3.6,1.3-7.6,1.7-11.4,1.2c7.4,0.3,14.8,0.7,22.1,1c1.8,0.1,3.8,0.2,5.2,1.3c2.9,2.2,2.4,6.9,4.8,9.6
	c-1.7-4.3-4.5-8.2-8.2-11c3,4.7,5.9,9.4,8.9,14.1c1,1.6,1.7,4.1,0,4.8c-0.6,0.2-1.2,0.1-1.8,0c-5.8-1.1-11.6-2.2-17.4-3.4
	c-1.5-0.3-3.1-0.5-4.4,0.2c-1.7,0.9-2.2,3.1-3.3,4.6c-1.8,2.3-5.1,2.9-8,2.5c-2.9-0.4-5.7-1.4-8.6-1.8c-10.3-1.1-20.5,7.3-30.3,4.2
	c4.8-7.3,4.4-16.8,3.8-25.5c-0.6-8.1-1.1-16.1-1.7-24.2c4.9,14,4.9,29.6,0.1,43.6c-0.7,2-1.5,4-3.2,5.3c-3.1,2.4-7.6,1.4-11.1-0.5
	c-3.4-1.9-6.7-4.5-10.6-4.9c-4.2-0.4-9.2,1.6-12.4-1.2c-1.8-1.6-2.2-4.2-2.5-6.6c-1.6-12.4-3.2-24.9-4.7-37.4
	c-0.3-2.5-0.6-5.1-0.1-7.6c1.3-6.4,7.5-10.5,11-16.1c3.3-5.3,4.1-11.8,5.9-17.9c1.9-6,5.7-12.2,11.9-13.5c0.1,1.1,0.3,2.3,0.4,3.4"
	/>
<path fill="none" stroke="#000000" stroke-miterlimit="10" d="M365.8,386.6c0.4,2.6,1.1,5.2,2.1,7.6c-1.9,1.6-4.1,2.8-6.5,3.6
	c-0.4,0.1-0.8,0.3-1,0.6c-0.2,0.3-0.3,0.7-0.3,1.1c-0.1,2.6,2,5.2,0.9,7.6c-0.4,0.9-1.3,1.6-1.8,2.5c-1.3,2.3,0,5.3,1.9,7.1
	c1.9,1.8,4.5,2.9,6.4,4.7c2.3,2.1,3.6,5,5.1,7.7c5.1,9.2,13,16.7,17.5,26.2c1,2.2,1.9,4.6,3.8,6.2c2.3,2,5.9,2.5,8,4.8
	c-4.3,0.1-8.5,0.5-12.7,1.3c-3.4,0.7-7,1.7-9.3,4.2c-0.4,0.5-0.8,1-1.3,1.3c-0.7,0.4-1.6,0.4-2.5,0.5c-2.4,0.1-4.8,0.5-7.2,1.1
	c-3.7,1-7.6,2.7-11.1,1.1"/>
<path fill="none" stroke="#000000" stroke-linecap="round" stroke-linejoin="round" stroke-miterlimit="10" d="M357.2,360.7
	c1.7-9.5-1.9-19.1-5.5-28.1c-0.5-1.3-1.1-2.6-1.4-4c-0.3-1.3-0.4-2.7-0.6-4.1c-0.9-5.5-3.9-10.5-4.4-16.1c-0.1-1.1-0.1-2.2-0.3-3.3
	c-0.2-1.1-0.7-2.1-0.8-3.2c-0.2-1.1,0-2.3,0.8-3c-0.6,0.9-0.8,2.1-0.4,3.2c-0.5-1.1-0.2-2.5,0.6-3.5s1.8-1.8,2.8-2.5
	c1.4-1,2.9-2,4.3-3c2.7-1.9,5.5-3.9,8.8-4.3c3.6-0.4,7.1,1.2,10.3,3c-2.7-0.8-5.5-1.3-8.3-1.5c-1.9-0.1-3.9-0.1-5.5,1
	c-0.9,0.6-1.5,1.3-2.3,2c-1.5,1.4-3.5,2.2-5.1,3.5c-1.6,1.3-2.8,3.4-2.2,5.4c0-1.5,0-3.1,0-4.6c-1.5,1.3-2.3,3.3-2.2,5.3
	c0.1-1-0.1-1.9-0.5-2.8c-0.2,1,0,2.1,0.4,3.1c0.1-1.6,0.2-3.2,0.3-4.8c0.1,0.8,0.3,1.7,0.6,2.4c0.3-0.9,0.6-1.8,0.8-2.7
	c0.2,0.6,0.4,1.1,0.6,1.7c0.2-1.2,0.5-2.3,1-3.4c-0.1,0.5-0.1,1,0.2,1.5c1.2-1.5,2.3-2.9,3.5-4.4c0.3,0.2,0.6,0.4,0.8,0.7
	c0.3-0.6,0.7-1.2,1-1.8c0,0.5,0,0.9,0,1.4c0.5-0.7,1.1-1.4,1.6-2c-0.3,0.7-0.6,1.4-0.9,2.1c0.1-1,0.6-2,1.4-2.7
	c0.3,0.9,0.5,1.8,0.5,2.8c0.4-1.1,1.4-2.1,2.6-2.3c0,0.5,0,0.9,0,1.4c0.4-0.8,1-1.5,1.6-2.1c0.1,0.6,0.1,1.2,0,1.9
	c0.2-0.7,0.6-1.4,1.1-2c0.2-0.2,0.3-0.3,0.5-0.4c0.5-0.1,1,0.3,1.2,0.8s0,1-0.1,1.5c0.7-0.4,1.2-0.9,1.5-1.6c0,0.6,0.1,1.3,0.1,1.9
	c0.6-0.8,1.1-1.7,1.6-2.6c-1.8,1.1-4.2-1.5-6.2-0.7c-0.7,0.3-1.2,0.9-1.6,1.6c-0.5,0.6-1,1.3-1.7,1.4c-0.7,0.2-1.7-0.4-1.6-1.2
	c4.2,0,8.3,0.1,12.5,0.1c-0.7,1.3-2.5,1.5-4,1.5c-5.1,0.1-10.2,0-15.3-0.4c-0.4,0-0.8,0-1.1,0.2c-0.2,0.2-0.3,0.4-0.4,0.7
	c-0.9,2.4-1.8,4.7-2.7,7.1c0.7-2.9,3.6-4.7,6.3-6.2c-3.1,1.5-6.1,3-9.2,4.5c1.2-2.6,3.6-4.6,6.3-5.3c-1.1,1.8-2.4,3.6-3.7,5.3
	c2.7-1.9,5.4-3.8,8.1-5.7c-1.9,2.2-4.2,4.1-6.7,5.5c1.9-2.6,4.5-4.7,7.4-6.1c-2.2,2.7-3.9,5.7-5.2,8.9c1.4-0.9,2.9-1.9,4.3-2.8
	c-1,0.6-1.8,1.5-2.4,2.6c3.1-1.3,6.3-2.6,9.7-2.7s7,1.4,8.5,4.5c0.1,0.3,0.3,0.6,0.2,0.9c-0.1,0.3-0.3,0.5-0.5,0.8
	c-1.7,1.6-4.1,1.8-6.4,1.8c-4.6-0.1-9.4-1.2-12.9-4.2c1.4-0.7,2.9-1.2,4.5-1.3c-0.1,1.6,1.3,3.1,2.9,3.6c1.3,0.4,2.8,0.3,3.9-0.4
	s1.9-2.2,1.6-3.5c-0.1-0.3-0.2-0.6-0.4-0.8c-0.3-0.3-0.7-0.3-1.2-0.4c-1-0.1-2.1-0.2-3.1-0.3c-1.1-0.1-2.4-0.2-3.3,0.6
	c-1,0.9-0.8,2.9,0.5,3.5c1.2,0.6,2.9-0.3,3.1-1.7c0.1-1.4-1.4-2.6-2.7-2.2c-1,0.3-1.7,1.5-1.3,2.5c0.4,1,1.9,1.3,2.6,0.4
	c0.4-0.6,0.4-1.4,0.3-2.1c-0.4,0.9-0.5,2.1,0,3c0.4-1.1,0.5-2.2,0.4-3.4c0-0.5-0.2-1.1-0.7-1.3c-0.7-0.3-1.3,0.6-1.6,1.4
	c-0.2,0.8-0.4,1.6-0.3,2.4c0.2,0.8,0.8,1.5,1.6,1.6c0.8,0.1,1.6-0.7,1.4-1.5c-0.7,0-1.1,1.1-0.6,1.7s1.4,0.5,2,0
	c0.5-0.5,0.7-1.3,0.5-2c-0.1-0.4-0.3-0.8-0.6-1.1c-0.8-0.7-2.3-0.3-2.7,0.7c-0.4,1,0.2,2.2,1.2,2.7c1,0.4,2.2,0.1,3-0.6
	c0.8-0.7,1.3-1.8,1.5-2.8c-1.5,0-3.3,0.5-3.9,1.9c-0.1,0.2-0.1,0.4,0,0.6c0.1,0.2,0.4,0.3,0.6,0.4c0.6,0.2,1.3,0.3,1.9,0.2
	c0.6-0.1,1.3-0.6,1.3-1.2c0.1-1.2-1.5-1.7-2.7-1.8c-0.8,0-1.7-0.1-2.5,0.3s-1.3,1.4-0.8,2.1c0.4,0.7,1.4,0.8,2.3,0.8
	c0.6,0,1.3-0.2,1.4-0.8c0.1-0.5-0.3-1-0.8-1.1s-1,0-1.5,0.1c0.1,0.7,0.8,1,1.5,1.2c0.8,0.3,1.6,0.5,2.3,0.3c0.8-0.2,1.4-1.1,1-1.8
	c-0.7-0.2-1.6-0.4-2.2-0.1c-0.7,0.3-0.9,1.5-0.3,1.8c0.5-0.7,0.8-1.5,0.8-2.4c-0.1-0.7-0.5-1.5-1.2-1.6c-0.9-0.1-1.4,1.1-1,1.9
	s1.3,1.2,2.1,1.4c0.2-0.6,0.2-1.2,0.2-1.7c-0.3,0-0.7,0-1-0.1c-0.6,0.1-0.7,1.1-0.2,1.5c0.5,0.4,1.3,0,1.5-0.5
	c0.2-0.6-0.1-1.3-0.6-1.6c0.4,0.1,0.8,0.3,1.2,0.4c0.3-0.3,0.5-0.8,0.3-1.2c-0.6-0.2-1.3-0.4-2-0.3c-0.6,0.2-1.2,0.8-1,1.5
	c0.7,0.2,1.3-0.7,1-1.3c-0.2-0.6-1-1-1.6-1c-1.4-0.1-2.9,1.5-2.2,2.8c0.3,0.2,0.7,0.2,1,0c0.4-0.4-0.2-1.2-0.8-1
	c-0.5,0.2-0.6,1-0.2,1.5c0.4,0.4,1.1,0.5,1.6,0.3c0.6-0.4,0.1-1.6-0.6-1.6c-0.8,0-1.4,0.8-1.4,1.5c0,0.8,0.4,1.5,0.9,2.1
	c0.2-1.2-0.8-2.2-2-2.6c-1.1-0.3-2.3-0.1-3.5,0.1c-0.9,0.2-1.7,0.4-2.6,0.5c-0.6,0.1-1.2,0.3-1.7,0.7c-0.5,0.6-0.4,1.5-0.3,2.3
	c0.3,2,0.6,4.1,1,6.1c1.3,6.8,3.3,13.5,5.2,20.2c0.6,2.2,1.3,4.4,2.5,6.3c0.7,1.2,1.6,2.2,2,3.5c0.7,2.8-1.4,5.5-3.4,7.6
	c-1,1.1-2.1,2.2-3.4,2.8c-1.5,0.7-3.3,0.7-5,0.7c-0.9,0-1.9,0-2.6-0.5c-0.8-0.5-1.2-1.6-0.6-2.3c0.9-0.3,1.9-0.6,2.8-0.9
	c-1.3-0.1-2.6-0.7-3.5-1.6c-0.5-0.6-1-1.2-1.6-1.7c-1.1-0.7-2.4-0.5-3.6-0.1c-1.2,0.4-2.3,1-3.6,1.1c-2.8,0.3-5.5-2.3-5.3-5.1
	c-0.9,1.4-0.2,3.4,1.1,4.4c1.3,1,3.1,1.3,4.7,1.6c1.5,0.2,3,0.5,4.5,0.7c1,0.1,2.3-0.1,2.3-1c0-0.5-0.4-0.8-0.9-1
	c-1.5-0.7-3.5-0.3-4.5,1c1.5,0.8,3.2,1.1,4.9,1.1c0.4-0.8-0.3-1.7-1.1-1.9c-0.8-0.2-1.7,0.2-2.5,0.5c1,0.6,2.2,0.8,3.3,0.7
	c-0.4-0.8-1.6-1.1-2.3-0.6c1,0.4,2.1,0.3,3-0.3c-1.1-0.5-2.4-0.7-3.6-0.6c-0.2,0-0.4,0.1-0.5,0.2c-0.4,0.4,0.3,1,0.9,1
	c0.6,0,1.3-0.1,1.9-0.4"/>
<path fill="none" stroke="#000000" stroke-linecap="round" stroke-linejoin="round" stroke-miterlimit="10" d="M340.7,289.1
	c-0.4,1.6-1.2,3.2-2.2,4.5c0.4-0.8,0.6-1.7,0.5-2.6c0.2,1.9-2,3.5-3.7,2.8c1.5-1.4,2.4-3.4,2.5-5.5c-0.2,2.9-2,5.5-4.6,6.8
	c-2.6,1.3-5.8,1.1-8.2-0.5c-0.9-0.6-1.8-1.4-2.7-2c-2.5-1.7-5.5-2.2-8.5-2.7c-0.6-0.1-1.3-0.2-1.9,0c-0.6,0.2-1.1,0.7-1.6,1.1
	c-3.5,2.8-8.4,2.8-12.7,4.2c-1.4,0.5-3,1.6-2.7,3c1.7-2.2,4.6-3.3,7.4-2.9c-2.6,0-5.1,1.6-6.1,3.9c0.4-2.7,3.4-4.1,6.1-4.8
	c6.6-1.7,13.9-2.3,19.8,0.9c-3.3-2.7-8-3.5-12-2c1.5-1.1,3.6-1.3,5.4-1c1.9,0.3,3.6,1,5.4,1.8c-2.3-2-5.4-3.2-8.5-3.2
	c-1.9,0-3.8,0.4-5.7,1c-2.5,0.8-5,1.9-7.3,3.3c3.6-2.2,7.9-3,12.1-3.8c1-0.2,2.1-0.4,3.1-0.2c1,0.2,2,0.7,2.9,1.1
	c2,1.1,4.1,2.2,6.1,3.2c-2.7-2.5-6.4-3.9-10.1-3.9c2.6,0.4,5,1.6,7,3.3c-3.8-0.4-7.5-0.7-11.3-1.1c2.2-0.2,4.3-0.3,6.5-0.3
	c1.7,0,3.5,0.1,5.1,0.6c1.6,0.5,3.2,1.6,3.9,3.2c-3.2-1.5-6.6-2.6-10-3.4c2.5,1.5,5.4,1.8,8,2.9c2.6,1.1,5.2,3.4,4.9,6.3
	c0,0.4-0.1,0.7-0.4,1c-0.3,0.3-0.8,0.3-1.2,0.2c-1.3-0.1-2.6-0.2-3.8-0.2c-0.6,0-1.1-0.1-1.6-0.2c-0.7-0.2-1.3-0.6-1.9-1
	c-2.9-1.8-6.6-2.5-10-1.7s-6.5,2.8-8.4,5.7c2.6,3.4,7.4,4.1,11.6,4.2c1.8,0,3.7,0,5.4-0.8c1-0.5,1.8-1.1,2.7-1.7
	c1.3-0.8,2.8-1.4,4.4-1.7c-1.2-0.6-3,0.4-3.8-0.7c-0.2-0.3-0.2-0.8-0.3-1.2c-0.5-2.1-3-2.9-5.1-3.3c-0.9,1.4-0.3,3.3-1.1,4.7
	c-1,2-3.7,2.2-5.9,1.9c-1.2-0.1-2.5-0.4-3.5-1.1s-1.7-2.1-1.2-3.3c0.4-1,1.6-1.6,2.6-1.8c1.2-0.3,2.5-0.5,3.8-0.6
	c1.8-0.1,4.1,0.2,4.5,1.9c0.2,1-0.4,2-1.2,2.5s-1.8,0.8-2.8,0.9c-2.1,0.3-4.7,0.1-5.5-1.9c-0.2-0.5-0.2-1.2,0.2-1.5
	c0.2-0.2,0.5-0.3,0.7-0.3c1.5-0.5,3.2-0.6,4.8-0.3c-1.2,0.5-2.3,1.2-3.3,2c1.2,0.7,2.6,0.9,4,0.6c0.7-0.7,0.1-2-0.8-2.3
	s-2,0-2.9,0.4c-0.7,0.3-1.5,0.8-1.5,1.6c1.3,0.6,2.7,0.9,4.1,0.9c0.6,0,1.2,0,1.7-0.4c0.5-0.3,0.7-1.1,0.3-1.5
	c-0.3-0.3-0.7-0.3-1.1-0.4c-1-0.1-2.1-0.2-3,0.1c-1,0.4-1.8,1.3-1.6,2.3c2,1.1,5-0.4,5.2-2.7c-1.3-0.4-2.8-0.9-4.1-0.5
	c-1.4,0.4-2.5,1.9-1.9,3.2c0.6,1.1,2.1,1.4,3.3,1.5c1,0.1,2.1,0.2,3.1,0.2c0.3,0,0.7,0,1-0.1c0.4-0.2,0.6-0.6,0.7-1
	c0.4-1.2,0.4-2.6,0-3.9c-1-0.5-2.3-0.4-3.2,0.3s-1.4,1.9-1.2,3c0.7,0.2,1.5-0.2,1.8-0.8c0.4-0.6,0.2-1.5-0.3-2
	c-0.4-0.6-1.5-0.4-1.7,0.3s0.1,1.5,0.8,1.8c0.6,0.3,1.4,0.2,2.1-0.1c0.7-0.4,1.4-1.4,0.8-1.9c-0.2-0.2-0.6-0.3-0.9-0.3
	c-2.1-0.3-4.4-0.5-6.1,0.7c-0.3,0.2-0.5,0.4-0.5,0.7c-0.1,0.8,0.9,1.2,1.7,1.3c1.6,0.2,3.2,0.4,4.7-0.1s3-1.6,3.2-3.1
	c0-0.2,0-0.5-0.1-0.6c-0.2-0.2-0.5-0.3-0.7-0.3c-1-0.1-2-0.3-2.9,0c-1,0.2-1.9,0.9-2.1,1.9c1.8-1.2,3.9-2.4,6-2.1
	c1.8,0.3,3.3,1.6,5.1,2.2c1.9,0.7,4,0.4,5.9,0.2c0.4,0,0.8-0.1,1.1-0.4c0.2-0.2,0.3-0.6,0.3-0.9c0-2.3-2.3-3.9-4.3-5.1
	c-1.9-1.1-3.9-2.2-6.1-2.7c-3.7-0.7-7.4,0.8-10.9,2.2c-2.1,0.9-4.3,1.8-5.5,3.7c-0.7-1.3,0.6-2.7,1.9-3.4c1.5-0.9,3.2-1.4,4.9-1.7
	c-2.8,0.3-5.5,1.5-7.6,3.4c2.2-2.9,6-4.4,9.6-4c-2.4,1.2-5,2.3-7.6,3.2c2.4-2.1,5.6-3.3,8.8-3.3c-2.6-0.5-5.5-0.9-7.7,0.6
	c-1,0.7-1.7,1.6-2.3,2.6c-0.6,1-1.1,2.1-1.5,3.3c1-0.7,1.9-1.5,2.7-2.4"/>
<path fill="none" stroke="#000000" stroke-linecap="round" stroke-linejoin="round" stroke-miterlimit="10" d="M317.2,366.1
	c0.4-1.9,2.7-3.2,4.5-2.4c0.5,0.2,0.9,0.5,1.3,0.7c1.6,0.7,3.4,0.5,5.1,0.2c2.3-0.3,4.6-0.5,6.9-0.5c0.6,0,1.1,0,1.7,0.1
	c0.7,0.2,1.3,0.6,2,0.8c1.8,0.7,3.9,0.5,5.5-0.6c0.7-0.5,1.3-1.1,2.1-1.5c1.7-0.8,3.6-0.1,5.5-0.3c2.3-0.2,4.4-1.6,6.6-1.4
	c0.5,0.8,0.5,1.8,0.3,2.7s-0.7,1.7-1.1,2.5c-0.7,1.3-1.5,2.7-2.8,3.6c-0.6,0.4-1.3,0.7-1.9,1.2c-1.7,1.2-2.6,3.4-4.5,4.5
	c-0.8,0.4-1.6,0.6-2.5,0.8c-4.1,0.9-8.4,1.3-12.6,1.1c-0.9,0-1.7-0.1-2.5-0.4c-2.7-0.9-4.1-3.8-6.2-5.7c-1.8-1.6-4.2-2.3-6.5-2.9
	c-0.4-0.1-0.9-0.2-1.2-0.5c-0.4-0.3-0.6-0.8-0.3-1.2c-0.2,0.1,0,0.5,0.3,0.5c0.3,0,0.5-0.3,0.6-0.5c0.8-0.9,2.2-1,3.3-0.7
	s2.2,0.9,3.3,1.3c2,0.8,4.2,1.1,6.4,0.9c1.2-0.1,2.4-0.5,3.6-0.5c2.3,0,4.4,1,6.7,0.8c2.6-0.2,4.8-2.1,7.4-2.6
	c1.1-0.2,2.1-0.2,3.2-0.3c2.3-0.3,4.6-1.2,6.4-2.8c0-0.2-0.3-0.3-0.4-0.2c-0.2,0.1-0.2,0.3-0.3,0.4c-0.7,1.1-2.6,0.8-3.2,1.9
	c0.4-0.2,0.7-0.3,1.1-0.5c-1.3-0.4-2.8-0.1-3.9,0.7c0.5-0.1,1-0.3,1.5-0.6c-0.5,0.3-1,0.5-1.6,0.8c0.6-0.1,1.3-0.2,1.9-0.2
	c-1,0.6-2.2,0.8-3.3,0.6c0.4-0.1,0.7-0.3,1.1-0.4c-0.9,0.1-1.8,0.2-2.7,0.3c-0.1-0.1,0.2-0.1,0.2,0c0,0.1-0.2,0.2-0.4,0.2
	c-0.7,0-1.3,0-2,0c0.1,0.2,0.4,0.3,0.6,0.1c-1.3,0.6-2.5,1.1-3.8,1.5c0.9-0.4,1.8-0.7,2.7-1c-0.4,0.5-0.8,0.9-1.3,1.3
	c0.2-0.3,0.6-0.6,1-0.6c-1.5,0.7-3.2,1.2-4.8,1.4c0.8-0.4,1.6-0.7,2.4-0.8c-1.3,0.2-2.5,0.3-3.8,0.2c0.1-0.2,0.5,0,0.4,0.2
	c-0.1,0.2-0.4,0.3-0.6,0.3c-0.6,0-1.1,0-1.7-0.1c0.9-0.2,1.9-0.2,2.8-0.1c-2.2,0.3-4.4-1.1-6.6-0.6c0.9,0,1.9-0.1,2.8-0.1
	c-1.8-0.1-3.5,0-5.3,0.2c0.7,0,1.5-0.1,2.2-0.1c-0.9,0.3-1.9,0.4-2.8,0.5c0.2-0.1,0.4-0.2,0.6-0.3c-1,0-2,0-3,0
	c0.6-0.2,1.2-0.2,1.8-0.2c-1.9,0.4-3.9,0-5.5-1.1c0.3,0.1,0.6,0.2,0.9,0.2c-1.1,0.1-2.2-0.1-3.2-0.6c0.3,0.1,0.6,0.2,0.9,0.4
	c-0.8-0.3-1.7-0.6-2.5-1c0.4,0,0.7,0,1.1,0c-1.5,0.2-3,0.4-4.6,0.6c0.5,0,1,0,1.4,0.1c-0.6,0.2-1.2,0.5-1.8,0.7
	c0.4,0,0.8-0.1,1.1-0.3"/>
<path fill="none" stroke="#000000" stroke-linecap="round" stroke-linejoin="round" stroke-miterlimit="10" d="M377.3,297.6
	c-2.5,2.5-2.9,6.4-2.4,9.9c0.5,3.5,1.9,6.8,2.3,10.3c0.4,3.4-0.1,6.9-0.6,10.4c-3.1,21.1-6.3,42.5-13.9,62.5c-1.3,3.5-2.8,7-5.4,9.7
	c-3.2,3.4-7.7,5.1-12.3,6.1c-11.7,2.4-24.5-0.5-34.1-7.6c4.6,3.5,10.5,5.2,16.3,4.9c-4.6-0.7-9.1-2.6-12.8-5.4
	c1.3,0.9,2.6,1.9,4,2.8c-2.1,1.1-4.8,0.6-6.9-0.6c-2.1-1.2-3.6-3.1-5.1-5c-2.6-3.5-5.1-7.1-7.3-10.9c0.3,5.3,3.7,10.2,8.5,12.4
	c-4.3-3.3-8.6-6.5-12.8-9.8c-3.5-2.7-7.3-5.7-8.2-10.1c1.5,3.7,3.4,7.2,5.8,10.5c-1.9-3.1-5.2-5-8.1-7.2c-3-2.1-5.9-5-6-8.7
	c0.5,1.6,1,3.1,1.5,4.7c-4.5-2.8-8.2-6.8-10.6-11.4c0.8,1.6,1.6,3.3,2.4,4.9c-6.5-2.6-12-7.5-15.5-13.6c-4.8-8.3-6.1-19.3-14-24.7
	c2.9,2.1,5.5,4.7,7.5,7.7c2.5,3.8,5.3,8.7,9.8,8.3c3.7-0.3,5.9-4.6,5.5-8.3c-0.4-3.7-2.7-6.8-4.9-9.8c-0.8,0.7-1.5,1.4-2.3,2.1
	c-1.2-3.2-6.3-4-8.4-1.2c0.1-1.8-0.7-3.5-1.3-5.3c-0.5-1.7-0.6-3.9,0.6-5.2s4.2-0.5,3.9,1.3c1-2.4-2.4-5.2-4.6-3.7
	c1.3-1.4,4-1.1,4.9,0.7c-0.2-1.3-1.4-2.4-2.8-2.3c-1.3,0.1-2.5,1.2-2.5,2.5c-0.2-2.4,2.9-4.4,5.1-3.2c-1,0.8-2.3,1.1-3.5,0.9
	c-0.5-3.2-2.9-6-5.9-7.1c-0.9,2.9-0.9,6,0,8.9"/>
</svg>
