<?xml version="1.0" encoding="utf-8"?>
<!-- Generator: Adobe Illustrator 19.1.1, SVG Export Plug-In . SVG Version: 6.00 Build 0)  -->
<svg version="1.2" baseProfile="tiny" id="Слой_1"
	 xmlns="http://www.w3.org/2000/svg" xmlns:xlink="http://www.w3.org/1999/xlink" x="0px" y="0px" viewBox="0 0 595.3 841.9"
	 xml:space="preserve">
<image width="800" height="1034" xlink:href="Leonhard_Euler.jpg"  transform="matrix(1 0 0 1 -128 -4.11)">
</image>
<path fill="none" stroke="#F24841" stroke-linecap="round" stroke-linejoin="round" stroke-miterlimit="10" d="M124.3,243.3
	c-13.3,24-12,72-11.3,80c0,0,5.3,16,2.7,24c-2.7,8-6.7,23.3-6,30c0.7,6.7,4.6,28.7,7.3,38c2.7,9.3,5.4,18,7.4,26s4.7,28,9.3,37.3
	c4.7,9.3,17.3,26,18.7,30.7c1.3,4.7,18.7,28,27.3,30c8.7,2,30,4,38,0s79.3-31.3,94-35.3c14.7-4,24.7-9.3,29.3-12.7
	c4.7-3.3,15.3-30.7,18-39.3c2.3-7.5,4.3-14.2,4.3-22c3.7,7.4,11.5,16.2,18.5,11.8c5.4-3.4,4.4-11.3,6.8-17.2
	c4.3-10.7,18.4-12.8,27.4-20.1c8.9-7.3,12.2-19.8,11.2-31.3c-1.1-11.5-5.8-22.2-10.6-32.8c-4.2-9.3-11.4-20.3-21.5-18.6
	c-11.4,1.9-13.4,17.1-12.7,28.6c0.1,2.3,0.4,4.9,2.1,6.5c1.6,1.4,3.8,1.6,5.9,1.9c6.5,0.9,12.9,4.1,16.4,9.6s3.3,13.5-1.4,18.1
	c-2.3,2.2-5.3,3.4-8.3,4.6c-7.8,3-15.5,6.1-23.3,9.1c4.9-8.3,9.7-16.6,14.6-24.9c-2.4,8.3-6.5,16.1-12,22.8
	c4.7-1.7,9.4-3.5,14.1-5.2c10.2-3.8,22.8-12.4,18.5-22.5c-3.8-9.1-17.6-8.3-24.6-15.3c-9.3-9.2-1.3-25.8,9.9-32.6
	c-11.3-25.8-27.9-49.3-48.5-68.5c-15.4-14.3-33.2-26.6-44.4-44.3c-2.5-4-4.8-8.4-8.9-10.8c-2.9-1.7-6.3-2.2-9.7-2.7
	c-12.6-1.7-25.2-3.4-37.8-5.1c-29.9-4.1-63.3-7.3-87.7,10.6c-8.6,6.4-15.4,14.9-22,23.4c-6.6,8.5-13.2,16.9-19.8,25.4
	c-11.5,14.8-23.7,31.7-21.4,50.3c3.6-5.6,7.2-11.1,10.7-16.7c-5.1,12.4-10.3,24.7-15.4,37.1c6-2.8,12-5.6,17.9-8.4
	c-12.7,9-14.2,27.5-10.5,42.7c3.7,15.1,11.5,29.2,13.2,44.7c-17.1-23.7-31.5-51-32.2-80.3c-0.3-14.2,2.5-28.2,5.9-42
	c3.7-14.8,7.9-29.5,14.3-43.4c19.3-42.4,58.4-75.4,103.5-87.3c9.2-2.4,19.3-3.9,27.9,0.2c5.8,2.8,10.1,8,15.3,11.8
	c14.8,11,35.1,10.8,51.7,18.7c21.8,10.4,35.1,33.3,56.1,45.1c3.3,1.9,6.9,3.5,9.5,6.4c2.3,2.6,3.5,6.1,5.6,8.8
	c6.2,8,18.5,8,26.4,14.4c10.4,8.2,8.6,27.2-3.1,33.4c0-9.6,2.4-19.2,7-27.6c0.2,9.3-2.8,18.6-8.5,26c-15.8-18.8-33.2-36.3-51.8-52.3
	c29.5,23.6,54.6,52.7,73.6,85.3c-4.3-12.6-13.1-23.5-24.5-30.4c8.6-9.8,14.7-21.8,17.6-34.5c5.2,7.3,10.4,14.5,15.6,21.8
	c5,6.9,10.1,14.4,10.2,22.9c0.1,8.3-5.3,16.4-12.9,19.6c3.1-10.8,6.1-21.6,9.2-32.4c1.5,10.3,0.2,21-3.8,30.7
	c-3.6-6.9-2.2-15.9,3.2-21.4c5.4-5.5,14.6-6.8,21.3-3.1c8.4,4.7,11.5,15.5,10.8,25.1c-0.8,9.6-4.5,18.7-6.5,28.1
	c-4.6,22.4-0.3,49.4-17.2,64.9c4.8-8,9.6-16.1,14.4-24.1c-8.7,18.9-23.1,35.1-40.9,45.8c5.5-2.6,10.1-7.1,12.8-12.5
	c0,3.4,0,6.8,0.1,10.1c-1-2.5-1.9-4.9-2.9-7.4c-6.9,9.5-17.2,16.4-28.5,19.2c10.7-2.5,20.8-7.9,28.7-15.5c-0.4,22.5-0.8,45-1.2,67.5
	c0,2,0.1,4.3,1.7,5.5c1.3,0.9,3,0.6,4.6,0.4c11.4-2.1,22.8-4.1,34.2-6.2c8.9-1.6,17.7-3.2,26.6-4.8c13.4-52.3,12.3-108.3-3.2-160
	c-3.7-12.3-9-25.4-20.1-31.9c5.4,10.8,20.3,11.3,32.3,10.4c16.1-1.2,32.2-2.4,48.3-3.7c4.3-11.5,6.2-23.8,5.4-36
	c-0.3-4.4-1.4-9.6-5.4-11.5c-2.9-1.4-6.3-0.6-9.4,0c-15.6,3.1-32.1,1.2-46.6-5.2c7.6-0.8,14.6,5.2,17.5,12.2
	c2.9,7.1,2.6,15,2.3,22.6c-0.7-9-3.2-17.9-7.3-26c0.6,5.8,1.3,11.5,1.9,17.3c3.7-11.1-7.4-21.1-17.1-27.7
	c-18.9-12.7-37.8-25.4-56.6-38.1c9.1,8.9,17.1,18.9,25,28.9c7,8.9,14,17.7,21,26.6c-26.2-43.1-65.2-78.4-110.6-100.2
	c14.6,1.6,28.7,8.2,39.3,18.3c-10.6-11.9-23.9-21.4-38.7-27.4c-2.8-1.1-5.9-2.1-8.7-1.2c-2.8,0.9-4.8,4.8-2.8,7.1
	c3.1-1.1,6.1-2.2,9.2-3.3c3.8,9,6,18.6,6.6,28.3c2-11.8,3.9-24.5-1.5-35.2c-6.5-12.6-21.2-18.2-34.1-24.1
	c-29.1-13.3-55.1-33.2-75.5-57.8c6.6,2.5,8.3,10.8,11.8,16.9c5.7,9.8,16.9,14.7,26.3,21c7.8,5.3,14.7,12,23.2,16.2
	c8.5,4.2,19.5,5.2,26.8-0.9s6.6-20.2-2.4-23.1c14.3,1.6,22.2,21.9,12.7,32.8c1.2-5.6,2.4-11.2,3.5-16.8c-5,4.7-9.4,10.1-12.8,16.1
	c0.6-2.1,1.3-4.4,3.1-5.6c1.8-1.3,4.9-0.6,5.2,1.6c-1.6-19-12.5-37-28.6-47.2c19.4-1.6,39.3,4.5,54.5,16.7c2,1.6,4,3.4,4.9,5.9
	c3.4,9.2-10.1,14.7-15.9,22.7c13.8-6.1,25.7-16.5,33.4-29.5c-7.1,1.2-13.8,4.5-19.2,9.2c5.9-0.3,11.3-5,12.4-10.8
	c-6.5-1.3-13.1-2.6-19.6-3.9c7-0.9,14.3,0.8,20.2,4.7c-38-4.1-75.2-14.7-109.7-31.2c-8.6-4.1-17.3-8.6-26.8-9.5
	c-15.5-1.4-30.2,7.5-41.1,18.5c8.9-4.4,17.7-8.7,26.6-13.1c-6.5,12.2-5.6,28,2.4,39.3c-4.6-12.9-7-26.6-7-40.3
	c-28.4,5.1-41.8,44.6-70.6,46.7c12.9,14.4,30,24.9,48.6,29.9c-20-5.5-38-18.3-49.8-35.4c-1.5-2.2-3-4.6-5.4-6
	c-4.8-2.8-12.2-1.2-15-6c-6.7,2.3-4.1,12.3-0.3,18.3c5.9,9.3,11.8,18.6,17.8,27.9c-8.6-8.1-15-18.4-18.3-29.7
	c-1.3-4.3-4.5-9.9-8.5-8c-2.3,1.1-2.8,4.2-3.4,6.7c-1.3,4.8-4.5,8.8-6,13.5c-4.5,13.5,5.2,27.2,14.3,38.1
	c-7.2-10.8-14.3-21.6-21.5-32.4c-11.5,14.1-13.4,33.5-14.9,51.6c11.1-0.9,22.1-1.8,33.2-2.8c-10.3-0.2-20.7-0.3-31-0.5
	c4.7-3.1,10,3,12.1,8.3s6.1,11.8,11.4,10c-5.3,2-11.9-2.7-11.8-8.4c0.1-5.7,6.9-10.1,12.2-7.9c-6.5,1.6-13.4,3.1-19.7,1.1
	c-6.4-2-11.6-9.1-9.2-15.3c1.9-4.9,7.8-7.7,8.7-12.9c0.7-3.9-1.6-8,0-11.6c1.3-3,4.8-4.3,7.6-6.1c7.9-5.1,10.7-15,15.1-23.3
	c4.4-8.3,13.3-16.3,22.1-13c3.9,1.5,6.7,5,10.3,7.2c10.6,6.9,25.1,1.6,34.6-6.7c9.6-8.2,16.7-19.2,27.2-26.2
	c16.8-11.1,38.6-9.8,58.7-8.1c7.2,0.6,14.4,1.2,21.4,2.6c8.1,1.5,16,4.1,23.6,7.5c10.4,0,20.8,0,31.2,0c13.9,0,28.9,0.3,40.1,8.5
	c8.6,6.3,13.8,16.2,21.8,23.3c3.7,3.3,8,5.9,12,8.7C471,132.1,491,174,488,215c-0.3,4.1-0.8,8.3,0.7,12.2c2.8,7.4,11.5,10.2,19,12.6
	c12.1,3.8,24.5,8.8,32.9,18.4c8.4,9.6,11.5,24.8,4.1,35.1c5.2-11.7,10.3-23.4,15.5-35.1c2.2-5,4.5-10.2,4.6-15.6
	c0.4-13.7-11.8-24.1-22.9-32.2c-19.8-14.5-39.6-29.1-59.4-43.6"/>
<path fill="none" stroke="#F24841" stroke-linecap="round" stroke-linejoin="round" stroke-miterlimit="10" d="M383.2,492.5
	c9.5,6.3,21.9,8,32.7,4.6c-4.7-10.3-21.6-11.6-27.9-2.2c2,1.8,4.3-3,2-4.5c-2.3-1.5-5.2-0.2-7.6,1.2c5,0.7,10,0.6,15-0.4
	c-1.9-0.3-3.9-0.7-5.8-1c3.9,0.4,8.1,0.7,11.5-1.4s4.6-7.6,1.4-9.8c-1.1-0.8-2.5-1-3.8-1.1c-7.5-0.5-15.1,2.7-19.9,8.4
	c9.9,5.5,23.5,3,30.9-5.7c-13.2,3.5-27.1,4.3-40.6,2.4c11.5,6.3,27.3,3.2,35.7-6.8c-8.6,3.8-18.2,5.5-27.6,4.9
	c6.8-3.4,15.3-3.1,21.8,0.7c-6.4-1.1-12.7-3-18.7-5.6c10.4,1.5,21.2,0.4,31.1-3.3c-10.7-0.1-21.5-0.3-32.2-0.4
	c5.4-3.1,12.1-3.8,18.1-1.9c-6.8-2.5-14.5-2.7-21.5-0.6c9.5,0.5,19.1-0.4,28.3-2.7c-4.1,0.6-8.5,1.1-12.4-0.4
	c-3.9-1.5-7.1-5.7-5.9-9.7c3.9,5.8,10.6,9.7,17.6,10.4c-5.1-3.1-10.2-6.3-15.3-9.4c4.6,1.7,9.2,3.5,13.9,5.2c2.5-5.4-1.1-12.8-7-14
	c-0.9,5.4,4.3,10.8,9.7,10.2c-1.8-5.5-7.3-9.5-13-9.5c3.8,1.4,7.7,2.8,11.5,4.2c-1-5-4.7-9.4-9.5-11.2c4.4,2.2,8.8,4.4,13.2,6.6
	c2.5-2.7,3.4-6.8,2.4-10.3c-4.7,11.4-22.5,14.2-30.5,4.9c4.1-2.2,9.8,0,11.4,4.3c-2.9,0.3-5.9,0.5-8.8,0.8c-0.2-3.1,4.8-4.7,6.4-2.1
	c1.6,2.6-2.2,6.4-4.8,4.7c3.5,2.3,7.1,4.5,10.6,6.8c-6.4,0.7-13-1.8-17.4-6.5c2.8,2.4,5.7,4.8,8.5,7.2c-2-2.4-5.5-3.5-8.5-2.4
	c1.6,21.2,1.3,42.6-0.9,63.7c-1,9.4-2.6,19.4-8.8,26.5c-5.5,6.4-13.7,9.5-20.8,14c-19.9,12.6-31.1,37.8-27.1,61.1
	c-6.8,2.4-9.9-7.9-13.6-14.1c-5.2-8.8-17.7-11.1-27-7c-9.3,4.1-15.6,13.1-19.3,22.6c-4.8-9.5-6.7-20.5-5.4-31.1
	c-11-1.5-22.2-3-32.3-7.7c-8.3-3.9-15.5-9.8-22.4-15.7c-13.9-11.9-27.4-24.4-40.3-37.4c14.3,24.4,46.8,36.3,73.5,26.8
	c-14.9,0.4-30.2,0.7-44.3-4.2c-14.1-4.9-26.9-16.2-29.3-30.9c-1.6,13.6-5.4,27-11.3,39.5c-2.3,4.8-4.9,9.6-8.9,13.1
	c-5.6,4.9-13.2,6.6-20.4,8.6c-31.3,8.6-60.4,24.8-84.4,46.7c-9.4,8.6-19.8,18.8-32.5,17.5C9,663,29,662.5,44.8,662.4
	c30.2-0.2,60,8.8,90.1,6.5c7.1-0.5,14.2-1.7,21.2-0.7c6.4,0.9,12.3,3.6,18.6,5c17.6,4,35.8-1.9,53.9-2.1c19.2-0.3,38.3,5.9,57.3,3.6
	c9.2-1.1,18.2-4.2,27.5-4.6c9-0.3,17.9,1.9,26.9,3.4c16.4,2.7,33.2,2.9,49.8,2.2c46.9-1.9,93.9-10.3,140.4-4.1
	c10.8,1.5,22.5,3.5,32-1.7c-19.7-13.1-39.3-26.2-59-39.3c-17.4-11.6-34.9-23.3-54.2-31.5c-10.5-4.5-21.8-8.1-30.2-15.8
	c-24-22-14.5-65.9-38.6-87.8c11.9,18.9,20.8,39.6,26.5,61.2c1.7,6.4,2.8,13.9-1.4,18.9c13.9,19,23.8,40.9,28.8,63.9
	c0.4,1.7,0.7,3.6,0.2,5.3c-1.7,5.3-9.2,4.7-14.5,6.1c-9.6,2.5-14,16.3-7.5,23.9c-0.6-13.9-5.7-27.6-14.5-38.4
	c1,7.2,5,13.8,10.8,18.2c6.4-2,12.9-3.9,19.3-5.9c2.4-0.7,4.9-1.6,6.4-3.5c2.3-3.1,1.2-7.4-0.1-11c-7.3-20.6-17-40.4-28.6-58.9
	c-6.1,14.9-12.3,29.7-18.4,44.6c-9.3,0.2-17.9-4.6-26-9.1s-17.1-8.9-26.3-7.6c-9.2,1.2-17.8,10.7-14.6,19.5
	c6.1,4.3,10.4,11.3,11.3,18.8c-7.3-1.3-4-14.8-10.6-18c-2.1-1-4.8-0.6-6.9-1.6c-3.5-1.6-4.1-6.1-5.7-9.6c-4-9.3-16.3-13.1-25.9-9.7
	c-9.6,3.4-16.3,12.4-19.4,22.1c5.6,13.3,6.3,28.7,1.8,42.5c5.9,1.9,11.8,3.8,17.7,5.7c-8-1.8-16.2-3.6-23.1-7.9
	c-7-4.3-12.7-11.4-13.1-19.6c-0.2-6.3,2.7-13-0.1-18.7c-3.6-7.5-15.7-7.5-20.9-1c-5.2,6.5-4.1,16.4,0.5,23.3c4,6,13.6,10.1,18.1,4.4
	c1.4-1.8,1.9-4,2.3-6.3c1.4-7.8,0.9-17.7-6.1-21.5c-7.2-4-17,2.8-17.5,11c-0.5,8.2,6.4,15.6,14.4,17.5c3.8,0.9,8,1,11.1,3.3
	c4.5,3.4,7.7,11.5,12.8,9.1c1-0.5,1.8-1.4,2.5-2.3c7.9-10.8,4.1-26.6-4.5-36.8c-8.6-10.2-20.9-16.4-32.2-23.4
	c-21.1-13.1-39.8-30-55-49.6"/>
<path fill="none" stroke="#F24841" stroke-linecap="round" stroke-linejoin="round" stroke-miterlimit="10" d="M145.5,461.8
	c3.4,3,8.5-0.2,12.9-0.7c4-0.4,8,1.4,12,1.3c3.8-0.1,7.3-2,10.9-3c9.1-2.6,18.7-0.3,28,1.4c9.3,1.7,19.5,2.6,27.5-2.4
	c0.4,1.5,1.8,2.6,3.3,2.5c-0.3,2,0.3,4.2,1.5,5.8c-8.7-1.9-17.3,2.6-25.5,5.8c-15.3,5.9-32.2,7.7-48.4,5.1c-8.5-1.4-17-4.1-23.9-9.3
	c-1.1-0.8-2.2-1.8-2.5-3.1c-0.3-1.3,0.7-3,2-2.9c-1.2,0.6-1,2.5,0,3.3c1,0.8,2.4,0.9,3.8,1c10.5,0.3,20.9,0.7,31.4-0.2
	c5.6-0.5,11.2-1.3,16.9-1.2c3.9,0.1,7.8,0.7,11.7,0.9c10.3,0.6,20.5-1.3,30.6-3.2c4.4-0.8,9.4-2.1,11.4-6.1
	c1.9-3.9-0.1-8.8-3.3-11.8c-3.2-3-7.2-4.9-10.7-7.6c-6.1-4.7-9.9-11.6-13.4-18.4s-6.7-13.9-12-19.5c-5.2-5.6-13-9.5-20.5-8
	c5.8-2.6,13.1-0.1,17.2,4.8s5.3,11.7,4.9,18c-0.1,1.9-0.4,3.8-1.3,5.4c-2.5,4.2-8.4,4.6-13.3,4.5c-2.5-0.1-5.9-1.3-5.2-3.7
	c0.3-0.9,1.1-1.5,1.4-2.4c1-2.5-2.5-4.4-5.2-4.7c-5.8-0.7-11.7-0.3-17.4,1.2c-0.9,0.2-1.9,0.6-2.2,1.5c-0.5,1.3,1,2.6,2.4,3
	c2.1,0.6,4.4,0.6,6.5-0.2c-2.6,0.6-5.5-1.1-6.2-3.6c6.2-1.1,12.6-0.9,18.6,0.5c-4.4,0.9-8.9,0.9-13.3,0c3.6,0.8,7.3,1.5,10.9,2.3
	c-2.6-1.4-6-0.3-8.4,1.4s-4.5,4.1-7.2,5.4c-4,1.9-9,1.2-12.7-1.1c-3.8-2.4-6.4-6.2-8.1-10.3c1.8-1.2,4.2-1.6,6.3-1.1
	c1.2,1.8,1.5,4.1,0.9,6.2c-1,0.1-2.1,0.2-3.1,0.2c-0.6-1.6-0.3-3.5,0.8-4.9c1.6,0.7,0.9,3.6-0.9,4.1c-1.7,0.5-3.5-0.7-4.8-2
	c-5.8-5.9-5.8-15.7-2.8-23.4c3-7.7,8.5-14.3,12.8-21.3c5.3-8.6,8.9-18.1,12.5-27.6c2.6-6.8,4.9-15.3,0.1-20.7
	c0.8,1.5,1.2,3.2,1.2,4.9c-0.2-2.9-2.1-5.7-4.7-7.1c0.7,1.4,0.9,3,0.6,4.6c-0.5-3.1-2.8-5.8-5.7-6.9c1.4,0.6,2.3,2.3,2,3.9
	c-2.9-3.9-7.2-6.8-12-7.9c2.9-0.9,6.4,1,7.3,4c-2.9-1.7-5.9-3.5-8.8-5.2c2.1,0.3,3.7,2.3,3.6,4.3c-4.1-4.5-9.8-7.5-15.8-8.4
	c4.4,1,8.4,3.5,11.2,7c-2.6-2.9-6-5-9.8-6c4.1,0.5,8.1,2.2,11.3,4.8c-4.7-1.3-9.3-2.5-14-3.8c2,0.9,4.1,1.8,6.1,2.7
	c-3.8-2.4-8-4.1-12.4-5.2c3.1,3,7,5.1,11.3,6c-3.6-1-7.3-2-10.9-3c3.5,0.3,7,1.3,10.2,2.9c-4-0.3-8-1.1-11.8-2.4
	c1.1,0.5,2.1,1,3.2,1.5c-3.4,0.3-6.8,0.1-10-0.8c5.3,1.4,10.7,2.8,16,4.1c-4.8-0.4-9.5-0.8-14.3-1.2c3.3,0.5,6.6,1,9.9,1.4
	c-3.5,0.1-7,0.2-10.5,0.2c1.3,0.1,2.6,0.2,3.8,0.2c-1.5,0.3-2.9,0.5-4.4,0.8c2.3,0.4,4.6,0.7,7,1.1c-2.4,0.7-5,1-7.5,0.9
	c2.5,0.5,4.9,1,7.4,1.4c-4.1,0.4-8.1,0.5-12.2,0.3c1.6,0.3,3.2,0.7,4.8,1c-1,0.9-2.3,1.5-3.6,1.5c0.1-3.6,5.1-4.3,8.7-3.8
	c-0.8-1-1.5-2.1-2.3-3.1c3.4-0.8,7-1.1,10.6-0.9c-1.8-0.8-3.6-1.6-5.4-2.4c3.8-1.8,8.3-2,12.2-0.6c-2.4,0-4.8-1.5-5.7-3.8
	c4-0.8,8.1-0.7,12,0.2c-3.5,0.1-6.9-0.7-10.1-2.1c3.9-1.8,9-0.5,11.6,3c-2.5,0.7-5.4-0.8-6.3-3.2c3.8-0.5,7.7,1.4,9.7,4.6
	c-2.5-0.9-4.5-2.9-5.4-5.3c3.1-1.2,6.9,1.6,6.7,4.9c-2.3-1.3-4.3-3-6-5c4.8-0.5,9.7,1.7,12.6,5.5c-2.9-1-5.4-3.1-7-5.7
	c3.5,1.3,6.1,4.7,6.6,8.4c-2.9-1.8-5.5-4-7.7-6.6c5.1,0.3,9.9,3,12.9,7.2c-1.5-1-2.5-2.7-2.6-4.5c1.5-0.8,3.5,0.4,4.2,2
	s0.4,3.4,0.1,5.2c-1.8-2.8-3.6-5.6-5.3-8.4c0.1,2.5,0.7,5.1,1.8,7.3c-4.9-2.7-9.7-5.7-14.1-9.1c4.4,1.9,8.6,4.2,12.6,6.8
	c-4.1-0.9-8.1-2.5-11.7-4.7c6.4,1.9,11.9,6.5,14.8,12.5c-6-9.7-19.6-11.3-30.9-9.8c-0.8,0.1-1.8,0.3-2.3,1s-0.1,2,0.8,1.8
	c-2-0.1-4.1-0.1-6.1-0.2c1.8,0,3.5,0.4,5.1,1.1c-3.1,0.7-6.4,0.4-9.4-0.8c1.5-0.1,3,1.1,3.2,2.6c-2.4,0.7-4.8,1.5-7.2,2.2
	c2.3,1.4,4.7,2.5,7.2,3.4c-3,2.4-4.5,6.6-3.6,10.4c3.7-2.7,7-5.7,10.1-9.1c-5.4,4-9.2,10-10.6,16.6c-1,4.7-0.1,10.6,4.2,12.5
	c-3.3-6.1,0.3-14.3,6.4-17.8c6-3.5,13.6-3.2,20.4-1.7c5.4,1.2,10.7,3.2,15.5,5.9c-6.1,4.6-14.1,5.8-21.6,7c-7.8,1.2-16.7,2.1-22.8-3
	c4.1-5.1,10.2-8.6,16.7-9.5c2.1-0.3,4.3-0.3,6.1,0.8s2.8,3.5,1.8,5.3c-0.6,1.1-1.9,1.7-3,2.2c-3.5,1.4-8.4,1.8-10.2-1.5
	c-1.6-2.9,0.9-6.9,4.2-7.2c3.3-0.3,6.4,2.3,7.1,5.5c-2.4-3.4-8.7-2.6-10.1,1.3c2.4,1.1,5.4-1.4,4.8-4c-2.3-0.9-5.2,0.5-5.9,2.9
	c1.1,1.6,3.5,2.1,5.2,1c1.6-1,2.3-3.4,1.4-5.1c-2.2,0-4.4,1.6-5.1,3.7c1.3,1.3,3.2,1.9,5,1.6c-0.1-3.2-4.9-5-7.1-2.7
	c1.6,0.5,3.2-2,2-3.2c2.2,2.3,6,3.1,8.9,1.8c-0.7-0.6-1.7-1.3-2.6-1.1c-0.9,0.3-0.8,2.1,0.1,1.9c-0.6-1.9-3.3-3.1-4.7-1.7
	c-1.4,1.4,0.7,4.5,2.3,3.3c-1.1,0.6-1.6,2.2-1,3.4c2.7,1,6.1-1.4,6-4.3c-1.6-1.2-4.3,0.6-3.9,2.5s3.5,2.5,4.6,0.8
	c-0.4-0.8-1.7-0.9-2.3-0.2c1.3,0.6,2.9,0.6,4.2,0c-1.2-1.2-3-1.8-4.7-1.4c-0.1,1.6,2.5,2,3.5,0.8c1-1.3,0.8-3.1,0.5-4.6
	c-1.1,1.1-0.2,3.3,1.3,3.3c-1-2-3.1-3.3-5.3-3.3c-0.8,0-1.8,0.3-2,1c-0.2,0.8,1.1,1.5,1.4,0.8c-0.3-2.4-3.7-4-5.4-2.2
	c-1.7,1.8,1.2,5.3,3,3.7c-0.6-1.2-2.2-1.8-3.4-1.3c-1.2,0.5-1.9,2.1-1.4,3.4c3.1,2.6,8.8,0.4,9.4-3.7c-3.7-0.3-7.4-0.9-11-1.8
	c10-3.8,21.7-3,31,2.3c2.1,1.2,5,2.4,6.6,0.6c0.7-0.9,0.8-2.1,0.8-3.3c0.1-12.1,1.6-24.1,4.4-35.8c-1.4,11.1-2.6,22.2-3.6,33.4
	c2-0.6,4.1-0.8,6.1-0.7c-1.4,0.3-2.7,0.5-4.1,0.8c-3-4.2-3.2-10.2-0.6-14.7s7.9-7.2,13.1-6.8c-2.2-10-3.2-20.3-3.1-30.5
	c-0.4,9.1-0.8,18.4,2.3,26.9c0.4,1.1,1,2.3,2.1,2.9c0.8,0.4,1.8,0.3,2.7,0.2c4.3-0.5,8.6-2,12.3-4.3c1.3,2.7,3.1,5,5.4,6.9
	c-1.1-2.7-1.7-5.6-2-8.5c0.8,3,2.2,5.9,4.2,8.3c0-3-0.4-6-1.2-8.9c2.2,3.2,4.4,6.4,6.7,9.6c0.6-2.6-0.2-5.5-2-7.5
	c0.9,3.4,3.5,6.4,6.8,7.6c0.1-3.1-0.7-6.2-2.3-8.8c0.7,2.5,1.9,4.9,3.6,6.9c-0.4-3.6-2-7.1-4.6-9.7c1.5,2.9,3.8,5.5,6.6,7.3
	c0.5-1.9,0.2-4-0.9-5.7c7.6,2,14.9,5.1,21.7,9c-6.9,0.5-14.1-2-19.2-6.7c3.3-0.4,6.8,1.1,8.8,3.7c-5.1-0.6-9.9-3.6-12.8-7.8
	c5.1,0.6,9.9,2.9,13.6,6.4c-4.7,0.2-9.5-2.1-12.2-6c5.5,0.2,10.9,2.4,15,6.1c-2.8-0.7-5-3.4-4.9-6.3c4.2,0,8.3,1.7,11.3,4.6
	c-1.6-0.5-3-1.8-3.6-3.4c3,0.2,5.7,2.6,6.4,5.5c-3.9-2.6-7.7-5.2-11.6-7.8c4.7,0.2,9.3,2.8,12,6.6c-1.6-1.4-2.5-3.6-2.2-5.8
	c3.7,1.8,7,4.5,9.5,7.7c-3.7-1-6.9-3.7-8.6-7.2c4.6-0.4,9.2,3.2,9.8,7.8c-2.5-1.3-4.4-3.8-4.8-6.6c3.9-0.8,8.1,2.3,8.4,6.3
	c-3.3-1.7-5.9-4.7-7.2-8.2c4.5,1.1,8.3,4.7,9.6,9.2c-1.4-1-0.8-3.6,0.8-4.2c1.6-0.6,3.5,0.3,4.6,1.7c1,1.4,1.4,3.2,1.7,4.9
	c-3.7-1.2-7.1-3.4-9.7-6.3c2.1,1.4,3.9,3.3,5.1,5.5c-1.6-3.1-3.2-6.2-4.8-9.2c2.3,2.1,4,4.9,4.8,7.9c-2.6-2.9-5.2-5.8-7.8-8.7
	c0.1,2.2,0.7,4.4,1.8,6.3c-2.7-3.8-6.2-7-10.3-9.3c1.5,2.8,3.7,5.2,6.3,7c-3.5-2.5-7-4.9-10.5-7.4c0.7,3.2,2.5,6.2,5.1,8.3
	c-2.1-3.3-5.5-5.7-9.3-6.6c1.2,3,3.5,5.6,6.3,7.2c-3.4-2.4-6.7-4.9-10.1-7.3c-0.5,2.9,0.6,6.1,2.8,8.1c-2.8-2.7-6.1-5-9.6-6.7
	c1.3,1.5,2.7,3,4,4.5c-3.8-2-7.6-4-11.4-6c0.9,1.9,1.9,3.8,2.8,5.7c-2.1-0.5-4.1-1-6.2-1.5c1.7,1.9,3.6,3.7,5.8,5.2
	c-3.7-2-7-4.6-9.8-7.7c0.2,2.6,1.1,5.2,2.5,7.4c-1.8-1.7-3.5-3.4-5.3-5.1c2,3,4.3,5.7,7,8.1c-5.1-2.4-10.1-4.7-15.2-7.1
	c2,2.9,4.4,5.5,7.2,7.6c-2.9-1.8-5.9-3.7-8.8-5.5c-0.4,2.1,1.1,4.4,3.2,4.8c0.3-1.1,0.2-2.3-0.4-3.2c-3.1,4.6-4.8,10.1-4.7,15.6
	c0,2.3,0.5,4.9,2.3,6.4c3.5,3,8.7,0,12-3.2c3.3-3.1,7.8-6.8,11.9-4.8c-6.1-0.2-12.1,3.5-14.6,9.1c-2.4,5.6-1.1,12.6,3.2,16.9
	c-4.3-5.2-2-13.6,3.4-17.7s12.5-4.8,19.2-4.3c9.4,0.7,19.2,3.7,25.6,10.7c3.5,3.8,6.7,9.1,11.8,9.2c-3.2-0.2-6.2-2.1-9.4-2.1
	c-1.6,0-3.2,0.5-4.8,1c-13.8,4-28.9,3.2-42.2-2.2c-0.8-0.3-1.6-0.7-2-1.5c-0.4-0.8,0-1.8,0.4-2.6c4.5-8.8,15.1-14.1,24.8-12.3
	c-9.5,0.8-20.5,2.5-25.4,10.7c4.9-5.7,11.9-9.5,19.3-10.7c1.9-0.3,3.8-0.4,5.7,0.1c5.9,1.7,7.7,10.4,3.7,15.1
	c-4,4.7-11.7,5-16.9,1.6c-1.5-1-2.9-2.3-3.8-4c-1.8-3.6-0.1-8.5,3.5-10.2s8.5-0.1,10.2,3.5c0.9,1.9,1,4.4-0.3,6.2
	c-1.3,1.7-4,2.3-5.7,1c-2.8-3.1,0.8-9,4.8-8.1c1,2.9-2.1,6.3-5.1,5.5c-0.2-1.8,0.6-3.7,2.1-4.8c1.6,1.7,1.7,4.5,0.4,6.3
	c-0.6-1.1-0.6-2.5,0-3.6c0.6,0.6,0.9,1.6,0.8,2.4c0.5-0.8,0.6-1.9,0.3-2.8c-1,0.2-1.8,1.1-1.8,2c1.5,0.3,3.1-0.8,3.4-2.3
	c-1.8-0.2-3.4,2-2.6,3.6c2.7-0.3,3.3-5,0.7-5.9s-5.1,3.1-3.2,5.1c2.4,1.9,6.5-1.3,5.5-4.2c-1-2.9-5.6-3.5-7.6-1.1
	c-2,2.4-1,6.4,1.6,8.1c2.6,1.7,6.3,1.1,8.7-0.9c0.7-0.6,1.4-1.4,1.7-2.3c1.1-3.2-3-6.4-6.2-5.2c-3.2,1.1-4.6,5.1-4,8.4
	c3,0.4,6.7,0.6,8.6-1.8c2.6-3.2-0.8-8.4-4.9-8.9s-7.9,2.2-10.8,5.1c2.3,5.5,11.3,6.4,14.6,1.5c0.6-0.9,1-1.9,0.9-3
	c-0.3-2.9-4.4-3.9-6.9-2.3c-2.4,1.6-3.5,4.6-4.4,7.3c2.5,3.5,7.5,5.2,11.3,3.2c3.8-2,5.1-7.8,2-10.8c-3.1-3-9.4-0.8-9.5,3.5
	c2.2,1.3,5.4,1,6.8-1.1c1.4-2.1-0.4-5.7-2.9-5.4c-1.2,0.1-2.1,1-2.9,1.9c-2.3,2.5-4,5.5-4.9,8.8c1.6,0.3,3.1,0.7,4.7,1
	c-2.2-0.1-4.4,0.8-5.9,2.4c2.3,2.2,6,2.8,8.9,1.5c0-1.1-1.1-2.2-2.2-2.1s-2.1,1.3-1.9,2.4c1.1,1.5,4.1,0.9,4.4-1
	c-0.9-0.7-2.3-0.5-3.1,0.3c2.1,1.5,5.4,1.2,7.2-0.7c-1-1.2-3.3-0.4-3.5,1.2c2.6,0.2,5.2-2.2,5.1-4.8c-2-1.1-4.5,1.9-3.2,3.7
	c2.4,0.2,4.9-1.1,6.2-3.2c0.1-1.5-1.6-2.9-3.1-2.3c1.5,0.4,3.1-1.2,2.8-2.6c-0.3-1.5-2.3-2.3-3.5-1.5c1.3-0.6,1.5-2.6,0.5-3.5
	c-1.3,0.6-0.5,3,0.9,2.7c-0.6-3.1-4.2-5.2-7.2-4.1c-3,1-4.5,4.9-3.1,7.7c-0.2-2.2-3.6-3.2-4.9-1.5s0.4,4.8,2.5,4.5
	c-1.2-0.7-2.6,1-2.2,2.3s1.9,2,3.3,2.3c5.2,1.4,11,0.4,15.4-2.6c-5.9,2.6-13.4,4.5-18.4,0.5c4.7,4.4,11.9,6,18,4
	c0.3-2.4-1.3-4.9-3.6-5.6c2.3-2,0.1-5.8-2.3-7.6c-5.6-4-13.2-5.5-19.5-2.7c-6.3,2.8-10.4,10.3-8.4,16.9c1.4,4.5,5.3,7.9,9.6,9.9
	s9.1,2.6,13.8,3.3c-6,1.6-11.9-2.2-16.9-5.7c4.7,3,9.8,5.4,15.2,7c-11-0.1-21.2-8.7-23.4-19.4"/>
</svg>
