<?xml version="1.0" encoding="utf-8"?>
<!-- Generator: Adobe Illustrator 19.1.1, SVG Export Plug-In . SVG Version: 6.00 Build 0)  -->
<svg version="1.2" baseProfile="tiny" id="Слой_1"
	 xmlns="http://www.w3.org/2000/svg" xmlns:xlink="http://www.w3.org/1999/xlink" x="0px" y="0px" viewBox="0 0 595.3 841.9"
	 xml:space="preserve">
<path fill="none" stroke="#000000" stroke-linecap="round" stroke-linejoin="round" stroke-miterlimit="10" d="M207.9,297
	c17.4,3.8,35.2,5.7,53.1,5.8c-0.1-1,0.3-2,1.1-2.6c0,2.1-0.1,4.1-0.1,6.2c0.6-2.1,1.3-4.2,1.9-6.3c-0.8,0-0.7,1.5,0.1,1.6
	s1.4-0.8,1.3-1.6c0.2,1.7,0.4,3.5,0.6,5.2c0.2-0.9,0.6-2,1.5-2.2c0.9-0.2,1.5,1.6,0.6,1.6c0.5-0.9,1-1.7,1.5-2.6
	c-0.9-0.1,0.3,1.3,1,0.8s1.7-1.6,2.2-0.8c0.1-5.1,3.8-9.5,8.1-12.2c11.8-7.6,29.3-4.4,37.7,6.9c-4.5,1.5-9,3.1-13.5,4.6
	c-1.3,0.4-2.7,0.9-4.1,0.8c-1.8-0.2-3.4-1.3-4.9-2.2c-4.7-2.9-10.1-4.7-15.6-5c-1.3-0.1-2.7-0.1-3.8,0.6c-0.8,0.5-1.3,1.3-1.8,2.2
	c-1.8,3.4-2.5,7.5-1.8,11.3c8.4,3.8,19,2,25.8-4.3c0.5-0.5,1-1.1,1-1.8c0-0.9-0.9-1.6-1.7-2.1c-4.1-2.3-8.5-4-13.1-5
	c-2.1-0.5-4.7-0.6-6.1,1.1c-1,1.3-0.8,3.1-0.3,4.6c1.5,4.4,5.8,7.6,10.4,7.7c0.8-2.8,1.7-5.6,2.5-8.4c0.2-0.6,0.4-1.3,0.1-1.9
	c-0.4-0.9-1.5-1-2.5-1c-2.4-0.1-4.8-0.2-7.2-0.3c-0.8,0-1.6,0-2.3,0.4c-0.7,0.5-1,1.4-1.1,2.2c-0.4,3.6,2.4,7.3,6,7.6
	c3.6,0.3,7-3.3,6.2-6.8c-0.6-2.7-3.2-4.5-5.9-5.1c-2.7-0.5-5.5,0-8.2,0.5c-1,2.9-0.8,6.4,1,8.9c1.8,2.5,5.3,3.9,8.2,2.7
	c2.9-1.2,4.4-5.1,2.7-7.7c-2.3-1.7-6.1-1.9-7.9,0.3c-1.9,2.4-0.3,6.5,2.7,7.1c3,0.6,6-2.5,5.5-5.5s-4.2-4.9-7-3.7
	c-0.5,1.8-0.7,3.7-0.5,5.6c2.2,0.8,4.7,0.8,7,0.1c0.8-2.8-3.1-5.6-5.5-3.8c-0.3,0.8-0.5,1.6-0.8,2.4c2.1,0.3,4.1,0.6,6.2,0.9
	c-1.5-2.1-4.9-2.6-7-0.9c2.4-0.3,1.7-4.4-0.6-5.3s-4.8-0.1-7.2-0.6c-3.2,6.3-0.6,14.4,4.6,19c5.2,4.7,12.5,6.4,19.6,6.6
	c4,0.1,8.1-0.3,11.5-2.3c7.6-4.4,9.1-14.7,8.8-23.5c1.5-0.1,3.1-0.2,4.4,0.6c1.3,0.8,1.8,2.9,0.6,3.8c4.8-2.1,10.3-1.7,15.5-0.6
	c5.6,1.2,11,3,16.2,5.6c9.3-4.6,20.5-4.8,30-0.7c3.6,1.6,7.1,3.8,9.2,7.1s2.9,7.7,1.1,11.2c-4.3-3.5-8.1-7.5-11.5-12
	c-1.6-2.1-3-4.3-5.1-6c-5-4.2-12.4-4.1-18.6-2c-2.1,0.7-4.3,1.8-5.2,3.9c-1.5,3.4,1.5,7.2,4.7,9.2c4.2,2.6,9.3,4,14.3,3.9
	c5.3-0.2,11.7-3.8,10.7-9c-0.6-3.4-4.2-5.5-7.6-6s-6.9,0.1-10.3-0.2c-0.7,4,2.4,8.5,6.5,8.3c4-0.2,6.3-6.5,2.9-8.7
	c-1.1-0.7-2.5-0.9-3.8-1c-2.2-0.2-4.6-0.4-6.7,0.5c-2,1-3.5,3.5-2.4,5.5c0.8,1.6,2.8,2.1,4.6,2.4c1.6,0.3,3.2,0.4,4.7-0.2
	c2.7-1.1,3.7-4.9,2.2-7.3s-5.2-3.1-7.7-1.6c-2.6,1.6-3.5,5.4-2,8.1c1.5,2.7,5.3,3.7,8,2.3c1.9-1.7,2.7-4.8,1.3-7
	c-1.4-2.2-5-2.7-6.6-0.7s0.1,5.8,2.7,5.4c2.6-0.3,2.8-5,0.3-5.4c-1.1,0-1.8,1.5-1.1,2.4c0.6,1,2.4,0.8,2.8-0.3c0-2.2-4.1-2-4.4,0.2
	c-0.3,2.2,2.2,4,4.4,3.9c0.8,0,1.7-0.2,2.3-0.9c1.2-1.3,0-3.6-1.7-4.1c-1.7-0.5-3.5,0.1-5.2,0.7c1.3,1.3,4-0.2,3.5-2
	c-1-0.2-2.1,0.7-2,1.8c0.1,1,1.3,1.8,2.3,1.4c-1-0.7-2.1-1.5-3.1-2.2c-1.5-1.1-3.1-2.2-4.9-2.7c-3.5-1.1-7.3,0.1-11,0.2
	c-3.7,0.1-8.1-2-8.1-5.7c0-2,1.4-3.8,2.9-5.2c6.9-6.6,17.1-9.5,26.4-7.5c9.3,2,17.4,9,20.9,17.8c-8-6.2-16.8-12.6-26.9-12.6
	c-5.9,0-11.7,2.3-15.9,6.3c2.9-4.5,8.3-6.9,13.5-7.4c5.3-0.5,10.6,0.6,15.8,1.7c-5.9-2-12-4-18.3-3.7c-6.2,0.3-12.7,3.6-15.1,9.4
	c4.4-3,8.9-6.1,14-7.7c5.1-1.6,11-1.6,15.5,1.4c-11-1.1-23.2-1.9-32.2,4.6c7.4-1.8,15-2.6,22.5-2.4c-5.4,2.7-11,4.8-16.9,6.2
	c8.6-7.4,21.4-9.6,32-5.4c-7.4,1.4-14.9,2.6-22.5,3.5c10.8-4.9,24.8-1.5,32.2,7.8c-5.8-1.8-11.3-4.3-16.4-7.5
	c8.1-2.1,15.8,4.1,21.9,9.9c-4.9-6.9-12.1-12.2-20.2-14.7c5.1,0.4,10,2.7,13.4,6.4c-6.3-7.1-15-14-24.3-12
	c9.9-0.1,19.8,5.1,25.3,13.4c-7.8-5.1-16.2-9.9-25.5-10.8c-9.3-0.9-19.6,3.3-23.3,11.9c-6.2-2.3-12.9-3.4-19.5-3.2
	c-2.4-11-14.3-18-25.6-18s-21.8,5.6-31,12.1c9.1-9.2,22.3-14.3,35.3-13.5c-11.1,3-21.9,7.1-32.2,12.2c3.3-6.3,9.7-10.9,16.8-12
	c-9.2,0.4-17.8,6.6-21.2,15.1c1.4-4.8,5.6-8.5,10.2-10.4s9.7-2.5,14.7-3c4.9-0.5,9.7-1,14.6-1.5c3.1-0.3,6.2-0.6,9.2,0.1
	c3,0.7,5.9,2.7,6.8,5.6c-7.6-2.2-15.2-4.6-22.7-7.1c6.1,1.2,12.2,2.4,18.3,3.6c3.4,0.7,7.7,3,6.5,6.2c-3.1,0.7-6.5-0.6-8.4-3.2
	c4-0.9,8.3-0.6,12.1,1c-5.9-1.6-11.7-3.2-17.6-4.9c-6.9-1.9-14.9-3.6-20.5,0.8c10.8-7.1,26.4-6,36.1,2.7
	c-18.9-10.8-44.3-8.6-61.1,5.2c14.7-7.1,30.4-13.4,46.7-12.5c1.8,0.1,3.9,0.4,4.8,2c-6.2,2.9-13.6,0.3-20.5,0.6
	c-9.8,0.4-18.2,6.6-26,12.6c1.1-2.3,2.7-4.4,4.7-6.1c-1.4,4.1-4.7,7.5-8.8,9.1c8.7-5.9,17.6-11.9,27.8-14.4
	c10.2-2.5,22.1-0.7,29.2,7.1c-4.8-1-9.6-1.9-14.3-2.9c5.8-1.2,12.2,0.7,16.4,4.9c-1.7,0.5-3.6-1.1-3.5-2.8c3.9-2.4,7.5,7.8,11.1,5.1
	c-2.4,0.1-4.8,0.2-7.1,0.2c0,2.1,0.1,4.1,0.1,6.2c6.6-1.1,13.4-0.5,19.7,1.7c1.2,0.4,2.5,0.9,3.8,0.7c1-0.2,1.9-0.8,2.8-1.4
	c12.5-8.1,30.2-7.2,41.9,2.2c0.5,0.4,1,0.9,1,1.5c0,0.6-0.9,1.2-1.3,0.7c1.3,0.1,0.4-2.1-0.8-2.6c-13.5-5.8-27.9-9.8-42.5-11.8
	c-3.8-0.5-9.1,0.2-9.5,4c2.8,0.2,5.7,0.3,8.5,0.5c1.7,1.6-3.4,4.2-2,6.1c0.3,0.4,0.9,0.6,1.4,0.7c3.4,0.9,6.8,1.7,10.3,2.6
	c-2.7,0.1-5.4,0.2-8.1,0.2c0.6,1.6,1.2,3.2,1.8,4.7c1.3-0.8,2.2-2.2,2.3-3.7c-2.4,10.1,2.7,21.5,11.9,26.4s21.5,2.7,28.5-5
	c1.1-1.2,2.2-2.6,3.9-2.8c-0.2-1.2-0.4-2.5-0.6-3.7c0,1.5,0.9,2.9,2.2,3.6c2.5-0.2,4.8-1.8,5.9-4c-0.8,2.7-2.2,5.2-4.1,7.2
	c1.5-1.2,3.4-1.8,5.3-1.8c-3.8-0.4-7.7-0.8-11.5-1.3c2.8-5.4,0-12-3.7-16.8c-4.1-5.2-9.3-9.5-15.3-12.1c-5.5-2.4-11.5-3.5-17.5-3.7
	c-2.1,0-4.2,0-6.1,0.9c-3.9,1.9-5.3,6.9-5,11.2s1.9,8.5,2.2,12.8c0.4,5.2-1.1,10.4-1.2,15.6c-0.3,10.8,5.1,21.1,5.8,31.9
	c0.1,1.9-0.2,4.2-1.9,5.1c1.5-2-0.8-5-3.2-5.4c-2.5-0.4-4.9,0.6-7.4,1.1c-7.5,1.2-16.6-3.2-22,2.2c-0.7,0.7-1.3,1.7-1.2,2.7
	c0.2,1,1.4,1.7,2.2,1.1c-4.3,0.8-9-1.6-10.9-5.5c-1.9-3.9-0.9-9.1,2.4-12c-4.5,5.2-3.3,14.4,2.5,18.2c0.9,0.6,2.1,1.1,3.1,0.5
	c1-0.6,1.1-1.9,1.6-3c0.5-1.1,2.2-1.8,2.6-0.7c-0.3,1.3,1.4,2.5,2.6,1.8c0.4-1.2,0.1-2.5-0.8-3.4c1.6,1.5,4.3,1.7,6.1,0.4
	c-0.9-0.2-1.6-1.1-1.6-2.1c3-0.8,6.2,0.7,9.2,1.6c3,0.9,6.8,1.1,8.8-1.4c1.7,2.6,5.3,3.5,8,2.1c-2.8-1-5.8-1.4-8.7-1
	c1,0.5,2.3,0.4,3.3-0.2"/>
<path fill="none" stroke="#000000" stroke-linecap="round" stroke-linejoin="round" stroke-miterlimit="10" d="M192,331.6
	c1.9,1.7,3.8,3.3,5.6,5c1.6,1.4,3.2,4,1.6,5.3c-1.6,1.3-3.8-0.6-5.6-1.7c-3.3-1.8-7.9-0.4-10.9-2.8c-2.1-1.7-2.5-4.8-2.4-7.5
	c0.1-2.8,0.6-5.6,2.3-7.8s4.9-3.4,7.3-2.1c0,0.6,0,1.2,0,1.9c-1.3,1.4-4.3,2-4.8,0.1c-0.5-1.8,2-2.8,3.9-2.8
	c0.9,0.5,1.1,1.8,0.7,2.7s-1.3,1.6-2.1,2.2c-1.1,0.7-2.3,1.4-3.5,0.9c-1.2-0.4-1.6-2.5-0.4-2.9c4.8-0.2,9.6-0.1,14.3,0.2
	c-2.3,2.6-6.2,3.7-9.5,2.6c-1.5-2.3,0.3-5.8,3-6c0.7,3-1.5,6.4-4.6,7c-1.1,0.2-2.5-0.1-3.1-1.1c-0.7-1.4,0.6-3,1.9-3.9
	c1-0.7,2.1-1.2,3.2-1.1c1.2,0.1,2.3,1.3,2,2.4c2.5-1.3,5.5-1.9,8.4-1.4c0.8-1.7-0.6-3.5-1.9-4.8c-7.7-7.1-19.1-10-29.2-7.4
	c-3.2,0.8-6.5,2.2-9.7,1.5c-3.2-0.6-5.9-3.4-6.4-6.7c2,4.4,8.7,5.5,12.1,2.1c-0.3,2-2.9,2.4-4.8,2.4c-1.4,0-2.8,0-4.1-0.6
	c-1.3-0.6-2.3-1.8-2.2-3.2c0.2-2.1,2.9-3,4.8-2.4c2,0.6,3.4,2.3,5,3.6c7,6.1,18.6,6.2,25.5,0c-8.6,1.1-17.4,1.3-26.1,0.6
	c-0.6-0.1-1.3-0.2-1.6-0.7c-0.4-0.7,0.2-1.5,0.9-1.8c0.7-0.3,1.5-0.1,2.2,0.1c7.5,1.8,14.9,3.6,22.4,5.4c-2.2-0.1-4.4-0.2-6.6-0.3
	c2.4-0.7,5-1.4,7.5-0.8c2.6,0.6,4.8,2.8,5.5,5.4c0.1-1.2-0.3-2.4-1.2-3.2c4.9,0.8,9.6,2,14.3,3.7c0,0.7,0,1.3,0,2
	c-5.1-1-10.2-2-15.3-2.9c4.4,2.2,9.1,3.8,13.9,4.7c-0.6-1.1-1.3-2.2-1.9-3.4c1.6,0,3.1-1.6,2.9-3.2c-4.4,0.1-8.8,0.2-13.3,0.3
	c-1.1,0-2.2,0-3.2-0.4c-1-0.5-1.7-1.6-1.3-2.6c0.4-1,1.7-1.4,2.7-1.8c1-0.4,2.1-1.5,1.6-2.5c-0.5-1-2-0.8-3.1-0.5
	c-7,2.1-14.7,1.8-21.6-0.7c-4.5-1.6-9.1-5-9.3-9.8c1.9,3.5,6.4,5.3,10.2,4.1c-2.8,0.8-5.7,1.6-8.6,1.1s-5.7-2.7-5.8-5.6
	c6.3,3.3,13,5.7,19.9,7c2.1,0.4,4.4,0.8,6.5,0.2c2.1-0.5,4.1-2,4.6-4.2c-7,2.2-14.5,2.5-21.8,2.3c-1.3,0-2.7-0.1-3.8-0.9
	c-1.1-0.7-1.7-2.4-0.8-3.4c8.9,3.7,18.3,6.1,27.8,7.1c2.8,0.3,5.7,0.4,8.1-1c2.4-1.4,3.7-4.9,2-7c-1.3,1.6-3,2.9-4.8,3.8
	c-3,1.5-6.4,2-9.8,2.4c-5.4,0.6-10.7,0.9-16.1,0.9c-2.4,0-5-0.2-6.6-1.9c5.3-0.6,10.6,1.5,15.9,1.6c5.9,0.1,11.9-2.5,15.8-7
	c-4.3,2-9.1,2.9-13.8,3.7c-4.5,0.8-9.1,1.6-13.7,1.1s-9.2-2.5-11.9-6.2c3.5-0.9,7.1,0.7,10.6,1.8c5.3,1.7,11,2.2,16.4,0.8
	s10.4-4.6,13.2-9.4c-6.6,5.9-15.9,7.7-24.8,7.7c-4.2,0-8.8-0.5-11.9-3.4c-1.1-1-2-2.3-2-3.8s1.1-3,2.6-3c1.9,0,3,2.1,4.2,3.7
	c2.8,3.6,7.9,4.2,12.5,4.5c4.3,0.3,8.7,0.6,12.9-0.4c4.2-1,8.3-3.5,10-7.4c-1,4.1-6,5.5-10.2,6c-10.4,1.2-20.9,1.5-31.4,0.7
	c-0.6-1.6-1.2-3.2-1.8-4.9c13.5,8.7,32.3,8.4,45.5-0.8c1.3-0.9,3.2-1.8,4.2-0.6c0.8,1,0.1,2.4-0.7,3.4c-6.8,9.1-18.2,14.7-29.6,14.3
	c16.4,2.8,34-6.5,41.1-21.5c-7.7,8.7-17.2,17.3-28.8,18c5.4,1.5,11,3,16.6,2.3c5.6-0.7,11.2-4.2,12.7-9.7c-2.6,1.8-4.7,4.2-7.1,6.2
	c-5.5,4.4-13,6.2-19.8,4.7c5.3,0.8,10.9,0.6,15.8-1.6c4.9-2.2,9-6.6,10.1-11.9c-3.7,5.9-10.1,9.6-16.6,12.2
	c-4.1,1.7-8.8,3.3-10.8,7.3c8.2,3.2,18.5-0.3,23-7.8c-5.9,5.2-12.8,9-20.3,11.3c3.3,0.7,6.6,1.3,9.9,0.8c3.3-0.5,6.6-2.3,7.8-5.4
	c0.9-0.6,2.1,0.4,2.1,1.5s-0.8,1.9-1.6,2.6c-2.3,2.1-4.7,4-7.3,5.7c3.6-1.4,6.6-4.2,8.4-7.6c1,2.7,0.9,5.8-0.4,8.4
	c1.2-1.2,2.3-2.4,3.5-3.6c-1.3,3.4-2.7,6.8-4,10.2c0.3-2.2,1.3-4.3,2.8-5.9c-0.4,2-0.8,4-1.2,6c1.9-0.3,3.5-1.9,3.7-3.8
	c-3.2,0.1-6.1,3-6.2,6.2c1.7-3.7,2.2-8,1.2-12c2.2-1.8,4.6-4.8,2.9-7c-1.9-2.4-6-0.3-8.8-1.7c4.8-4.2,8.4-9.6,10.3-15.6
	c-6.7,6-14.9,10.4-23.7,12.6c5.1-3.8,12.1-4.3,17.2-8.1c2.3-1.7,4-4,5.7-6.3c6.1-8.2,12.5-16.9,13.5-27c0.1-1.1,0.2-2.3,0.7-3.2
	c1.1-1.9,3.7-2.2,5.9-2.3c-0.5,1.8-1,3.5-1.5,5.3c-1.5-0.5-2.2,1.6-2.4,3.1c-1.5,13-12.3,24.4-25.3,26.5
	c10.4-4.6,19.6-13.5,21.3-24.8c1.3-8.5-1.6-17.6,1.7-25.5c-0.5,3.5-1.9,6.9-3.3,10.2c-3.6,8.5-7.2,17.1-12.8,24.5
	c-5.6,7.4-13.3,13.6-22.4,15.3c1.2-3.2,5.5-3.4,8.8-4.4c7.7-2.1,12-10.2,14.8-17.7c3-8.2,5.3-16.7,6.7-25.3
	c-5.5,6.9-11.2,13.7-16.9,20.4c-3.9,4.5-7.8,9.1-12.9,12.3c-7.5,4.7-16.7,6-24.4,10.4c12.2,1.7,24.5-4.7,32.9-13.8
	c8.4-9.1,13.7-20.5,18.8-31.7c-4.2,11.4-12.9,20.7-22.9,27.6c-10,6.9-21.3,11.6-32.7,15.9c8.8,2.6,18.2,3.6,27.4,2.8
	c2.3-0.2,4.6-0.5,6.8-1.2c7.8-2.3,14-8.4,18.1-15.4c4.1-7,6.3-14.9,8.5-22.7c-8.9,16.5-23.3,29.9-40.2,37.9
	c8.4-0.1,17.6-0.8,23.5-6.7c4.6-4.6,6.1-11.2,7.5-17.5c-3,6-6.1,12.1-10.6,17.2c-4.5,5.1-10.6,9-17.3,9.5c5.2-3,10.3-6.1,15.5-9.1
	c3.5-2.1,7.1-4.2,10.2-6.9c6.6-5.8,10.5-14,14.3-22c4.7-9.9,9.4-20.2,9.8-31.2c-6.2,2.7-9.8,9-13.2,14.8
	c-5.2,8.8-10.8,17.3-16.8,25.4c-2.8,3.8-5.8,7.6-9.6,10.5c-4.2,3.1-9.1,5-14,6.9c7.3-7.7,19-10.1,26.3-17.9
	c7-7.4,8.8-18.2,10.2-28.4c-6.3,8.4-12.7,16.8-19,25.3c-3.3,4.4-6.7,8.9-10.7,12.7c-4.5,4.3-9.7,7.8-14.9,11.2
	c-1.8,1.2-3.7,2.4-5.8,3c-2.1,0.6-4.6,0.4-6.2-1.1c10.2,0.7,19.8-5.4,26.2-13.4c6.3-8,9.9-17.7,13.4-27.3
	c-3.1,7.8-7.4,15.3-13.4,21.1c-6.1,5.8-14,9.9-22.4,10.5c-0.7,0-1.4,0.1-2-0.3c-0.7-0.4-1-1.2-1.2-2c-1.3-4.5-1-9.5,0.9-13.8
	c-1.3,3,0.6,6.7,3.5,8.4c2.8,1.7,6.3,2,9.6,2.3c1.8,0.1,3.8,0.3,5.5-0.4c3.3-1.2,4.9-4.7,6.3-7.9c4.2-9.7,8.4-19.4,12.5-29.1
	c-3.5,13.8-10.7,26.7-20.7,36.8c-1.4,1.4-2.9,2.8-4.9,3.2c-4,0.8-7.2-3-9.5-6.4c-0.8,1.9,0.2,4.2,1.8,5.5s3.7,1.9,5.7,2.4
	c4.2,1,9.2,1.6,12.1-1.6c-5,2.9-10.6,4.9-16.4,5.8c-2.2,0.3-4.6,0.5-6.7-0.3c-2.1-0.8-3.9-2.9-3.7-5.1c1.2,2.8,4.4,4.1,7.4,5
	c4.3,1.3,8.7,2.2,13.2,2.9c1,0.1,2.1,0.3,3-0.2c0.9-0.4,1.5-1.7,0.9-2.5c-3.2,0.7-5.8,2.8-8.6,4.3c-4.3,2.3-9.2,3.2-14,2.5
	c-0.6-0.1-1.3-0.2-1.8-0.6c-0.5-0.5-0.7-1.2-0.8-2c-0.3-2.3-0.2-4.6,0.2-6.9c4.9,6.1,13.2,9.3,20.9,8c0.3-0.9,0.3-1.9,0-2.7
	c-4.2,1.8-8.8,2.9-13.4,3.2c-1.5,0.1-3,0.1-4.3-0.7c-1.3-0.7-2.1-2.4-1.5-3.7c8.9,4.4,20.2,5.4,28.3-0.2c3-2.1,5.5-5,7.8-7.8
	c6.7-8,13.3-16,20-24c2.8-3.4,5.8-7.5,4.7-11.8c-2.9,3-4.4,6.9-6,10.7c-3.4,7.7-7.6,15.1-12.6,21.8c-3,4.1-6.4,8-10.8,10.4
	c-4.8,2.6-10.6,3.1-15.3,6.1c3.9-8.8,13.6-13.2,21-19.3c13-10.6,20.1-28.1,18.2-44.7c-2.8,3.6-4.4,7.9-6.4,12
	c-6.4,13.2-17.4,23.5-28.1,33.5c2.4-2.8,4.1-6.1,5-9.6c2.3-9.1-0.7-19.7,4.6-27.4c1.9-2.8,4.8-4.9,7.5-6.9
	c7.5-5.4,14.9-10.8,22.4-16.2c-3-1.6-6.9-1-9.9,0.7c-3,1.7-5.3,4.4-7.6,7c-2.8,3.2-5.6,6.5-7.3,10.4c-1.7,4-2.2,8.4-2.5,12.8
	c-0.6,9.4-0.6,19.3-4.9,27.7c0.8-10.8,2.3-22.1,8.3-31.1c6.1-9.1,16.1-14.8,25.7-20.1c-8,1.9-16.8,4.4-21.2,11.4
	c-1.2,1.9-1.9,4.1-2.7,6.2c-1.2,3.5-2.4,6.9-3.6,10.4c-1.9,5.3-3.7,10.7-4.6,16.2c-2.2-6.7-3.3-13.6-3.5-20.6c-0.1-4.5,0.4-9.3,3-13
	c1.4-2,3.4-3.5,5.4-5.1c6.7-5.2,13.5-10.4,20.2-15.6c-3.5-1.1-7.4,0.2-10.4,2.2c-3.2,2.2-5.8,5.4-7.3,9c-1.4,3.4-1.9,7.1-3,10.6
	c-1.2,3.8-3.2,7.3-4.6,11.1c-3.5,9.3-3,19.6-2.6,29.5c-0.5-7-1-13.9-1.5-20.9c-0.5-7.1-0.9-14.6,2.5-20.8c2.3-4.1,6-7.1,9.9-9.7
	c6.3-4.2,13.2-7.4,20.4-9.7c-4.8-0.7-9.6,2.2-12.5,6.1c-2.9,3.9-4.3,8.7-5.4,13.5c-3.6,15.3-5.2,31-6.7,46.6
	c-2-8.2-2.8-16.8-1.1-25.1c1.7-8.3,5.8-16.2,12.4-21.5c4.8-3.9,11.2-6.8,12.9-12.8c-7.8,4.2-13.9,11.1-18.5,18.6
	c-4.6,7.6-7.8,15.9-11,24.1c12.5-7.7,19-22,26.1-34.8c2.9-5.2,6.5-10.6,12.1-12.5c-3.9,1.9-7.7,3.8-11,6.5c-3.3,2.8-6,6.4-6.7,10.7
	c-0.1,0.4-0.1,1,0.2,1.3c0.3,0.4,0.9,0.4,1.5,0.4c8.3-0.7,16.3-5,21.4-11.5c2.4-3,2.8-7.6,4.4-11.1c-14.6,13.4-29.1,26.8-43.7,40.2
	c11.8-8.1,22.4-18.1,31.3-29.4c-7.5,14.8-17.9,27.8-28.3,40.7c16.6-17,32.8-34.5,48.4-52.3c-9.6,6.4-18.2,14.2-25.6,23
	c-2.2,2.6-4.3,6.5-2.3,9.2c17.9-7.2,26.7-27,39.7-41.2c10.9-12,25.6-20.5,41.5-24.1c-15-0.3-29.3,6.7-40.7,16.3
	s-20.4,21.8-29.2,33.9c8.5-20.5,27.5-34.7,46.9-45.5c-14.7,0.7-29,7.3-39.1,17.9c-8.2,8.7-13.8,20-23.4,27.1
	c0.4-4.5,4.5-7.6,8.1-10.1c14.3-9.8,28.6-19.7,42.9-29.5c-21.5,4.3-39.5,18.4-56.6,32.1c-0.7-5.3,5.7-8.3,10.6-10.3
	c8.9-3.6,17.1-9.2,23.6-16.3c-10.2,6-20,12.6-29.5,19.7c16.3-18.9,41.1-27.8,64.6-36c-11.5-0.2-21.6,7-30.7,13.9
	c-5.9,4.4-12,9-16.2,15.1c-3.8,5.5-6.1,12.3-11.1,16.8c13.5-13.9,29.2-25.7,46.1-35.1c-11.1,3.5-21.8,8.4-31.8,14.4
	c-4.1,2.5-8.2,5.2-10.8,9.2c-2.5,3.8-3.4,8.4-4.7,12.8c-2.8,9.6-7.4,18.6-13.6,26.5c20.3-9.9,37.3-26.4,47.9-46.3
	c-17.9,11.1-32,28.2-39.5,47.8c17.6-16.6,33.4-35.2,46.8-55.4c-10.5,3.2-18.8,11.3-25.1,20.3s-10.9,19-16.9,28.2
	c-5.5,8.6-12.5,17.8-11,28c17.7-9.2,30.1-27.9,31.8-47.8c-6.8,3.1-10.5,10.4-13,17.5c-2.4,7.1-4.1,14.6-8.7,20.5
	c7.1-7.9,13.2-16.8,17.9-26.2c-4.3,5.8-8.4,11.7-12.4,17.8c9.3-21.7,23.7-40.8,37.9-59.6c-14.7,8.6-27.4,20.7-36.6,35
	c4.3-9.3,8.6-18.8,14.8-27s14.6-15.1,24.5-17.8c-15.4,11-30.1,22.9-44,35.6c6.8-17.2,21.4-31.1,38.9-37.2c8.2-2.8,17-4.1,24.3-8.7
	c0.4,4.3-0.6,8.7-2.9,12.3c0.1-1.2-0.4-2.4-1.3-3.1c5.8-3.9,12.9-5,19.8-5.9c14.2-1.9,28.6-3,42.9-3.5c-22.2-1.3-44.5,1.2-65.9,7.1
	c-1.6-3.7,3.5-6.7,7.5-7.4c13.2-2.5,26.8-3.1,40.2-1.9c-12.8-0.5-26.3-0.7-37.5,5.5c-4.8,2.7-9.7,6.7-15.1,5.7
	c18.9-9.5,40.8-12.8,61.7-9.3c-20.1,1.6-40.2,3.2-60.3,4.8c18.6-7.5,39-10.7,59-9.3c-20.1,2.4-40,6.2-59.6,11.3
	c0.8-3.6,4.6-5.6,8.1-6.9c11.3-4,23.4-5.3,35.3-3.9c-24.4-2.8-49.7,3.9-69.5,18.4c4.1-7.5,13.3-10.8,21.8-11.7
	c8.5-0.9,17.3-0.3,25.5-2.9c-19.8,0.5-39.4,7.7-54.8,20.2c12.8-7,26.7-11.9,41.1-14.5c-8.8,8.7-19.4,15.5-30.9,20
	c7.4-6.3,15.5-11.8,24.1-16.4c-2.3,5.5-7.9,8.8-13.2,11.7c-13.2,7.3-26.4,14.6-39.6,21.9c11.5-10.3,25.4-17.9,40.2-22
	c-9,6.5-18,13.1-27,19.6c-3.3,2.4-6.8,5.1-8.2,9c9.2-8.2,18.9-15.8,29-22.9c-4.9,8.7-10.7,16.8-17.4,24.2c-3.2-3.1-0.1-8.5,3.1-11.6
	c21.1-20.9,49.4-35.1,79.1-36.4s60.3,11.5,77.8,35.5c-12.1-11-24.6-22.1-39.9-28.1c-11.5-4.4-23.9-5.7-36.1-6.8
	c16-6.7,34,1.5,49.4,9.5c-16.3-7-33.6-11.8-51.2-14.4c14.8-3.6,31-1.1,44.1,6.8c-14.9-3.1-29.8-6.3-44.7-9.4
	c15.2,0.1,30.3,3.8,43.8,10.7c-11.6-2.3-22.9-5.6-33.9-9.9c8.9-1.5,17.9,1.5,26.5,4.4c10.6,3.6,21.2,7.3,31.7,10.9
	c-9.7,0.2-19.4-2.5-27.7-7.6c10,4.4,19.4,10.1,27.9,17c-11.3-3.8-22.3-8.8-32.7-14.8c14.1,6.6,28.1,13.2,42.2,19.8
	c-7.7,0.4-15.6-2.8-20.8-8.5c8.9,5.9,17.9,11.7,26.8,17.6c-8.7-5-17.4-10-26.1-15.1c10.7,5.5,20,13.7,27,23.5
	c-3-6.7-8.4-12.3-15.1-15.3c3.8,3.4,7.6,6.8,11.4,10.2c1.5-3.8-1.8-7.7-5-10.2c-7-5.4-15-9.5-23.5-11.8c11.1,5.5,21,13.3,28.9,22.7
	c0.7-6.2-4.9-11.1-10.1-14.4c-7.8-5-16.1-9.4-24.7-13c8.6,1.5,16.8,5,23.8,10.1c-8.1-9.2-19.9-14.9-32.1-15.6
	c8,2.5,15.8,6.1,22.9,10.5c-20.3-17.9-49.4-25.4-75.8-19.6c9.3-5.2,20.6-4.8,31.3-4.2c-13.7-1.4-27.7-0.2-41,3.5
	c21.5-5.9,45.1-3.9,65.2,5.7c9.4,4.5,17.9,10.4,26.4,16.4c5.6,3.9,11.2,7.9,15.2,13.4c4.6,6.3,6.7,14.3,11.5,20.4
	c-3.8-5.7-9-10.5-15.1-13.7c8.6,3.5,15.3,11.3,17.4,20.3c-3.6-2.3-6.6-5.3-8.9-8.9c8,5.1,13.6,13.8,15,23.1c-3.7-3.9-6.1-9-6.8-14.4
	c4.9,11.6,7.2,24.3,6.6,36.8c1-11.8-3.4-23.9-11.8-32.4c5,10.3,5.4,22.2,5.8,33.7c3.1-13.4,0.8-28-6.2-39.8c4.3,11.8,7,24.1,8,36.6
	c2.1-6,4.2-12.1,4.1-18.4c-0.1-6.3-2.9-13-8.5-15.9c2.3,12.1,4.6,24.1,6.9,36.2c0.4-8.7-0.6-17.4-3-25.8c2.2,9.7,2.9,19.7,2.1,29.6
	c-1-9.9,2.5-20.1,0-29.7c-2.3-8.8-9.1-15.6-15.7-21.9c2.6,5,5.1,10,7.7,14.9c2.2-8.3-5.6-15.7-13.1-19.8c7.9-0.7,15.5,6.9,14.9,14.8
	c-4.4-6.7-9.6-12.8-15.6-18c6.3,1.8,10.4,7.9,13.4,13.8c9.4,18.8,13.4,40.2,11.4,61.2c0.1-4.2,0.1-8.4,0.2-12.5
	c-0.4,5.5,0.6,11.1,2.9,16.1c-2.7-11.5-4.8-23.1-6.1-34.9c-1.3,13.8,0.4,27.9,5,41c-1-6.6-2.1-13.2-3.1-19.8
	c-2.6,7.1,2.3,14.9,8.4,19.5c3.2,2.4,7.2,4.4,11,3.2c3.8-1.1,5.9-6.9,2.7-9.2c0.5,1.5,1,3,1.5,4.5c-4.3,2.8-9,5.6-14.1,5.5
	c-5.1-0.2-10.4-4.9-9-9.8c2.1,8.9,12.1,15.1,21,13c-4.5,2.1-10.1,1.6-14.1-1.3c3.3,4.7,10.5,6.1,15.4,3.1
	c-5.6,5.6-15.9,5.4-21.3-0.3c3.4-0.7,6.7,1.4,9.8,3c3.1,1.6,7.2,2.7,9.8,0.3c-6.6,4.9-18.1,4.9-21.3-2.7c-2.4-5.7,1-12.9-2.4-18.1
	c-0.5,8.7-0.1,17.4,1.1,26c-6.3-11.7-6.3-26.5,0-38.2c-5.1,7-7.9,15.6-8,24.3c5.2-10.9,8.7-22.5,10.5-34.4c-1.4-1.3-3.1,1.2-3.3,3
	c-0.6,4.5-1.1,9.1-1.7,13.6c-0.4-5.4-0.9-10.9-1.3-16.3c0,4.8,0,9.7,0.1,14.5c1.7-5.6,3.3-11.3,5-16.9c-1.4,14-7.6,27.6-5.8,41.5
	c1.4,11.2,7.9,21.9,6.5,33.1c-1.5-10-2.9-20-4.4-30.1c0.4,5.1,1.1,10.9,5.2,14c2,1.5,4.5,2.2,6.5,3.7c2,1.5,3.2,4.6,1.5,6.5
	c-1.5-8.5-5.2-16.7-10.6-23.4c7.7,4.8,12.7,13.8,12.9,22.9c-0.8-9.5-3.8-18.8-8.8-27c3.8,6.1,7.6,12.2,11.5,18.2
	c1.4-2.8-1.8-5.6-4.5-6.9c-2.8-1.3-6.2-3.5-5.6-6.5c4.8,6.8,12.4,11.5,20.6,12.8c-5.5-0.3-10.9-1.6-15.8-3.9
	c3.4,1.5,7.3,1.7,10.8,0.5c-2.8-1.6-5.9-2.6-9.1-2.9c4.5,1.7,9.2,2.7,14,2.8c-4.7-1.5-9.3-3-14-4.5c5.7-0.4,11.5-0.9,17.2-1.3
	c-0.2-1.5-1-2.9-2.2-3.8c1,2.6-1.4,5.4-4,6s-5.4-0.3-8-1.2c3.9,0.7,8.2-1.7,9.7-5.4c-3.1,5.6-11.7,5.4-16.6,1.3
	c-4.8-4.1-6.8-10.6-8.5-16.7c3.9,4.9,7.3,10.3,10,15.9c-6.3-2.2-10.9-8.7-11-15.4c1.5,18.4,13.8,35.6,10.8,53.7
	c-0.5-11.5-3.8-22.8-9.5-32.8c4.8,11.5,6.2,24.4,4,36.7c0.3-14.9-3-29.8-9.6-43.1c-1,15.5,0.9,31.3,5.6,46.1
	c-1.2-11.9-2.5-23.7-3.7-35.6c0.6,12.6,1.2,25.3,1.8,37.9c3.1-7.9,3.9-16.8,2.3-25.1c0.3,9.2,0.6,18.4,0.9,27.6
	c0.9-4.7,1.9-9.3,2.8-14c-0.1,3.5-0.1,6.9-0.2,10.4c2.7-0.2,5-2.8,4.8-5.5c-0.8,2.4-3.6,3.8-6,3.1c-2.4-0.7-4-3.4-3.4-5.8
	c2.5,3.5,7,7.4,10.4,4.7c-6.4-0.5-10.1-9.7-5.8-14.5c0.5,2.7,4,3,6.7,3.1c2.7,0.1,6.3,1.9,5.3,4.4c0.2-5.3-4.5-10.2-9.8-10.2
	c3.9-0.1,7.5,3.2,7.6,7.1c-3.8-3.8-7.7-7.6-11.5-11.4c3.4-1.8,8.2-0.1,9.7,3.5c-2.9-3.9-5.7-7.7-8.6-11.6c3.4,1.8,6.8,3.5,10.2,5.3
	c-8.2-1-13.1-9.9-14.2-18c-1.1-8.2,0.2-16.7-2.1-24.6c0.1,8.1,0.3,16.1,0.4,24.2c3.3-12.8,4.2-26.3,2.8-39.5
	c-4.4,12.6-5.5,26.3-3.1,39.5c3.1-10.2,4.2-20.9,3.2-31.5c-3.1,10.3-4.4,21.1-3.8,31.9c1.6-4.2,2.2-8.8,1.9-13.3
	c0.2,6.6,2.2,13.1,5.7,18.7c2.6-8.5,2.1-18-1.6-26.1c3,8.8,8,16.9,14.7,23.4c-7.6-4.7-13.3-12.3-15.7-20.9
	c5.2,4.2,11.2,7.5,17.6,9.4c-5.7,0.4-11.5-0.4-16.8-2.5c5.6,2.2,11.9,2.8,17.8,1.7c-5.2,2.4-11.2,3.1-16.8,2
	c6.1,1.6,12.2,3.1,18.3,4.7c-6.6,2.9-15.1,0.1-18.7-6.1c2.4,10.1,8.7,19.3,17.3,25.1c-5-1.3-9.8-3.4-14.3-6.1c2.7,3.1,5.3,6.2,8,9.3
	c-1.8,0.5-3.6,1-5.4,1.5"/>
<path fill="none" stroke="#000000" stroke-linecap="round" stroke-linejoin="round" stroke-miterlimit="10" d="M183.4,349.3
	c-7.1-3.7-12.3-11-13.4-19c-0.8-5.5,0.3-11.2-0.6-16.8c-0.2-1.4-0.7-2.9-1.8-3.7c-1.6-1.1-3.8-0.4-5.1,1.1c-1.2,1.4-1.6,3.4-1.9,5.3
	c-1.6,13.2,3.3,27,12.8,36.2c3.5,3.3,7.6,6.2,10.1,10.3c1.6,2.6,2.6,5.8,5.2,7.5c2.2,1.5,5.1,1.5,7.7,1.3c2.6-0.2,5.3-0.5,7.5-1.9
	c4.2-2.8,4.8-8.6,4.6-13.7c-0.2-5-0.8-10.6,2.2-14.6c-1.9,0.1-3.4-1.8-3.6-3.6s0.4-3.7,1.1-5.5c0.7-1.9,1.4-3.7,2.1-5.6
	c-1.4-1.1-3.2-1.7-5-1.8c2.1,0.3,3.3,2.7,3.2,4.8c-0.1,2.1-1.3,4-2.4,5.8c1.8,0.7,3.7,1.3,5.5,2c-2.3,0.1-4.6,0.2-6.9,0.3
	c-0.4,2.7-0.5,7.2,2.1,8.1c0,1.8,3,3.9,4.5,2.8c1.9,3.1,1.8,7.3-0.4,10.2c2.2,1.6,4.9,2.4,7.6,2.4c-1.7-0.7-3.6,1.8-2.5,3.2
	c1.6,0.9,3.7,1.1,5.4,0.5c-0.9-1.9-1.9-3.9-3.8-4.7c-1.9-0.8-4.7,0.7-4.2,2.7c4.7,1,9.5,1.1,14.3,0.5c-0.7-4.6-5.6-8.2-10.2-7.3
	c-1.3,4.3,1.5,9.3,5.7,10.5c-1.1,0.5-1.7,1.8-1.4,2.9c2.2,0.8,4.7,0.9,7,0.3c-0.8-3-6.2-2.7-6.8,0.4c-0.6,3.1,4,5.5,6.3,3.3
	c-0.4-3.2-6.3-2.3-6.4,0.9s4.2,5.3,7.1,3.9c1.5-0.7,2.8-2.1,3.2-3.7c-2.1-0.7-4.1,2.1-3.2,4.1c0.9,2,3.6,2.7,5.6,1.9
	c0.1,1.3,0.2,2.7,0.3,4c1.6,0.7,3.4,0.7,5,0.3c-2.7-0.2-5.2,2.5-4.7,5.2c0.5,2.7,3.8,4.4,6.2,3.2c-0.6-1.9-3-3.1-4.9-2.2
	c-1.8,0.8-2.7,3.4-1.6,5.1c2.3,1.6,5.3,2.2,8,1.5c-1.7-3-6.6-4.7-8.3-1.7c-1.2,2.2,0.6,5,3,5.8c2.3,0.8,4.9,0.1,7.3-0.5
	c0.4-1.8-1.4-3.6-3.2-3.4c-1.8,0.3-2.9,2.6-2,4.2c3.7,1,7.6,1.3,11.3,0.8c-1.4,1-1.3,3.6,0.3,4.5c-2.4-2.1-5.8-3-8.9-2.5
	c2.2-0.1,4-2.4,3.4-4.5c-0.5-2.1-3.2-3.3-5.2-2.4c1.1-5.7-2.8-11.4-7.9-14.1c-5.1-2.8-11-3.3-16.8-3.7c2.7-1.1,4-4.9,2.5-7.4
	c-3.1,1.6-5,5.3-4.7,8.8c0.4-3.5-4.8-4.4-8.3-4.1c-6.1,0.4-12.3-0.3-18.2-2.1c-2.3-0.7-4.6-1.6-6.4-3.2c-2.7-2.4-4.1-6.2-3.4-9.8
	c2.5,2.8,5,5.7,7.5,8.5c-3-3.8-6.1-7.6-9.1-11.4c1.8,4.4,4.2,8.6,7.1,12.4c-1.2-0.2-2.4-0.4-3.6-0.6c1.7,3.6,4.7,6.6,8.3,8.4
	c-4.1-1.4-7.9-4.1-10.6-7.5c2.5,3.7,6.6,6.3,11,6.9c-5.6,1.1-11.7-1.7-14.5-6.6c2.1,4.2,6.2,7.4,10.7,8.5c-7.7-2.8-14.8-7.1-21-12.6
	c7,3.2,13.6,7.4,19.5,12.4c-3.8-0.7-7.4-2.7-10-5.6c3.6,4.9,7.3,9.9,10.9,14.8c-0.7-2.2-2.3-4.2-4.4-5.3c3.3,5.5,9.2,9.4,15.6,10.3
	c-4.4-0.3-8.7-2-12-4.9c4.3,0.8,8.7,1.5,13,2.3c-0.5-5.2-5.3-9.6-10.5-9.6c0.1,4.3,4.2,8.1,8.5,8c0.8-1.9-0.5-4.3-2.4-4.8
	c-2-0.5-4.2,1-4.5,3.1c1.5,1,3.7,0.3,4.4-1.2c0.7-1.6-0.2-3.7-1.9-4.2c-0.7,1.6-0.7,3.4-0.2,5c1.3,0.1,2.6,0.2,3.9,0.3
	c0.9-2.3,1.4-5,0.2-7.2c-1.1-2.2-4.2-3.4-6.2-1.9c3.1,2.8,7.1,4.6,11.3,5c-1.6-1.4-3.9-1.9-6-1.3c-0.6,3.7,4,7.1,7.3,5.4
	c-1.6,4.5,0.2,10,4.1,12.8c-1.6-2.3-5.3-2.7-7.3-0.8c1.4,2,4.3,2.9,6.6,2c-2,0.4-3.2,2.9-2.3,4.7c1,0.9,2.6,0.9,3.7,0.1
	c-0.1-2-3.1-2.9-4.5-1.5c-1.4,1.4-1.2,3.9,0.2,5.4s3.5,1.9,5.5,1.8c2.2-0.1,4.4-0.8,6.3-2.1c-1.1-1.2-3.5-0.5-3.8,1.1
	c0.6,2.5,5.1,1.9,5.5-0.7s-2.7-4.7-5.2-4.1c5.5-5.8,8.1-14.4,6.7-22.3c-2.6,5.3-6.8,9.8-12,12.8c4.1-0.2,8.8-1.5,10.6-5.2
	c1.8-3.7-2.1-9.4-5.8-7.4c-1.5,0.8-2.3,2.5-2.6,4.1c-0.9,5.9,5.8,11.5,11.4,9.7c-4.2,0-8,3.6-8.3,7.7c4.3-1.2,7.4-6,6.7-10.4
	c-5.3-1.6-11.4,0.6-14.5,5.2c5.9-3.1,10.4-8.6,12.4-15c0.2-0.8,0.4-1.6,0-2.3c-0.6-1.1-2.2-1.1-3.5-0.8c-4.5,1-8.7,3.5-11.7,6.9
	c5.2-2.2,9.6-6.5,11.9-11.7c-3.9-2.4-9.9,0.3-10.7,4.8c3.8-0.7,7.2-4.4,6.3-8.1c-0.8-3.7-7.1-4.9-8.5-1.4c3.3,0.9,7.1-1.6,7.6-5
	c-2.9-0.9-6.3-0.8-8.5,1.3s-1.9,6.5,0.9,7.5c-4.6,0.2-9.3-0.4-13.6-1.9c5.7,0.2,11.3,0.4,17,0.6c2.2,0.1,4.5,0.1,6.5-0.8
	c2-1,3.5-3.3,2.7-5.4c-3.1,2.9-5.9,6-8.4,9.5c8.1,0.2,16.2-2.8,22.2-8.2c1.3-1.2,2.7-3,1.9-4.6c-0.7-1.4-2.5-1.7-4-1.6
	c-6.2,0.3-11.8,5.4-12.8,11.5c3.5-2.4,6.3-5.6,8.1-9.4c-4.4,3.4-4.6,11-0.4,14.6c-5.1,0-10,3.9-11.3,8.8c5.7-0.6,11.1-3.1,15.4-6.9
	c-3.8,2.7-6.6,6.9-7.5,11.5c4.8,1.8,10.9-1.9,11.4-7.1c0.1-1,0-2.2-0.8-2.8c-0.8-0.7-2.1-0.5-3.1-0.1c-4.5,1.6-8.2,5.5-9.4,10.1
	c-0.2,0.8-0.3,1.6,0.1,2.3c0.5,0.7,1.4,0.8,2.3,0.9c3.7,0.4,7.6,0.8,11.2-0.4c3.6-1.2,6.8-4.4,6.6-8.2c-5.9,1.3-11.1,5.7-13.5,11.3
	c3.9,0.2,7.5-3.4,7.3-7.3c-6.5-1.4-13.6,3-15.4,9.3c7.9,3.7,18.1,1.1,23.4-5.7c-5,1.4-9.2,5.5-10.5,10.6c1.9,0.5,3.9,1,5.8,0.4
	c1.9-0.6,3.4-2.7,2.6-4.5c-8.3,2.5-15.2,9.3-17.8,17.6c2.3-4.6,5.7-8.7,9.8-11.8c-4.3,3.9-7.8,8.6-10.3,13.8c2-4.6,3.5-9.3,4.4-14.3
	c-3.8,0.3-7.9,1.3-9.9,4.6c-2,3.2,0.4,8.7,4.1,8c0.5-2.5,0.9-5.1,0-7.5s-3.8-4.1-6.1-2.9c-1.6,0.8-2.2,2.7-2.6,4.4
	c-0.8,3.2-1.1,6.7,0.2,9.7c1.3,3,4.5,5.5,7.7,4.9c3.2-0.5,5.5-4.8,3.5-7.4c-4.6,1.8-6.8,7.9-4.5,12.2c3.5-1.6,5.6-5.9,4.7-9.7
	c-4.2-1.2-8.6,4.2-6.5,8.1c2.1,0.6,4.5,1.2,6.6,0.4c2.1-0.8,3.6-3.5,2.2-5.3c-2.2,1-4.4,2.5-4.7,4.8c-0.3,2.3,3.1,4.5,4.5,2.6
	c-1.3-0.1-2.7-0.1-4-0.2c-0.2,3.6,2.8,7.2,6.5,7.5c3.6,0.3,7.2-2.8,7.5-6.4c-3.3,4.7-5.3,10.3-5.9,16.1c-2.1-3.8-3.3-8-3.4-12.3
	c-1.5,2.7-1.8,6-0.7,8.9c1.3-0.8,2.2-2.1,2.4-3.6c-1.1-1-2.7-1.5-4.2-1.1c0.2,6.7,6.6,12.6,13.3,12.2c1-0.1,2-0.3,2.6-1.1
	c1.4-1.9-2.1-4.2-4-2.8c-1.9,1.3-2.1,4.1-2.2,6.4c1,0,2-0.1,3.1-0.1c-0.7-1.2-2.5-1.7-3.7-0.9s-1.5,2.6-0.7,3.7c1.9,1,4.6-0.9,4.1-3
	c-2.1,0.9-3.5,3-3.6,5.2c1.6,0.8,3.5,0.7,5-0.2c-2.5-2-6,2.3-4.6,5.1c1.4,2.9,5,3.8,8.1,4.4c1.2,0.2,2.6,0.4,3.6-0.2
	c1.1-0.7,1.2-2.6,0.1-3c-3.2,1-5.4,4.4-5.1,7.7c2.5,0.5,5.1,0.3,7.4-0.7c-0.3-2.7-5.2-1.6-5.1,1.1c0.1,2.7,3.3,4.3,6,3.9
	c0.8-0.1,1.5-0.4,2-0.9c1.7-1.8-2-4.7-3.8-3c-1.8,1.7-0.3,5.1,2.1,5.7c2.4,0.5,4.9-1.1,6.2-3.2c-3.9-2-8.7,3.7-6.1,7.2
	c2.6,3.5,9.5,0.4,8.6-3.8c-2.4,1.1-3.4,4.4-2.1,6.6c1.3,2.2,4.8,2.9,6.8,1.2c0.7-2.9-3.7-5.1-6.1-3.3c-2.4,1.9-2.1,5.9,0.1,8
	s5.4,2.7,8.4,2.5c-0.2-1.1-1.3-2.1-2.5-1.9c-0.9,1.7,0.4,3.9,2.2,4.8c1.8,0.8,3.8,0.7,5.7,0.5c-3.4-3.1-8.4-4.2-12.8-2.9
	c2.7,6.3,11,9.4,17.2,6.5c-1.5-1.1-3.8-0.8-5.1,0.5c3.4,2.5,8.2,2.9,12,1.1c-2-2.4-5.4-3.5-8.5-2.7c1.1,3.2,4.4,5.5,7.8,5.4
	c3.4-0.1,6.6-2.6,7.5-5.9c-1.1-0.9-3-0.4-3.5,0.9c2.3,2.9,7.7,2.2,9.1-1.2c-0.9-1.9-4.3-0.2-4,1.9c0.3,2.1,2.7,3.2,4.9,3.3
	c3,0.1,6-1.2,8-3.5c-2.1-2-4.3-4.1-7.1-4.6c-2.8-0.6-6.3,1.1-6.5,4c-0.3,4.3,5.9,5.6,10.2,5c1-3.3-3.1-6.7-6.3-5.4
	c-3.2,1.3-3.9,6.2-1.5,8.7c2.4,2.5,6.9,2.1,9.2-0.4c1.8-1.7,1.2-5.2-1-6.2c-2.3-1-5.2,1-5.2,3.5c0,3.3,4.1,5,7.5,5.1
	c1.9,0.1,4-0.1,5.4-1.4s1.6-3.9,0-4.9c-3.9-0.5-7.8,3.1-7.6,7c4.1,1.2,8.4,2.3,12.4,1c4-1.2,7.4-5.6,5.9-9.6c-2.9,0.9-5,3.9-4.8,7
	c3.6,2.7,9.7-1.3,8.7-5.7c-2,0.8-3.4,3-3.3,5.1c3.7,1.1,8-1.5,8.9-5.2c-1.1-1.8-3.6-2.5-5.5-1.6c-1.9,1-2.8,3.4-2,5.4
	c-1.2-4.4-6.8-6.9-10.9-5c-1,3.2,2.5,6.8,5.7,6c-5.7-3.7-13.4-4.2-19.6-1.3c1.5,4.4,5.1,8.1,9.5,9.6c2,0.7,4.4,0.9,6.3-0.2
	c1.9-1.1,2.8-3.8,1.4-5.5c-2.3,1.7-2,5.9,0.6,7.3c2.6,1.3,6.2-0.9,6.2-3.8c-3.4-1.1-7.6,1.7-7.8,5.3c9,1.4,18.3,0.6,27-2.3
	c-1.5-3.4-7.8-2.2-8,1.5c1.9,0.7,4.2,0.4,5.9-0.7c-1.2-4.9-8-7.2-12-4.1c0.3,3.1,3.6,5.6,6.7,4.9s5-4.3,4-7.2c-3-1-6.6,1.8-6.4,5
	c2.3,1,4.7,2,7.1,1.6s4.7-2.8,3.9-5.2c-2,1.6-2.9,4.4-2.3,6.9c3.6,1.6,8.3-0.2,9.9-3.7c-1.5,0.3-2.7,1.5-3.1,3
	c2.9,1.1,6.1,1.1,9,0.1c0.2-2.4-2.2-4.6-4.6-4.1c-2.3,0.5-3.8,3.4-2.7,5.5c8,1.9,16.7,0.9,24.1-2.7c-2.6-2.7-6.8-3.6-10.3-2.3
	c-3.5,1.3-6,4.9-6.1,8.6c2.7,0.8,5.7,0.9,8.5,0.1c-3.1-5.3-9.8-8.1-15.8-6.6c-3,0.9-3,5.6-0.6,7.6c2.4,2,5.8,2,8.8,1.9
	c6.8-0.2,15.6-2.4,16.4-9.2c-2.9-0.4-6,1.1-7.4,3.7c5.8,2.4,13.2-3.5,12-9.7c-3.4,1.1-6.2,3.5-7.9,6.6c7.6,1.6,16-2.9,19-10.1
	c-2.8,0.7-5.4,2.3-7.5,4.4c3.6,0.9,7.4,1.7,10.9,0.8c3.6-0.9,6.9-4.2,6.4-7.8c-0.4-3.7-5.9-5.9-8.1-2.9c0,2.7,4.4,3.7,6,1.5
	c1.6-2.2,0.1-5.7-2.4-6.7c-2.5-1-5.5,0-7.5,1.8c-1.8,1.7-3,4-3.4,6.4c8.6-0.1,17.1-4.3,22.4-11.2c0.8-1,1.6-2.2,1.7-3.5
	c0.2-2.2-1.9-4.3-4.1-4.2c-2.2,0.1-4,2.5-3.6,4.6c4.1-2.5,7.7-5.9,10.4-10c-3.9,1.1-7.4,3.7-9.7,7.1c5-2.7,7.6-9,6-14.4
	c-2.4,0.2-4.9,0.4-6.8,1.8s-2.9,4.4-1.3,6.2c0.9,1.1,2.4,1.4,3.8,1.4c4.1-0.1,8.1-3.8,7.6-7.9c-0.5-4.1-6.4-6.6-9.2-3.5
	c2.5,3.9,9.2,2.6,11.5-1.4s1.3-9.1-0.6-13.4c-3-0.2-5.6,3.1-4.8,6c2.4-1.6,4-4.5,4-7.4c-5,0.1-8.7,6.3-6.5,10.7
	c4.9-3,7.5-9.2,6.2-14.8c-1.4-1.1-3.8-0.5-4.5,1.2c7.1-1.2,12.6-8.6,11.6-15.8c-2.4-0.2-4.8,1.5-5.5,3.8c3.5-1.4,5.8-5.2,5.4-8.9
	c-2-1.8-5.9,0.2-5.6,2.8c4.3,0.2,7.9-4.7,6.5-8.8c-1.4-4.1-7.2-5.7-10.5-3c3.8,1.3,8.5-1.6,9-5.6c-1.1-0.1-2.2,0.4-2.9,1.2
	c1.5-1,3.1-2.3,3.2-4.1c0.2-1.8-2.4-3.4-3.4-2c3.1-0.5,6.6-1.3,8-4.1s-2.1-7-4.4-4.9c0.9-3.2,1.8-6.3,2.7-9.5
	c-3.8-0.6-7.9,0.9-10.5,3.8c4.9-4.1,6.9-11.3,4.7-17.3c0.3,1.8,0.8,3.9,2.4,4.8c1.6,0.9,4.2-1.2,3-2.6c-1.5-2.9-6.8-0.8-6.7,2.5
	c0.1,3.3,3.8,5.5,7.1,5.2c1.5-1.8,1.7-4.4,0.7-6.5c-4.1,0.3-7.7,4-8,8.1c3.6,0.5,7.6-1,9.5-4.1c1.9-3.1,1.2-7.7-1.8-9.7
	s-7.9-0.4-8.7,3.2c3.4,1.3,7.8-1.5,8-5.2c-2.5-0.5-5.2,1.1-5.9,3.5c3.9-0.1,7.7-1.5,10.6-4.1c-0.9-2.8-3.9-4.8-6.8-4.5
	c2.2-2.1,2-6.2-0.3-8.1c2.1-0.6,3.4-3.1,2.7-5.2s-3.2-3.3-5.2-2.5c2.1-1.8,3.5-4.3,3.9-7c-1.9-3.4-1.7-7.8,0.5-11
	c-2,1.7-4.2,3.7-4.2,6.3c0.1,2.6,4.2,4.5,5.3,2.1c-1.5-1.8-4.7-0.4-5.5,1.8s-0.1,4.6,0.3,6.9c1,5.7,0.2,11.7-2.3,16.9
	c1.3,0.3,2.8-0.7,3-2c-2.6-0.7-5.4,2-4.8,4.6c1.8,0,3.7,0.1,5.5,0.1c-3.9,2.9-6.9,7.2-8.2,11.9c0.9,0.9,2.5,0.9,3.5,0.1
	c-1.1,0.6-1.7,1.9-1.6,3.1c-2.2-3.8-9.3-2.6-10.1,1.7c-2.5,1.4-5.1,2.8-7.6,4.3c1.8,0.6,3.9,0.5,5.7-0.4c-0.1,1.4-0.2,2.7-0.2,4.1
	c1.2,0.2,2.5-0.4,3.1-1.5c-1.6,0.2-3,1-4.1,2.1c2.3,1.5,5.6,1.1,7.5-0.8c-6-3.3-13.8-2.8-19.3,1.1c6.2,4.3,14.8,4.7,21.4,1.1
	c-2.3-0.9-5.3,0.6-5.9,3.1c6,0.5,12.1-2.7,15.2-7.8c-3.4-3.3-10.2-1.8-11.8,2.7c5.1,1,10.7-1.1,13.9-5.3c-3.9,0.8-7.4,3.3-9.5,6.6
	c-0.7,1-1.2,2.4-0.5,3.4c0.6,1,2.8,0.7,2.5-0.5c-3.1,2.5-5.4,6-6.4,9.8c4.1,2.2,10-1.8,9.5-6.4c-4.2-3.3-10.7-3.4-14.9,0
	c-1.2,1-2.3,2.5-1.8,4c0.4,1.2,1.7,1.8,2.9,2.3c5.6,2,11.8,2.5,17.7,1.4c-6.3,0.8-12.2,4.4-15.8,9.6c1.6-1.4,2.5-3.5,2.5-5.6
	c-3.5-0.9-7.3,2.9-6.4,6.3c5,1.6,10.9-2.3,11.5-7.5c-5.2-3-12.9,2-12.3,8c5.6,0.7,11.4-3.8,12.1-9.4c-3.2-5.8-13.5-4.9-15.7,1.4
	c6.7,1.5,14.1-4,14.6-10.9c-7,0.2-13.9,3.2-18.8,8.2c-3.1-10.5-5.8-21.1-8.1-31.8c1.2,5.6,2.4,11.2,3.6,16.8
	c-1-6.7-2.8-13.3-5.5-19.6c-0.3,6.9,0.9,13.8,3.4,20.1c-4.2-8.2-8.4-16.4-12.7-24.6c1.8,7.1,3.9,14.2,6.4,21.1
	c-3.5-6.7-5-14.5-4.1-22c4.9,5.2,6.8,13,5,20c0.6-7.3-1.3-14.8-5.4-20.9c3.2,7.4,5.6,15.1,7.2,23c-7.1-6.7-11.6-16-12.3-25.7
	c3.3,7.7,5.6,15.8,7,24c-4.2-9.5-7.6-19.4-10.1-29.5c-0.3,8.4-0.5,16.7-0.8,25.1c-3.2-8.2-6.5-16.5-9.7-24.7
	c-0.2,8.2,0.7,16.4,2.8,24.3c0.5-8.5,1.9-16.9,4.1-25c5,6.9,7.8,15.4,8,24c-4.4-7.5-7.5-15.9-9.1-24.4c-1.1,8-1.5,16.1-1.1,24.2
	c-1.8-7.2-3.7-14.3-5.5-21.5c-0.9,7.1-0.7,14.4,0.6,21.4c-1.7-6-3.5-12-5.2-18.1c0.4,7.8,1.9,15.4,4.5,22.8
	c-2.5-9.6-5-19.2-7.5-28.8c-0.7,7.6-1,15.2-0.9,22.7c0.5-5.9,1.1-11.8,1.6-17.7c-2.1,6.4-2.6,13.3-1.4,20
	c-0.1-6.2-0.3-12.5-0.4-18.7c-3.4,5.1-4.8,11.6-3.6,17.6c0.1-6.3,0.2-12.7,0.4-19c0,7.7,0,15.3,0,23c0.5-7.7-0.2-15.4-2-22.9
	c-1.8,7.5-2.8,15.2-3.2,22.9c0.4-6.5,0.7-13,1.1-19.5c1.2,5.1,4.1,9.9,8.1,13.3c-0.3-5.9,1.2-11.8,4-16.9
	c-0.1,8.2,0.4,16.4,1.6,24.5c-2.5-7.1-4.9-14.3-7.4-21.4c-4.3,6.9-6.5,14.9-6.4,23c-0.2-7.5-0.4-15-0.6-22.5c-2,6-2.8,12.3-2.2,18.6
	c0.1-7.8-0.7-15.7-2.3-23.4c-2.7,7.1-4,14.8-3.7,22.3c0-5.3,0-10.6,0.1-15.9c-0.9,7-1.8,14-2.7,20.9c0.5-6.9,0.4-13.9-0.5-20.7
	c-1.2,5.9-1.9,12-1.9,18c1.4-5.9,2.7-11.8,4.1-17.6c-4.1,4-6,10-5.1,15.6c2.1-5.7,2.8-11.9,2.1-17.9c-3.8,6.4-5.4,14.2-4.3,21.6
	c0.2-8.1,0.3-16.2,0.5-24.3c-2.9,9.6-3.9,19.6-3.2,29.6c1.6-7.7,3.2-15.4,4.8-23.2c-2.8-1.1-5,2.7-5.6,5.6
	c-1.1,5.5-1.3,11.3-0.7,16.9c0-7.5,0-15,0.1-22.5c-3.3,8.4-4.5,17.6-3.3,26.6c1.6-5.1,2-10.5,1.3-15.8c-3,6.1-5.3,12.6-6.7,19.2
	c-2.1,0.4-4-2-3.9-4.2s1.3-4.1,2.5-5.9c3-4.4,6-8.8,9.1-13.2c-1.5-1.3-3-2.6-4.5-3.9c-2.1,4.4-1.4,9.4-1.8,14.3
	c-0.4,4.8-2.8,10.3-7.5,11.1c9.2-5.4,13.5-17.7,9.7-27.7c-1.8,9.8-4.7,19.3-8.6,28.4c1.2-7.9,2.5-15.8,3.7-23.7
	c-2.6,7.2-4.8,14.7-6.4,22.2c0.1-6.7,1.5-13.4,4.2-19.5c-1.5,7.3-3.1,14.5-4.6,21.8c-0.6,2.7-2.2,6.1-4.9,5.5
	c6.2-7.9,10.1-17.7,11.1-27.7c-2.5,9.7-6.4,19-11.3,27.6c4-7.5,8-14.9,12.1-22.4c-3,5.5-5.5,11.3-7.3,17.3
	c5.1-7.1,10-14.4,14.5-21.9c-2.3,6.3-3.2,13.1-2.9,19.8c1.9-6.9,3.2-13.9,3.7-21c-0.5,5.1-0.3,10.2,0.8,15.2c4.3-5.4,7-12,8-18.9
	c0.4,4.9,0.8,9.9,1.2,14.8c0.2-7.4,1.6-14.8,4-21.8c2.5,7.2,4.1,14.7,4.7,22.3c1.1-6.9,3.6-13.6,7.2-19.7c0,6.2,0,12.4,0,18.6
	c1.1-9.7,1.6-19.5,1.8-29.2c-1.3,9.1-0.9,18.4,1.3,27.3c3.2-6.3,5.5-13.1,6.6-20.1c0.7,5.5,1.4,11.1,2,16.6c0.7-6.3,2-12.5,4-18.5
	c1.8,8.1,2.8,16.3,2.9,24.6c0.2-7.1,1.1-14.1,2.6-21c1.6,5.5,2.5,11.2,2.7,16.8c0.3-5.9,1.2-11.8,2.7-17.6
	c1.3,7.1,2.5,14.3,3.8,21.4c1.3-4.6,2.7-9.2,4-13.9c1.4,5.2,2.9,10.4,4.3,15.6c-0.2-4.1-0.4-8.3-0.5-12.4c0.4,5.1,0.7,10.1,1.1,15.2
	c-0.4-5.2,0.1-10.4,1.5-15.4c3.2,6.7,4,14.6,2.2,21.8c-1.2-4-1.7-8.2-1.6-12.4c-1.1,7-2.2,14.1-3.3,21.1c-0.3-7.3-2.1-14.6-5.4-21.1
	c-2.2,4.2-2.8,9.2-1.7,13.9c-0.8-6-1.6-12-2.4-18c-1.7,5-1.8,10.5-0.3,15.5c-1.6-7.4-4.9-14.4-9.6-20.3c-0.2,7.2,0.9,14.5,3.4,21.2
	c1.1-5-0.1-10.3-3.1-14.4c-1.4,4.8-0.6,10.2,2.1,14.4c-1.1-6.8-5.2-13-11-16.6c-0.9,7.7,2.5,15.7,8.6,20.5c1-6.8-4-13.9-10.7-15.3
	c-3.2,4.2-0.9,11.4,4.2,12.9c-1.7-5.7-7.5-9.9-13.5-9.6c-0.1,1.3-0.1,2.5-0.2,3.8c2,2.5,5.4,3.6,8.5,2.8c-3.5-5.1-10.8-7.3-16.6-4.9
	c1.9,2.7,5.3,4.2,8.5,3.8c1.1-3.3-3-6.9-6.2-5.5c1.9,4.7,7.4,7.7,12.3,6.6c-11.6,1.7-22.5,7.2-30.8,15.4c0.6-3.8,4.5-6.1,8.1-7.5
	c17.8-6.9,38.5-5.9,55.6,2.7c0,2.5-2.7,4.4-5.3,4.4c-2.5,0-4.9-1.2-7.2-2.3c-9.4-4-20.4-4.4-30-0.9c8,0,15.9,0,23.9,0
	c-7.6,1-15.2,1.4-22.9,1.2c2.6,0.2,5.1,0.4,7.7,0.6c-7.8,1-15.7,1.4-23.6,1c17.6,7,37.3,8.4,55.7,3.8c-10.4,0.2-20.7,0.4-31.1,0.6
	c9.1-0.1,18.2-0.3,27.3-0.4c-12.5,0.3-25,0.6-37.5,0.9c10.4,1.1,21,0.1,31-3.1c-1.6-5.6-3.2-11.2-6.6-15.9
	c-3.4-4.7-8.8-8.3-14.6-7.8c-1.4,6.9-2.9,13.8-4.3,20.7c-1.4-6.5-3.5-12.8-6-18.9c-1.2-2.8-3.3-6-6.3-5.5
	c-1.4,7.8-1.3,15.8,0.2,23.5c3.1-7.5,2-16.6-2.7-23.2c-3.6,3.4-5.1,8.9-3.7,13.6c0.9-3.7,0.8-7.6-0.4-11.3
	c-2.6,6.3-3.7,13.1-3.3,19.9c1.7-6.1-0.2-13.1-4.7-17.6c-2.9,5-5.2,10.3-6.7,15.9c0.2-4.9-0.3-9.7-1.5-14.5
	c-3.7,6.8-5.4,14.7-4.8,22.4c4.2-5,7.4-10.8,9.5-17c-1.4,3-2.4,6.2-2.8,9.5c4,1.9,8.9,0.3,12.1-2.7s4.9-7.2,6.3-11.4
	c-7,2.8-12.4,9.5-13.5,17c0.4-1.6,0.8-3.2,1.1-4.8c-3.3,2.8-5.9,6.3-7.8,10.1c1.9-4.7,2-10.2,0.3-15c-4.2,2.8-6.7,8-6.5,13
	c0.5-2.8,0.4-5.7-0.4-8.5c-5,3.2-8.4,8.7-9,14.6c0.1-6.3,0.3-12.6,0.4-18.9c-2.2,2.3-4.4,4.7-6.6,7c5-2.8,9.5-6.7,12.9-11.3
	c-6.9,1-13.5,4.3-18.5,9.2c1.2-1.2,2.4-2.4,3.5-3.7c-0.9-1.4-1.8-2.7-2.7-4.1c-2.2,0.2-4.5,0.4-6.7,0.5c-0.3,1.1-0.5,2.3-0.8,3.4
	c1.6,0.1,3.3,0.1,4.9,0.2c0-1.3,0-2.6,0-3.9c-3.8-1.4-8.6-2.6-11.6,0.2c1.6,1.3,4.5,0.7,5.4-1.2c-0.1-1.6-1.8-2.8-3.3-2.5
	c-1.5,0.3-2.6,2.1-2,3.6c1.5-0.2,3-0.5,4.5-0.7c-0.9-4.7-7.6-6.8-11.1-3.6c-0.1,1.4,2.6,1.3,2.7-0.1c0.2-1.4-1.4-2.5-2.8-2.3
	s-2.5,1.1-3.6,2.1c-0.4,1.5,1.2,3.1,2.7,2.7c-2-1.6-4.9-2-7.2-0.9c-0.2,1.4-0.4,2.8-0.6,4.2c2.1,2.8,6.3,3.8,9.4,2.2
	c-4.1-3.1-10.1-3.6-14.6-1.1c0.8,1.7,1.6,3.4,2.5,5c3.7,0.4,7.5,0.7,11.2,1.1c1-1.4,2-2.7,3-4.1c-6.2-3.7-14.1-4.5-21-2.1
	c0.1,1.8,0.1,3.6,0.2,5.4c3.1,1.5,6.4,3,9.8,3.1c3.5,0.1,7.2-1.6,8.4-4.8c-1.9-0.7-3.8,2.1-2.5,3.6c3.7,2,8.9,0.6,10.9-3.1
	c-0.7-1.2-1.4-2.4-2.1-3.5c-1,1.3-2,2.7-3,4c3,4.4,8.4,7,13.6,6.7c5.3-0.3,10.3-3.7,12.7-8.4c-3.2,0.8-6.4,1.6-9.6,2.4
	c-0.6,3-1.3,5.9-1.9,8.9c3.7,0.6,7.3,1.1,11,1.7c1.6-2.2,3.3-4.5,4.9-6.7c-5-3.6-12-4.2-17.5-1.4c1.3-0.3,2.3-1.7,2.1-3
	c-2.5-3.9-8.7-4.8-12.2-1.7c1.5,0.7,2.6-2,1.5-3.2c-1.2-1.2-3.1-1-4.7-0.6s-3.4,0.9-4.8,0.1c-0.6,1.6-1.2,3.2-1.9,4.7
	c4.4,3.7,10.9,4.9,16.4,2.9c-0.4-1.8-0.9-3.6-1.3-5.4c-2.8-0.8-5.5-1.5-8.3-2.3c5.4,7.2,15,10.9,23.9,9.2c-2.2-4.6-7.3-7.6-12.4-7.4
	c0,3.4,2,6.7,4.9,8.3c1-0.6,1.9-1.2,2.9-1.8c-6.4-4.7-17,0.1-17.9,7.9c-4.9-8.3-13.8-14.1-23.3-15.3c-2.1,1.9-2.5,5.3-1,7.7
	c2.7-1,5.1-3,6.5-5.5c-2.3,7.7,1.3,17,8.6,20.3c7.3,3.4,17.3-0.6,19.5-8.3c-1.7,0-3.5-0.1-5.2-0.1c-0.7,2.5-1.5,5-2.2,7.5
	c2.1,0.9,4.1,1.9,6.2,2.8c1.9-1.8,3.8-3.5,5.7-5.3c-0.6-1.2-1.2-2.4-1.8-3.6c-3.3,2.3-4.1,7.4-1.7,10.6c1.9,0.2,3.8,0.3,5.6,0.5
	c0.7-1.4,1.4-2.7,2.1-4.1c-7.5,1.8-10.3,13.1-4.6,18.2c8.1,1,16.6-4.5,19-12.4c-1.1-1.6-2.2-3.1-3.3-4.7c-1.8,1.8-3.6,3.5-5.3,5.3
	c0.7,2.1,1.5,4.2,2.2,6.3c2.9-0.3,5.8-0.6,8.7-0.8c1-2.2,2-4.4,3-6.6c-2.3-0.6-4.6-1.3-7-1.9c-5.7,2.7-8.7,10.2-6.4,16.1
	c2.2-0.3,4.4-0.6,6.6-0.9c0.6-2.8,1.1-5.7,1.7-8.5c-1.8-1.4-3.7-2.7-5.5-4.1c-1.4,2.1-2.9,4.1-4.3,6.2c1.5,2.7,2.9,5.3,4.4,8
	c2.6-1.5,5.2-3.1,7.8-4.6c2.7-6.4,1.1-14.4-4-19.1c-3.3,5.3-3.5,12.5-0.4,17.9c1.7-0.8,3.5-1.6,5.2-2.4c-0.4-2.6-0.7-5.2-1.1-7.7
	c-2.6,0.1-5.1,0.2-7.7,0.3c-1.4,3-2.7,6-4.1,9c1.8,1.6,3.6,3.3,5.4,4.9c2.3-1.9,4.6-3.9,6.8-5.8c-0.7-2.8-1.4-5.7-2.1-8.5
	c-5.1-1.6-11.1,2-12.3,7.1c1,1,2,2,3,3c5-1.7,9-6.2,10-11.3c-5.6,1.7-9.9,6.9-10.4,12.7c2,2.7,3.9,5.4,5.9,8.1
	c8.5-0.6,15.8-8.7,15.6-17.3c-2.6-1.6-5.2-3.1-7.7-4.7c-2.3,2.7-4.7,5.4-7,8.1c1.7,3.3,3.5,6.6,5.2,9.9c4.9-0.5,9.8-1.1,14.6-1.6
	c1.7-4,3.4-8.1,5.2-12.1c-3.8-2-7.6-4.1-11.3-6.1c-4,2.6-7.9,5.2-11.9,7.8c0.3,3.1,0.6,6.3,0.9,9.4c3.2-0.6,6.4-1.1,9.5-1.7
	c0.6-3.1,1.2-6.3,1.8-9.4c-6.3-5-16.8-3.3-21.2,3.4c1.2,3.4,2.5,6.8,3.7,10.2c3.3-1.3,6.5-2.5,9.8-3.8c3.4-7.8,0.4-17.9-6.7-22.5
	c-1.3,2.4-2.6,4.8-3.9,7.1c2.1,2.4,4.2,4.9,6.3,7.3c3.1-0.8,6.3-1.6,9.4-2.5c0.3-2.3,0.6-4.7,0.8-7c-1.6-1.9-4.8-2.3-6.8-0.9
	c2.7,1.6,6.5,1.2,8.8-1c-4.8-0.3-8.9,5.5-7,10c3-0.7,5.1-4.2,4.4-7.2c-1.5,2.5-0.4,6.2,2.2,7.5c2.2-0.5,4.4-1,6.6-1.6
	c-6.5-4.9-15.6-5.1-23.3-2.5c-7.7,2.6-14.3,7.7-20.7,12.8c1-2.9,0.7-6.1-0.7-8.8c-1,0.1-2.1,0.3-3.1,0.4c-1.2,1.8-1.6,4-1.3,6.1
	c1.4-3.4,1.2-7.4-0.5-10.6c-3,1.1-5.8,3.1-7.8,5.6c0.8-5-2.8-10.4-7.8-11.5c-5-1.1-10.5,2.1-12,7c2.5-3.7,3.6-8.3,3.1-12.7
	c-0.1-0.8-0.5-1.9-1.3-2c-0.8-0.1-1,1.6-0.2,1.3c0.6-3.4-0.6-7.1-3-9.5c-4.4-0.1-8.7,3.1-9.8,7.3c2.2,4.2,9.7,3.6,11.3-0.9
	c-2.7-1.3-5.4,3.6-2.9,5.2c1-1.4,0.5-3.6-1-4.4c-0.8,0.7-1.6,1.4-2.4,2.1c1,1.6,2.1,3.1,3.1,4.7c2.1-0.1,4.2-0.2,6.4-0.3
	c-0.4-1.4-0.7-2.8-1.1-4.2c-2,0-4,0-6,0.1c2.3,4.8,8.5,7.4,13.6,5.7c-1.3-0.1-2.5,0.6-3.1,1.8c0.4-1.5-0.4-3.2-1.8-3.8
	c-2.9-1.3-5.8,2.8-4.8,5.8c1.1,3,4.2,4.6,7.2,5.7c0.6-0.9,1.2-1.8,1.8-2.8c-1.4-0.5-2.8-0.9-4.3-1.4c-0.9,1.8-1.9,3.7-2.8,5.5
	c1.6,1.8,3.3,3.5,4.9,5.3c2-0.5,4-1,6-1.6c0-1,0.1-2.1,0.1-3.1c-2.2,0.1-4.1,2-4.3,4.2c1.3-0.4,1.1-2.8-0.3-3
	c-1.5-0.6-3.3,1.3-2.6,2.8c3.9-2.5,6.9-6.3,8.4-10.7c0.3,1.4,0.6,2.7,0.9,4.1c1.7,0.2,3.5,0.5,5.2,0.7c4.8-4.7,6.6-12.2,4.6-18.5
	c-4.2,1.1-7.2,5.6-6.5,9.8c0.5,1.3,2.4,1.9,3.6,1.2c0.9,5.4-0.6,11.1-4,15.3c3.4,1.2,7.4,0.8,10.5-1.1c1.2,5.4,1.1,11.1-0.1,16.6
	c1.6,1.1,3.2,2.3,4.8,3.4c0.9-3.4,1.7-6.7,2.6-10.1c-2.5-2.2-4.9-4.3-7.4-6.5c-2.9,1.8-5.8,3.6-8.7,5.4c0,2.2,0,4.4,0,6.6
	c2-0.2,4.1-0.5,6.1-0.7c0.8-2,1.6-4.1,2.4-6.1c-1.4-1.1-2.8-2.2-4.2-3.3c-2.9,1.5-5.5,4.7-4.3,7.7c1.8-1.5,2.3-4.3,1.1-6.3
	c-1.4,0-2.7-0.1-4.1-0.1c-2.2,2.1-3.1,5.4-2.3,8.4c1.7-1.5,2-4.3,0.5-6.1c-1.1,0.6-2.2,1.2-3.2,1.8c-1.3,6.4,6.9,12.4,12.6,9.3
	c-0.6-1-1.1-2.1-1.7-3.1c-1.7,1.2-3.4,2.3-5.2,3.5c1.2,2.7,2.4,5.3,3.6,8c4.3,0.1,8.6,0.2,12.9,0.2c1-3.6,1.9-7.2,2.9-10.8
	c-4-2.5-8-4.9-12-7.4c-2.6,1.7-5.2,3.4-7.8,5.2c1.4,2.7,2.9,5.4,4.3,8.1c2.3,0,4.7-0.1,7-0.1c-2.9-11-15.9-18.1-26.7-14.6
	c1.7,0.4,3.4,0.9,5.1,1.3c-0.2,2.9,0.3,5.9,1.4,8.6c1.1-1.2-0.5-3.6-2-3c0.2,1.3,0.4,2.6,0.6,4c2.6,2.2,7,1.9,9.2-0.6
	c-2,1.7-0.3,5.5,2.3,6c2.6,0.6,5.2-0.9,7.4-2.4c4.2-3,7.9-6.7,11-10.8c-1.5-4.3-3.2-8.7-6-12.2c-2.9-3.5-7.4-6.1-11.9-5.5
	c-0.2,2.1-0.3,4.1-0.5,6.2c1.5-1.2,3.1-2.3,4.6-3.5c-0.7-3.5-1.4-6.9-2.1-10.4c-3.2-0.2-6.5-0.4-9.7-0.6c-0.4,2.7-0.9,5.4-1.3,8.2
	c3.3,0.1,6.5,0.2,9.8,0.3c1.4-2.5,2.7-5,4.1-7.5c-1.1,0.8-2.2,1.7-3.3,2.5c7.4,13.3,23,21.6,38.2,20.5c-3.7,1.5-6.9,4.3-8.9,7.8
	c1.3-2.2,2.6-4.3,4-6.5c-0.7-1.1-1.4-2.3-2.1-3.4c-4.1,2.4-6,7.9-4.3,12.3c10.3,3,22.3-5.1,23.2-15.8c-4.1,8.9-5.3,19.1-3.3,28.7
	c4.9-0.4,8.9-4.4,10.7-9c1.8-4.6,1.8-9.6,1.8-14.5c-4.1-2.7-8.2-5.4-12.3-8.1c-3.9,3.4-7.8,6.8-11.7,10.1c0.6,3.3,1.3,6.6,1.9,9.9
	c7.5-1.8,13.7-8.1,15.4-15.6c-5.9,3.4-6.2,13.2-0.5,17c5.2-0.3,10.3-2.7,14-6.5c-3.4,3.8-5.6,8.8-6.1,13.9c4.6,1.4,10.1-1.4,11.7-6
	c-4.1,4.8-5.8,11.4-4.7,17.6c2.3-0.2,4.6-0.4,6.9-0.6c1.3-3.3,2.6-6.6,3.9-10c-1.4-1-2.9-2-4.3-3.1c-3.8,2.8-5,8.6-2.7,12.7
	c2.3,4.1,7.8,6.1,12.2,4.4c0.4,1.4,2.7,0.8,4.2,1.1c5.8,0.9,12.1,1,17.4-1.6s9.5-8.3,8.6-14.1c-3.1-0.9-6.5,1.1-8.3,3.8
	c-3.5,5.1-2.4,12.6,1.9,16.9c4.4,4.3,11.5,5.4,17.1,2.9c0.3-2.8,0.1-5.6-0.7-8.3c-4.3-1.1-9.3,1.6-10.6,5.9c2.1,1.5,5.5,0.6,6.5-1.8
	c-4.5,0.1-8.5,4.4-8.3,8.9c-3.3,0.8-6.1,3.8-6.5,7.2c1.5-1.7,0.4-4.8-1.8-5.3c-2.2-0.5-4.4,1.9-3.8,4.1c2.8-1.1,3.3-5.3,1.5-7.8
	c-1.9-2.4-5.1-3.3-8.2-3.5c-3.5-0.2-7.1,0.3-10.4,1.6c-3.3,1.3-6.8,4.7-5.2,7.9c1,1.9,3.4,2.6,5.6,2.7c2.6,0.2,5.6-0.3,7.1-2.4
	c2.2-2.9,0.3-7.3-2.8-9.2c-3.1-1.8-6.9-1.8-10.5-1.7c-1.9,0.1-3.9,0.1-5.6,1.1s-2.8,3.1-2,4.9c3.8,0,7.6-1.7,10.2-4.5
	c1-1.1,1.8-2.5,1.9-4.1c0.1-3-2.9-5.1-5.7-6.3c-3-1.2-6.5-1.8-9.6-0.6s-5.3,4.8-4.1,7.8c2.2,0.5,4.5-1.2,5.2-3.4
	c1-3.2-0.9-6.7-3.7-8.5c-2.8-1.8-6.2-2.3-9.5-2.5c-3.2-0.2-6.7-0.2-9.4,1.6c-2.7,1.8-4,5.9-1.9,8.3c2.1,2.4,7.3,0.2,6.2-2.9
	c-0.8-2.2-3.6-2.6-5.9-2.6c-3.1,0.1-6.3,0.6-8.8,2.3c-2.6,1.7-4.3,5-3.5,7.9c3.6-0.9,4.4-6.8,1.1-8.6c-3.3-1.8-7.8,2.1-6.6,5.6
	c1.3,2.1,5,1,5.8-1.3c0.8-2.4-0.5-4.9-2.2-6.7c-3.5-3.7-9-5.5-14-4.5c0,1,0,2,0.1,3.1c1.4,0,2.8,0.1,4.2,0.1c1.2-0.6,1-2.5,0.1-3.4
	s-2.4-1.1-3.8-1.2c-2.8-0.2-6.3-0.1-7.7,2.4c-1.5,2.5,0.8,6.2,3.8,6.3c2.9,0.1,5.5-2.8,5.4-5.7c-1.4,2.4-1.1,5.7,0.8,7.6
	c1.9,1.9,5.5,2.1,7.3,0c-2.2,0.7-3.5,3.3-2.7,5.5c4.4,1.7,9.3,2.1,14,1.3c3.6-10.4,5.1-21.5,4.4-32.4c-7.7,3.5-12.6,12.2-11.9,20.6
	c3.7,1.2,7.5,2.3,11.3,2.1s7.8-2.3,9.2-5.9c1.3-3.3,0.2-7.1-2.2-9.7s-5.8-4-9.2-4.6c-3.5-0.6-7.3-0.5-10.4,1.2s-5.3,5.3-4.7,8.8
	c0.6,3.5,4.7,6.1,8,4.7c3.5-1.6,4.1-6.3,3.6-10.1c-0.1-0.8-0.3-1.7-0.7-2.4c-1.5-2.2-5.3-1.1-6.4,1.3c-1.2,2.4-0.6,5.2,0,7.7
	c1.9,2.2,6.3,0.8,6.7-2.1c0.4-2.9-2.9-5.5-5.7-4.6c-2.8,0.9-4.1,4.7-2.6,7.2c2.9,1.7,7.1-0.7,7.8-4.1c0.7-3.3-1.2-6.8-4-8.9
	c-2.7-2.1-6.1-3-9.4-3.9c-0.3,2.1-0.7,4.2-1,6.3c4.2,6.8,8.5,13.7,14.9,18.5c8.9,6.7,21.3,8.4,31.8,4.7c-3.8,1.4-6.1,6.1-4.7,9.9
	c1.4,1.7,4.1-0.2,5.1-2.1c1.2-2.4,1.5-5.3,0.4-7.8s-3.9-4.2-6.5-3.6c-2.6,0.6-4.4,3.9-3,6.2c2.8-1.6,2.1-6.7-1-7.5
	c-3.1-0.8-6.2,3.2-4.6,6c1.4,2.4,4.8,2.8,7.6,2.6c16-1,32.4-10.1,38-25.2c1-2.6,1.6-5.5,0.8-8.2c-1.6-5.4-8.2-7.5-13.9-7.3
	c-5,0.1-10.2,1.4-14.1,4.6c-3.9,3.2-6.3,8.5-5.1,13.4c7.1-2.7,15.1-7.7,14.9-15.3c-0.1-3.1-1.7-6.1-4.2-7.9c-2.3-1.7-5.6-2.2-8.2-1
	c-2.6,1.2-4.3,4.3-3.5,7.1c0.3,1.1,1,2.1,1.9,2.8c0.6,0.5,1.4,0.9,2.2,1.2c6.2,2.5,14.3-0.2,17.2-6.2s-0.6-14.4-7.1-16.1
	s-13.8,4.8-12.5,11.4c6.3-0.5,12.1-5.5,13.3-11.8c0.2-0.8,0.2-1.7-0.2-2.4c-0.4-0.6-1.2-0.9-2-1.1c-4.5-1.4-10.7-1.9-12.5,2.4
	c3.3,1.6,7.6-0.8,8.6-4.4c1-3.5-1-7.5-4.2-9.3c-3.2-1.9-7.2-1.9-10.6-0.8c-1,0.3-2,0.8-2.7,1.6c-0.7,0.8-1,1.8-1.2,2.8
	c-0.6,3.3,0.4,7.2,3.4,8.8c2.9,1.6,7.5-0.5,7.3-3.8c-3.3-0.6-5,4.7-2.7,7.2c2.3,2.5,6.1,2.5,9.5,2.3c3.1-0.2,6.4-0.7,9.1-2.3
	s4.6-5,3.8-8c-2.7-1.5-6.4-1-8.7,1.2s-2.9,5.8-1.5,8.6c6.8,2.9,15.6-1.1,17.9-8.1c-3.8,2.4-6.2,6.9-6,11.4c4-0.3,7.9-1.6,11.2-3.8
	c1.6-1.1,3.1-2.4,3.5-4.2c0.8-3.1-2-6.4-5.1-6.8c-3.2-0.4-6.3,1.5-8.2,4.1c-1.9,2.6-2.7,5.8-3.4,8.9c-0.2,1-0.3,2.1,0.3,2.8
	c0.6,0.7,1.6,0.7,2.5,0.7c3-0.1,6.1-0.1,9.1-0.2c3.5-0.1,7.3-0.2,10.2-2.1c2.9-2,4.4-6.5,2.1-9.1c-1.4-1.5-3.6-2-5.7-1.8
	c-7.5,0.6-13.4,8.9-11.4,16.2c6.6,0.3,13.3-3.6,16.2-9.5c-4.5,0.2-9.3,1.6-11.6,5.4c-0.4,0.7-0.7,1.6-0.2,2.2
	c0.5,0.6,1.4,0.6,2.2,0.5c6.4-0.7,12.8-2.3,18.2-5.9s9.5-9.2,10.3-15.6c0.2-1.5,0-3.2-1.2-4c-0.8-0.5-1.8-0.4-2.7-0.3
	c-6.6,1.2-11.8,7.6-11.6,14.3c8.3-0.4,16-6.9,17.7-15c-5.2,1.4-10,4.4-13.5,8.5c-0.7,0.8-1.4,1.9-0.9,2.9c0.6,1.1,2.2,1.1,3.4,0.8
	c5.8-1.2,12-2.6,16.4-6.6c4.4-4,5.9-11.7,1.6-15.9c-2.1-2-5.2-2.8-8.1-3.1c-5.4-0.5-11.2,0.3-15.6,3.5c-4.4,3.2-7,9.2-5.1,14.4
	c5.8,0.4,10.3-6.8,8.1-12.3c-2.2-5.4-9.2-7.9-14.7-6.1c-5.6,1.8-9.5,7.1-10.9,12.8c-0.2,0.7-0.3,1.5,0.1,2.1
	c0.4,0.7,1.3,0.8,2.1,0.9c4.8,0.6,11.2,0.2,12.3-4.5c-5.3-2.3-11.2-3.2-17-2.6c-2.6,0.3-5.2,0.9-7.1,2.5c-1.9,1.7-3,4.7-1.7,6.9
	c3.6-0.2,7.1-1.9,9.5-4.5c-3.8-0.3-7.1,4-5.8,7.6c4.6,0.5,9.3,1,13.7-0.4c4.4-1.4,8.4-5.2,8.4-9.8c-1.3,1.4-2,3.4-1.6,5.3
	c6.1,0.5,12.4-3,15.1-8.5c0.1,4.1,0.1,8.1,0.2,12.2c8.5,1.3,17.6-3.2,21.6-10.9c-6,0-11.8,4.6-12.9,10.6c2.1,1.2,4.9,1,6.8-0.5
	c1.9-1.6,2.6-4.3,1.8-6.6c-7,2-12.4,8.5-13.2,15.7c-0.1,0.9-0.1,1.9,0.4,2.6c0.6,0.8,1.7,1.1,2.8,1.3c3.7,0.7,7.5,1.3,11.3,0.7
	c3.7-0.6,7.4-2.8,8.8-6.4c-5.7,4-9.6,10.5-10.5,17.3c7.7,0.4,15.2-6.1,15.8-13.9c-6-0.6-11.8,4.8-11.6,10.8c5.9-0.7,11.6-3.6,15.6-8
	c-4,2-6.4,6.8-5.6,11.2c1.7,0.9,3.9-0.3,4.7-2.1c0.8-1.7,0.6-3.7,0.3-5.6c-5.2,2.3-9.5,6.5-11.9,11.7c-0.8,1.7-1.4,3.5-1,5.4
	c0.3,1.8,1.9,3.5,3.7,3.5c1.9,0,3.4-2.3,2.4-3.9c-0.7-1-2.1-1.3-3.4-1.2c-6,0.1-11.8,3.9-14.1,9.4c-0.4,0.8-0.6,1.9-0.1,2.7
	c0.4,0.5,1.1,0.8,1.7,0.9c4.1,1,8.5,0.1,11.9-2.3c-7.6,0.2-13.2,9.5-10.1,16.3c-1.1,2.4-1.7,5-1.8,7.6c2.5-0.3,4.9-1.4,6.7-3.2
	c-1.5,1.7-2.6,3.7-3.1,5.9c2.2-2.9,3.2-6.6,2.8-10.1c-0.1-1.3-0.5-2.7-1.6-3.5c-1.8-1.3-4.4-0.2-5.9,1.5c-2.3,2.6-3.3,6.3-2.6,9.7
	c6,0,12-1.9,16.9-5.5c-8.8-1.6-18.3,4-21.2,12.4c4.1-0.6,7.7-3.7,8.9-7.7c-7.6,3.1-14.2,8.5-18.8,15.3c1.9,0.2,3.8-0.7,4.9-2.2
	c-4.9-1.4-10.6,1.7-12.1,6.5c2-0.1,3.9-1.1,5-2.8c-1.3,0-0.3,2.1,0.9,2.4c4.2,1,8.9-2.4,9.2-6.7c-4.7,0.8-8.7,4.5-9.9,9.1
	c2.2,0,4.6-0.2,6.3-1.5c1.8-1.3,2.7-4.1,1.2-5.8c-0.9-1.1-2.4-1.4-3.9-1.4c-5.1-0.1-10.2,2.9-12.5,7.4c3.7,0.9,7.6,1.1,11.5,0.6
	c2.6-0.3,5.9-1.7,5.8-4.4c-0.1-2.6-3.1-3.8-5.7-4.2c-6.9-1.2-13.9-1.4-20.9-0.6c2.8,5.4,7.2,11.6,13.1,10.6c4-0.7,6.6-4.5,8.6-8
	c4.8-8.7,8.5-18,10.9-27.6c-4.4-0.5-9-0.9-13.2,0.5c-4.2,1.4-8,5.1-8.2,9.5c0,1.5,0.4,3.1,1.6,3.9c0.9,0.6,2,0.8,3.1,0.9
	c7.4,0.8,15,0,22.1-2.3c3.8-1.2,8.2-4.1,7.5-8.1c-0.4-2.2-2.3-3.8-4.3-4.7c-5.2-2.5-11.6-2-16.5,1c-4.9,3-8.3,8.2-9.4,13.9
	c11.7,2.3,24.6-4.2,29.8-14.9c-6-5.4-15.1-5.2-23.1-4.6c-4.9,0.4-11.1,2-11.8,6.9c9.5,2.1,20.2-3.6,23.7-12.8
	c0.7-1.9,1.1-3.9,0.8-5.8c-1.2-6.2-9.2-7.9-15.5-7.3c-4.6,0.4-9.9,2.3-10.8,6.8c-1,5.2,5.9,9.3,10.9,7.4c5-1.9,7.7-7.3,8.9-12.5
	c-11.1,3.5-20.1,12.9-23.3,24.1c8.3,0.5,16.9-2.5,23-8.1c-6.9-1.1-14.3,2.8-17.4,9.2c12.1-2.5,23-10.2,29.4-20.8
	c0.7-1.1,1.3-2.5,0.6-3.5c-0.6-1-1.9-1.2-3.1-1.3c-10.2-0.8-21.9-0.7-28.7,6.9c7.5,4.4,17,5.4,25.3,2.6c5.5-1.9,11.2-6.8,9.9-12.5
	c-0.5-2.3-2.1-4.2-3.9-5.7c-3.1-2.7-7.5-4.3-11.4-3.1c-3.9,1.2-6.6,6.2-4.5,9.7c3.9-3,6.3-8,6.2-12.9c-2.1,2.7-3.3,6.1-3.5,9.5
	c7.8,3.4,17,3.6,25,0.7c-3.2-2.3-7.1-3.6-11-3.6c-1.4,0-3,0.2-4.3-0.4c-1.7-0.7-2.8-2.2-4.3-3.2c-2.6-1.6-5.9-1-8.8,0
	c-7.7,2.8-14.2,9-17.3,16.6c6.4-0.8,12.3-5,15.3-10.7c-0.5-2.8-3.2-4.9-6.1-5.4c-2.8-0.6-5.8,0.1-8.5,0.9c-4.2,1.3-8.6,3.2-10.8,6.9
	c-2.3,3.8-1.2,9.7,3,11.1c1.7,0.6,3.6,0.3,5.3-0.3c3.1-1,6.1-3.1,7.4-6.1c1.3-3,0.3-7.1-2.6-8.6c-2-1-4.4-0.7-6.5,0.2
	c-4.2,1.8-7.4,5.8-8.2,10.2c4.8,0.3,9.3-4.7,8.4-9.5c-4.3-1.3-8.9,1.6-11.8,5.1c-1.6,2-3.1,4.3-3.2,6.9c-0.1,2.6,1.5,5.3,4,5.8
	c2.5,0.5,5.2-2.4,4.1-4.7c-3.7-1.2-8.1-0.3-10.5,2.7c-2.4,3-2.2,8,0.9,10.3c3.1,2.3,8.4,0.7,9.2-3.1c0.4-1.8-0.2-3.7-1.5-4.9
	c-4.4-0.5-7.9,5.6-5.1,9.1c3-0.5,6-1.5,8.3-3.5c2.3-1.9,3.9-5,3.5-8s-3.1-5.7-6.2-5.5s-5.5,3.8-4.1,6.5c0.8,1.5,2.3,2.3,3.9,2.9
	c5.1,2,11,2.2,16.2,0.5c1.2-3.4-1.7-7.6-5.4-7.6c-3.6,0-6.6,4-5.5,7.5c0.1-1.9-2.4-2.9-4.2-2.5c-3.4,0.7-5.8,4.9-4.3,8
	s6.8,3.6,8.5,0.5c-4.1,2.3-6.9,6.9-7,11.6c5.5,2.1,12,1.6,17.1-1.4c-3.5-2.9-9.7-0.8-10.7,3.6c4.9,2.5,11.7-0.1,13.8-5.2
	c-1.2-2.1-4.2-2.5-6.3-1.3c-2.1,1.1-3.3,3.4-4,5.7c-0.3,1-0.5,2.1-0.2,3c0.6,1.6,2.7,2.4,4.3,1.8c1.6-0.6,2.8-2.1,3.2-3.8
	c1.5-5.4-4.9-11.2-10.2-9.2c-2.6,1-4.6,3.9-4,6.6c0.6,2.8,3.9,4.5,6.7,3.8c2.8-0.7,4.7-3.4,5-6.3c-5.3,0.6-9.6,5.8-9.3,11.1
	c3.7,1.8,7.9,2.4,11.9,1.7c1.8-0.3,4-1.5,3.7-3.3c-0.3-2.1-3.5-2.1-5.3-1c-2.6,1.7-4.2,4.8-4.1,7.9c6.1,0.6,9.9-6.7,10-12.7
	c0-1.5-0.1-3-0.9-4.2c-2-3-7-2.5-9.4,0.2s-3.1,6.5-3.6,10.1c1.1,2.7,5,2.4,7.8,1.6c4.6-1.3,9.7-3,11.8-7.2c2.6-5-0.4-11.4-5.1-14.5
	c-4.7-3.1-10.6-3.6-16.2-3.9c-6.4-0.2-14.3,0.6-17,6.5c-1.7,3.6-0.6,8.2,2.1,11.2s6.7,4.6,10.6,5c4.8,0.6,10.1-0.5,13.1-4.3
	c4.4-5.4,1.8-14-3.6-18.3c-5.4-4.3-12.7-5.4-19.6-6c-3.4-0.3-7.1-0.4-10,1.3c-2.9,1.8-4.5,6.2-2.2,8.7c11.2-3.8,18.3-14.5,23.7-25
	c-5.9-0.6-11.9-1.2-17.6,0.2c-5.7,1.4-11.2,5.2-13,10.9c5.2,4.5,12.8,4.4,19.6,3.8c12.1-1,24.9-3.4,33.5-11.9
	c-1.9-5.2-7.4-8.5-12.9-9.3c-5.5-0.8-11.1,0.4-16.4,1.8c3.7,0.5,7.5-2.1,8.5-5.6c-5.8-2.9-13.8,0.1-16.2,6.1
	c-0.3,0.8-0.6,1.8-0.3,2.6c0.8,2.4,4.4,1.6,6.6,0.5c7.6-4,15.3-8.1,22.9-12.1c-1.4,3.7,1.5,8,5.2,9.4c3.7,1.4,7.9,0.6,11.6-0.8
	c6.9-2.6,13.1-7.3,17.5-13.2c-0.9,5.6-2.6,11-5.1,16c6.6-3.6,11.3-10.4,12.5-17.8c-9.9,0.1-21.3,1.9-26.4,10.5
	c7.2,2.4,15.1,0.5,22.2-2.3c5.1-2,10.8-5.9,10.1-11.3c-3.6-5-10-8-16.2-7.6c-0.6,2.1-0.9,4.6,0.5,6.2s4.9,1,4.8-1.2
	c-0.8,7.1-1.9,14.2-3.3,21.2c5.5-0.7,11.1-4.3,12.2-9.8c1.1-5.5-4.6-11.6-9.8-9.5c-0.3,1.4-0.6,2.8-0.9,4.1
	c4.6,4.5,11.2,6.8,17.5,6.2c2.1-0.2,4.7-1.7,3.8-3.6c1.4-2.2-2.2-4.7-4.5-3.5c-2.3,1.2-3.1,4-3.6,6.5c-1.5,6.6-3,13.2-4.4,19.8
	c-6.2,1.9-11.6,6.1-15.1,11.5c1.1,0,2.2,0,3.3,0c-1.2,2-2,4.2-2.5,6.5c1.5,0.5,3,0.6,4.5,0.3c-0.8,2.7-1.6,5.4-2.4,8.1
	c1.4,0.3,2.9-0.5,3.5-1.7c-0.9,0-1,1.5-0.3,2s1.8,0.2,2.6-0.2c8.2-3.8,10.3-16.4,3.8-22.7c2,4.1,9,4.3,11.3,0.3
	c-8.8-4.7-21.4,1.4-23.3,11.2c5.2-3,8-9.4,7.1-15.3c-0.9-5.9-5.2-11.1-10.7-13.4c-2.9-1.2-6.3-1.7-9-0.1c-2.7,1.6-4,5.6-1.9,8
	c10.5,3,22.7-1,29.5-9.5c-1-5.1-5.1-9.3-9.8-11.5c-4.7-2.2-10.1-2.8-15.3-2.7c-5.4,0-12.2,1.9-12.9,7.2c4,0.6,8,1.3,11.9,0.8
	c4-0.5,8-2.4,10.1-5.8c-11.4-6-26.7-3.4-35.5,6.1c5.7,0.5,11.6-2.6,14.4-7.6c-8.4-1.2-17-1.3-25.4-0.3c-2.8,0.3-5.6,0.8-7.9,2.5
	c-2.2,1.7-3.6,4.8-2.4,7.3c2.1,4.4,9,3.1,12.6,6.4c-9,4.6-14.4,15.5-12.5,25.5c-3.3,1.1-6.7,2.2-9.4,4.5c-2.7,2.2-4.6,5.8-3.8,9.2
	c8.7,3.8,18.4,5.5,27.8,4.7c-1.2,1.7-2.4,3.5-2.6,5.6c-0.2,2.1,0.9,4.4,2.9,4.9c1,0.2,2.1-0.1,3.1-0.3c3.5-1,7.1-2,10.6-3
	c-2.9-0.6-5.8,2.5-5.1,5.3c3.1-1.9,4.8-5.7,4.3-9.2c-11.1-8.8-26.9-11.5-40.3-6.8c-2.8,3.1-1.2,8.5,2.2,10.9c3.4,2.5,7.8,2.8,12,2.9
	c4.2,0.1,8.6,0.2,12.2,2.2c-4.2-1.4-9.2,0.2-11.7,3.9c0.7,3,4.4,4.8,7.2,3.6c-0.8,0.7-1.3,1.8-1.3,2.9c2.5,1.8,5.9,2.3,8.9,1.3
	c-3.7-2.5-9.2-1.7-12.1,1.6c4.1,1.4,8.8,1.1,12.7-0.7c4.4,2.9,10.5,3,14.9,0.2c-4.1-1.8-9.3-0.7-12.4,2.6c3.5,2.6,9.5,0.5,10.5-3.8
	c-4.5,0.7-8.4,4.3-9.7,8.7c5,2,10.9,1.9,15.8-0.3c2.3-1,4.7-3.7,3.2-5.8c-2.3,0.4-4.5,1.5-6.1,3.2c6.7,1.2,13.9-1.8,17.9-7.3
	c-29-16.9-65-16.8-95.8-30.3c2.1-3.1,3.2-6.8,3.4-10.5c-5.6,5.7-3,16.2,3.5,21c6.4,4.8,15.1,5.3,23.1,4.8c1.2-4.7-1.6-10.1-6.2-11.7
	c-4.6-1.6-10.2,0.9-12.2,5.3c10.2-0.9,19.5-8.8,22-18.7c-4.2-1-8.9,0.3-12,3.3c-0.9,0.9-1.8,2-2,3.3c-0.5,2.9,2.5,5.4,5.4,5.4
	s5.5-1.8,7.6-3.8c-0.3-0.8-0.6-1.6-0.9-2.4c-4.3-0.2-8.6,0.5-12.6,2c0.3-1.4,0.3-2.8,0-4.2c-2.8,0.1-5.2,3.2-4.4,6
	c-0.3-1.4-1.5-2.4-2.9-2.6"/>
<path fill="none" stroke="#000000" stroke-linecap="round" stroke-linejoin="round" stroke-miterlimit="10" d="M191.4,460.1
	c16.9,28.3,34,56.5,51.4,84.4c2.8-10.5,6.7-22.3,16.7-26.6c15.9-6.8,32.3,10.8,49.6,10.7c0.1,5.1,0.3,10.1,0.4,15.2
	c0.7-4.2,2.3-8.3,4.7-11.9c-1.2,4.5-2.4,9.1-3.7,13.6c1.6-4.8,3.7-9.3,6.4-13.6c-1.3,5.1-2.7,10.2-4,15.2c1.7-4.1,3.3-8.3,5-12.4
	c-3.3,12.8,4.2,26.5,15.1,33.9c10.9,7.4,24.6,9.6,37.7,10.2c1.7-12.7,2.7-27.6-6.5-36.5c-11.1-10.7-29.8-6.2-43.7-12.9
	c-0.2,7-2.8,13.9-7.2,19.2c-1.1-2.6-2.3-5.1-3.4-7.7c1.9,3.4-2.5,7.2-6.4,7.4c-3.9,0.2-8-1.2-11.6,0.1c-3.4,1.2-5.5,4.4-8.2,6.7
	c-5.9,4.9-14.6,5.4-22,3.1c-7.4-2.3-13.7-6.9-19.9-11.5c18.6,23,35.1,47.7,49.1,73.8c32.7-13.7,70.7-14.3,103.8-1.7
	c-5.4-16-13.6-31.1-24.2-44.2c8.5,15.5,17,31.1,25.5,46.6c24.6-9.8,52.2-2.8,78,3.3c25.7,6.2,54.4,11,77.4-2
	c-8.4-9.8-15.7-20.5-21.8-31.9c-5.1-9.7-9.4-20.1-15.8-29c-6.4-8.9-15.6-16.6-26.5-18.2c-5.3-0.8-10.7-0.1-16.1,0.1
	c-28.9,1.1-57.9-13.4-74.3-37.2c-12.9,6.2-25.7,12.4-38.6,18.6c-1.9-3.2-6.6-1-10,0.5c-13.2,6.2-28.3-3.3-38.9-13.2
	c-3.2,0.4-6.3,2.2-8.1,4.9c-2-4.5-7.6-6-12.5-6.9c-10.1-1.9-20.1-3.9-30.2-5.8c4.8,1.9,9.6,3.8,14.5,5.7
	c-12.4-11.3-24.8-22.5-37.2-33.8c-1.7-1.6-3.4-3.1-4.6-5.1c-1.8-2.9-2.2-6.5-3.7-9.6c-1.5-3.1-5-5.8-8.2-4.5
	c-1.4-9.8-6-19.1-13.1-26c-1.1-1.1-2.3-2.1-3.9-2.3c-3.5-0.4-5.5,3.8-6.4,7.2c-2,8.1-3.5,16.3-4.5,24.6c2.8-12.7,5.5-25.5,8.3-38.2
	c0.8-3.7,1.2-8.6-2.1-10.5c-3.9-2.2-8.3,1.8-10.9,5.5c-12.8,17.8-25.7,35.6-38.5,53.4c-3.5,4.8-7,9.6-11.6,13.3
	c-7.8,6.3-18,8.6-27.4,12c-11.8,4.3-23,10.6-32.8,18.5c-2.2,1.8-4.3,3.7-5.8,6.1c-6.7,11.2,5.3,24.8,4.6,37.8
	c-0.3,6.3-4,12.4-9.4,15.7c7.6,1,8.1,11.9,5.6,19.2c-2.5,7.2-5.3,16.8,0.9,21.3c2.5,1.8,5.8,2.1,9,2.3c10.1,0.8,20.1,2.5,29.9,5.1
	c6.3,1.7,12.5,3.7,19,4.6c5.8,0.9,11.7,0.9,17.6,0.9c20.4,0,40.8,0.1,61.2,0.1c-24-3.5-48.4-4.3-72.6-2.4c-1.2-14.7,0.2-29.5,4-43.7
	c0.3,16.7-1.7,33.5-5.9,49.7c27.8-6.8,57-2.6,85.6-1.9c24.2,0.6,48.5-1.3,72.4-5.6"/>
</svg>
