<?xml version="1.0" encoding="utf-8"?>
<!-- Generator: Adobe Illustrator 19.1.1, SVG Export Plug-In . SVG Version: 6.00 Build 0)  -->
<svg version="1.2" baseProfile="tiny" id="Слой_1"
	 xmlns="http://www.w3.org/2000/svg" xmlns:xlink="http://www.w3.org/1999/xlink" x="0px" y="0px" viewBox="0 0 595.3 841.9"
	 xml:space="preserve">
<path d="M297.9,242.3l-7.7,8c-0.6,0.7-1.3,1.3-1.9,2l-1.8,2.1l-3.6,4.1l-1.8,2.1c-0.6,0.7-1.2,1.4-1.8,2.1l-3.4,4.3l-3.4,4.3
	l-3.2,4.5l-3.2,4.5c-1.1,1.5-2,3.1-3,4.6c-2,3.1-4,6.1-5.8,9.3l-2.8,4.7c-0.5,0.8-0.9,1.6-1.4,2.4l-1.3,2.4l-2.6,4.8l-1.3,2.4
	l-1.2,2.5l-2.4,4.9l-1.2,2.5l-1.1,2.5c-1.5,3.3-3.1,6.6-4.4,10c-1.4,3.4-2.9,6.7-4.2,10.2c-1.3,3.4-2.7,6.8-3.9,10.3
	c-1.3,3.4-2.6,6.9-3.8,10.3l-3.7,10.4c-2.4,6.9-4.8,13.9-7.4,20.9c-0.7,2-3,3.1-5,2.4c-1.2-0.4-2-1.4-2.4-2.5l-0.1-0.3l-2-6
	c-0.7-2-1.5-3.9-2.3-5.8c-0.4-1-0.9-1.9-1.3-2.9l-1.3-2.8c-0.4-1-0.9-1.9-1.4-2.8l-1.5-2.8l-0.7-1.4l-0.8-1.3l-1.6-2.7
	c-1.1-1.8-2.3-3.5-3.5-5.3c-1.1-1.8-2.5-3.4-3.8-5.1c-1.2-1.7-2.7-3.3-4-4.9c-1.3-1.7-2.8-3.2-4.2-4.8c-1.4-1.6-3-3.1-4.4-4.6
	c-1.5-1.6-3.1-3-4.6-4.5c-1.5-1.5-3.2-2.9-4.8-4.4c-1.6-1.5-3.3-2.8-4.9-4.3c-1.6-1.4-3.3-2.8-5-4.2l-5.1-4.1l-5.1-4.1l0.4-0.7
	c1.9,1,3.9,2,5.8,3.1c1.9,1.1,3.8,2.1,5.7,3.3c1.9,1.2,3.8,2.3,5.6,3.5c1.8,1.2,3.7,2.4,5.5,3.7c1.8,1.3,3.6,2.6,5.3,4
	c1.7,1.4,3.5,2.7,5.2,4.2c1.7,1.5,3.4,2.9,5,4.4c1.6,1.6,3.3,3,4.8,4.7c1.5,1.6,3.1,3.2,4.5,5c1.4,1.7,3,3.4,4.3,5.2l2,2.7l1,1.4
	l0.9,1.4l1.9,2.8l0.9,1.4l0.8,1.5l1.7,3c0.6,1,1.1,2,1.6,3l1.5,3.1c0.5,1,1,2,1.4,3.1c0.8,2.1,1.7,4.2,2.4,6.4l1.9,6.5l-7.5-0.4
	l4.2-10.2l4.1-10.3l4.1-10.3l2.1-5.1l2.1-5.1c1.4-3.4,2.9-6.8,4.3-10.2c1.4-3.4,3-6.8,4.6-10.1c1.5-3.4,3.2-6.7,4.8-10l1.2-2.5
	l1.3-2.5l2.6-4.9l1.3-2.5l1.4-2.4l2.8-4.8l1.4-2.4c0.5-0.8,1-1.6,1.5-2.4l3-4.7c1.9-3.2,4.2-6.1,6.3-9.2c1.1-1.5,2.1-3.1,3.3-4.5
	l3.4-4.4l3.4-4.4l3.6-4.2l3.6-4.2c0.6-0.7,1.2-1.4,1.9-2.1l1.9-2l3.8-4l1.9-2c0.6-0.7,1.3-1.3,2-1.9l8.1-7.6L297.9,242.3z"/>
</svg>
